<svg width="20" height="20" viewBox="0 0 20 20" fill="none" xmlns="http://www.w3.org/2000/svg">
<g clip-path="url(#clip0_1_5788)">
<path d="M6.66732 2.5V10C6.66732 10.8841 7.01851 11.7319 7.64363 12.357C8.26875 12.9821 9.1166 13.3333 10.0007 13.3333C10.8847 13.3333 11.7326 12.9821 12.3577 12.357C12.9828 11.7319 13.334 10.8841 13.334 10V2.5H15.0007V10C15.0007 11.3261 14.4739 12.5979 13.5362 13.5355C12.5985 14.4732 11.3267 15 10.0007 15C8.67457 15 7.4028 14.4732 6.46512 13.5355C5.52744 12.5979 5.00065 11.3261 5.00065 10V2.5H6.66732ZM3.33398 16.6667H16.6673V18.3333H3.33398V16.6667Z" fill="#7D7D7D"/>
</g>
<defs>
<clipPath id="clip0_1_5788">
<rect width="20" height="20" fill="white"/>
</clipPath>
</defs>
</svg>
