<svg width="20" height="20" viewBox="0 0 20 20" fill="none" xmlns="http://www.w3.org/2000/svg">
<g clip-path="url(#clip0_1_5819)">
<path d="M3.33268 6.66667H16.666V4.16667H3.33268V6.66667ZM11.666 15.8333V8.33333H8.33268V15.8333H11.666ZM13.3327 15.8333H16.666V8.33333H13.3327V15.8333ZM6.66602 15.8333V8.33333H3.33268V15.8333H6.66602ZM2.49935 2.5H17.4993C17.7204 2.5 17.9323 2.5878 18.0886 2.74408C18.2449 2.90036 18.3327 3.11232 18.3327 3.33333V16.6667C18.3327 16.8877 18.2449 17.0996 18.0886 17.2559C17.9323 17.4122 17.7204 17.5 17.4993 17.5H2.49935C2.27834 17.5 2.06637 17.4122 1.91009 17.2559C1.75381 17.0996 1.66602 16.8877 1.66602 16.6667V3.33333C1.66602 3.11232 1.75381 2.90036 1.91009 2.74408C2.06637 2.5878 2.27834 2.5 2.49935 2.5Z" fill="#7D7D7D"/>
</g>
<defs>
<clipPath id="clip0_1_5819">
<rect width="20" height="20" fill="white"/>
</clipPath>
</defs>
</svg>
