<svg width="20" height="20" viewBox="0 0 20 20" fill="none" xmlns="http://www.w3.org/2000/svg">
<g clip-path="url(#clip0_1_5782)">
<path d="M6.66667 9.16666H10.4167C10.9692 9.16666 11.4991 8.94717 11.8898 8.55647C12.2805 8.16577 12.5 7.63586 12.5 7.08333C12.5 6.53079 12.2805 6.00089 11.8898 5.61019C11.4991 5.21949 10.9692 4.99999 10.4167 4.99999H6.66667V9.16666ZM15 12.9167C15 13.4091 14.903 13.8968 14.7145 14.3517C14.5261 14.8067 14.2499 15.2201 13.9016 15.5683C13.5534 15.9165 13.14 16.1928 12.6851 16.3812C12.2301 16.5697 11.7425 16.6667 11.25 16.6667H5V3.33333H10.4167C11.1508 3.33336 11.8688 3.54887 12.4816 3.95314C13.0944 4.35741 13.575 4.93266 13.8639 5.60755C14.1528 6.28244 14.2373 7.02729 14.1068 7.74974C13.9764 8.47218 13.6367 9.14045 13.13 9.67166C13.6989 10.0011 14.1711 10.4743 14.4993 11.0439C14.8276 11.6134 15.0002 12.2593 15 12.9167ZM6.66667 10.8333V15H11.25C11.8025 15 12.3324 14.7805 12.7231 14.3898C13.1138 13.9991 13.3333 13.4692 13.3333 12.9167C13.3333 12.3641 13.1138 11.8342 12.7231 11.4435C12.3324 11.0528 11.8025 10.8333 11.25 10.8333H6.66667Z" fill="#7D7D7D"/>
</g>
<defs>
<clipPath id="clip0_1_5782">
<rect width="20" height="20" fill="white"/>
</clipPath>
</defs>
</svg>
