<svg width="20" height="20" viewBox="0 0 20 20" fill="none" xmlns="http://www.w3.org/2000/svg">
<g clip-path="url(#clip0_1_5815)">
<path d="M4.85667 5.83333H10.8333C12.1594 5.83333 13.4312 6.36012 14.3689 7.2978C15.3065 8.23548 15.8333 9.50725 15.8333 10.8333C15.8333 12.1594 15.3065 13.4312 14.3689 14.3689C13.4312 15.3066 12.1594 15.8333 10.8333 15.8333H3.33333V17.5H10.8333C12.6014 17.5 14.2971 16.7976 15.5474 15.5474C16.7976 14.2971 17.5 12.6014 17.5 10.8333C17.5 9.06522 16.7976 7.36953 15.5474 6.11929C14.2971 4.86905 12.6014 4.16667 10.8333 4.16667H4.85667L6.97 2.05333L5.79167 0.875L1.66667 5L5.79167 9.125L6.97 7.94667L4.85667 5.83333Z" fill="#7D7D7D"/>
</g>
<defs>
<clipPath id="clip0_1_5815">
<rect width="20" height="20" fill="white" transform="matrix(-1 0 0 1 20 0)"/>
</clipPath>
</defs>
</svg>
