<svg width="20" height="20" viewBox="0 0 20 20" fill="none" xmlns="http://www.w3.org/2000/svg">
<path d="M12.5 7.5H15.625M12.5 10H15.625M12.5 12.5H15.625M3.75 16.25H16.25C16.7473 16.25 17.2242 16.0525 17.5758 15.7008C17.9275 15.3492 18.125 14.8723 18.125 14.375V5.625C18.125 5.12772 17.9275 4.65081 17.5758 4.29917C17.2242 3.94754 16.7473 3.75 16.25 3.75H3.75C3.25272 3.75 2.77581 3.94754 2.42417 4.29917C2.07254 4.65081 1.875 5.12772 1.875 5.625V14.375C1.875 14.8723 2.07254 15.3492 2.42417 15.7008C2.77581 16.0525 3.25272 16.25 3.75 16.25ZM8.75 7.8125C8.75 8.01769 8.70958 8.22087 8.63106 8.41044C8.55254 8.60001 8.43745 8.77226 8.29235 8.91735C8.14726 9.06245 7.97501 9.17754 7.78544 9.25606C7.59587 9.33458 7.39269 9.375 7.1875 9.375C6.98231 9.375 6.77913 9.33458 6.58956 9.25606C6.39999 9.17754 6.22774 9.06245 6.08265 8.91735C5.93755 8.77226 5.82246 8.60001 5.74394 8.41044C5.66542 8.22087 5.625 8.01769 5.625 7.8125C5.625 7.3981 5.78962 7.00067 6.08265 6.70765C6.37567 6.41462 6.7731 6.25 7.1875 6.25C7.6019 6.25 7.99933 6.41462 8.29235 6.70765C8.58538 7.00067 8.75 7.3981 8.75 7.8125ZM9.82833 13.0925C9.01525 13.5256 8.10789 13.7514 7.18667 13.75C6.266 13.7511 5.35925 13.5253 4.54667 13.0925C4.74524 12.5519 5.10495 12.0852 5.57722 11.7556C6.04949 11.4259 6.61156 11.2491 7.1875 11.2491C7.76344 11.2491 8.32551 11.4259 8.79778 11.7556C9.27005 12.0852 9.62976 12.5519 9.82833 13.0925Z" stroke="#7D7D7D" stroke-width="1.5" stroke-linecap="round" stroke-linejoin="round"/>
</svg>
