<svg width="14" height="14" viewBox="0 0 14 14" fill="none" xmlns="http://www.w3.org/2000/svg">
<g id="vuesax/linear/direct-inbox">
<g id="direct-inbox">
<path id="Vector" d="M7 1.16669V5.25002L8.16667 4.08335" stroke="#686D82" stroke-width="0.875" stroke-linecap="round" stroke-linejoin="round"/>
<path id="Vector_2" d="M6.99967 5.24998L5.83301 4.08331" stroke="#686D82" stroke-width="0.875" stroke-linecap="round" stroke-linejoin="round"/>
<path id="Vector_3" d="M1.15527 7.58331H3.72777C3.94944 7.58331 4.14777 7.70581 4.24694 7.90415L4.92944 9.26915C5.12777 9.66581 5.53027 9.91665 5.97361 9.91665H8.03277C8.47611 9.91665 8.87861 9.66581 9.07694 9.26915L9.75944 7.90415C9.85861 7.70581 10.0628 7.58331 10.2786 7.58331H12.8219" stroke="#686D82" stroke-width="0.875" stroke-linecap="round" stroke-linejoin="round"/>
<path id="Vector_4" d="M4.08366 2.40918C2.01866 2.71251 1.16699 3.92585 1.16699 6.41668V8.75001C1.16699 11.6667 2.33366 12.8333 5.25033 12.8333H8.75033C11.667 12.8333 12.8337 11.6667 12.8337 8.75001V6.41668C12.8337 3.92585 11.982 2.71251 9.91699 2.40918" stroke="#686D82" stroke-width="0.875" stroke-linecap="round" stroke-linejoin="round"/>
</g>
</g>
</svg>
