<svg width="16" height="16" viewBox="0 0 16 16" fill="none" xmlns="http://www.w3.org/2000/svg">
<path d="M6.39617 2.62676C6.45645 2.26512 6.76934 2.00006 7.13597 2.00006H8.86528C9.23191 2.00006 9.5448 2.26512 9.60507 2.62676L9.74741 3.48079C9.78897 3.73016 9.95562 3.93787 10.1768 4.0603C10.2262 4.08767 10.2751 4.11595 10.3234 4.14511C10.5401 4.27595 10.8037 4.31664 11.0407 4.22783L11.8519 3.92391C12.1953 3.79529 12.5813 3.93373 12.7646 4.25124L13.6292 5.74887C13.8126 6.06638 13.7395 6.46988 13.4564 6.7029L12.7868 7.25411C12.5918 7.41465 12.4952 7.66254 12.4998 7.91508C12.5004 7.94334 12.5006 7.97167 12.5006 8.00006C12.5006 8.02845 12.5004 8.05677 12.4998 8.08503C12.4952 8.33757 12.5918 8.58547 12.7868 8.746L13.4564 9.29721C13.7395 9.53023 13.8126 9.93373 13.6292 10.2512L12.7646 11.7489C12.5813 12.0664 12.1953 12.2048 11.8519 12.0762L11.0407 11.7723C10.8037 11.6835 10.5401 11.7242 10.3234 11.855C10.2751 11.8842 10.2263 11.9124 10.1768 11.9398C9.95562 12.0623 9.78897 12.27 9.74741 12.5193L9.60507 13.3734C9.5448 13.735 9.23191 14.0001 8.86528 14.0001H7.13597C6.76934 14.0001 6.45645 13.735 6.39617 13.3734L6.25383 12.5193C6.21227 12.27 6.04563 12.0623 5.82445 11.9398C5.775 11.9124 5.72612 11.8842 5.67783 11.855C5.46114 11.7242 5.19759 11.6835 4.96054 11.7723L4.1493 12.0762C3.80597 12.2048 3.41998 12.0664 3.23666 11.7489L2.37201 10.2513C2.18869 9.93374 2.26179 9.53024 2.54485 9.29722L3.21442 8.74601C3.40942 8.58548 3.50609 8.33758 3.50141 8.08504C3.50089 8.05678 3.50062 8.02845 3.50062 8.00006C3.50062 7.97168 3.50089 7.94335 3.50141 7.91509C3.50609 7.66255 3.40942 7.41466 3.21442 7.25412L2.54485 6.70291C2.26179 6.46989 2.18869 6.06639 2.37201 5.74888L3.23666 4.25125C3.41998 3.93374 3.80597 3.7953 4.1493 3.92392L4.96053 4.22784C5.19758 4.31664 5.46113 4.27596 5.67782 4.14511C5.72611 4.11595 5.77499 4.08768 5.82445 4.0603C6.04563 3.93787 6.21227 3.73016 6.25383 3.48079L6.39617 2.62676Z" stroke="#686D82" stroke-linecap="round" stroke-linejoin="round"/>
<path d="M10.0005 8.00001C10.0005 9.10458 9.10504 10 8.00047 10C6.8959 10 6.00047 9.10458 6.00047 8.00001C6.00047 6.89544 6.8959 6.00001 8.00047 6.00001C9.10504 6.00001 10.0005 6.89544 10.0005 8.00001Z" stroke="#686D82" stroke-linecap="round" stroke-linejoin="round"/>
</svg>
