<svg width="14" height="14" viewBox="0 0 14 14" fill="none" xmlns="http://www.w3.org/2000/svg">
<g id="thumbs-up" clip-path="url(#clip0_1_2159)">
<path id="Vector" d="M4.08366 12.8333H2.33366C2.02424 12.8333 1.72749 12.7104 1.5087 12.4916C1.28991 12.2728 1.16699 11.9761 1.16699 11.6667V7.58334C1.16699 7.27392 1.28991 6.97717 1.5087 6.75838C1.72749 6.53959 2.02424 6.41667 2.33366 6.41667H4.08366M8.16699 5.25V2.91667C8.16699 2.45254 7.98262 2.00742 7.65443 1.67923C7.32624 1.35105 6.88112 1.16667 6.41699 1.16667L4.08366 6.41667V12.8333H10.6637C10.945 12.8365 11.218 12.7379 11.4324 12.5557C11.6468 12.3734 11.7881 12.1199 11.8303 11.8417L12.6353 6.59167C12.6607 6.42446 12.6494 6.25374 12.6023 6.09132C12.5551 5.9289 12.4732 5.77868 12.3622 5.65105C12.2513 5.52343 12.1139 5.42147 11.9596 5.35222C11.8053 5.28297 11.6378 5.24809 11.4687 5.25H8.16699Z" stroke="#686D82" stroke-linecap="round" stroke-linejoin="round"/>
</g>
<defs>
<clipPath id="clip0_1_2159">
<rect width="14" height="14" fill="white"/>
</clipPath>
</defs>
</svg>
