<svg width="14" height="14" viewBox="0 0 14 14" fill="none" xmlns="http://www.w3.org/2000/svg">
<g id="heroicons-outline/trash">
<path id="Vector" d="M8.59953 5.25L8.39761 10.5M5.60434 10.5L5.40242 5.25M11.2171 3.37783C11.4166 3.40796 11.6154 3.44019 11.8135 3.4745M11.2171 3.37783L10.5942 11.4757C10.5416 12.1595 9.97139 12.6875 9.28556 12.6875H4.71639C4.03056 12.6875 3.46036 12.1595 3.40776 11.4757L2.78485 3.37783M11.2171 3.37783C10.5484 3.27684 9.87186 3.1995 9.18848 3.14669M2.18848 3.4745C2.38656 3.44019 2.58536 3.40796 2.78485 3.37783M2.78485 3.37783C3.4536 3.27684 4.1301 3.1995 4.81348 3.14669M9.18848 3.14669V2.61228C9.18848 1.92431 8.65726 1.34997 7.96965 1.32797C7.64802 1.31768 7.3251 1.3125 7.00098 1.3125C6.67685 1.3125 6.35393 1.31768 6.0323 1.32797C5.34469 1.34997 4.81348 1.92431 4.81348 2.61228V3.14669M9.18848 3.14669C8.46664 3.09091 7.73712 3.0625 7.00098 3.0625C6.26483 3.0625 5.53532 3.09091 4.81348 3.14669" stroke="#141B34" stroke-linecap="round" stroke-linejoin="round"/>
</g>
</svg>
