<svg width="126" height="38" viewBox="0 0 126 38" fill="none" xmlns="http://www.w3.org/2000/svg">
<g filter="url(#filter0_d_45_715)">
<path d="M46.7605 24V9.432H50.6965V24H46.7605ZM41.8405 9.912V6.48H55.6405V9.912H41.8405ZM57.7276 24V10.848H61.5676V24H57.7276ZM55.9756 13.68V10.848H61.5676V13.68H55.9756ZM59.2156 9.552C58.4956 9.552 57.9596 9.368 57.6076 9C57.2716 8.616 57.1036 8.136 57.1036 7.56C57.1036 6.968 57.2716 6.488 57.6076 6.12C57.9596 5.736 58.4956 5.544 59.2156 5.544C59.9356 5.544 60.4636 5.736 60.7996 6.12C61.1516 6.488 61.3276 6.968 61.3276 7.56C61.3276 8.136 61.1516 8.616 60.7996 9C60.4636 9.368 59.9356 9.552 59.2156 9.552ZM65.1192 24V10.848H68.1672V16.512H67.9512C67.9512 15.168 68.1192 14.048 68.4552 13.152C68.7912 12.256 69.2952 11.584 69.9672 11.136C70.6392 10.672 71.4632 10.44 72.4392 10.44H72.6072C73.5992 10.44 74.4232 10.672 75.0792 11.136C75.7512 11.584 76.2552 12.256 76.5912 13.152C76.9432 14.048 77.1192 15.168 77.1192 16.512H76.1832C76.1832 15.168 76.3512 14.048 76.6872 13.152C77.0392 12.256 77.5512 11.584 78.2232 11.136C78.8952 10.672 79.7192 10.44 80.6952 10.44H80.8632C81.8552 10.44 82.6872 10.672 83.3592 11.136C84.0472 11.584 84.5672 12.256 84.9192 13.152C85.2712 14.048 85.4472 15.168 85.4472 16.512V24H81.6072V16.296C81.6072 15.576 81.4152 14.992 81.0312 14.544C80.6632 14.096 80.1352 13.872 79.4472 13.872C78.7592 13.872 78.2152 14.104 77.8152 14.568C77.4152 15.016 77.2152 15.616 77.2152 16.368V24H73.3512V16.296C73.3512 15.576 73.1592 14.992 72.7752 14.544C72.4072 14.096 71.8872 13.872 71.2152 13.872C70.5112 13.872 69.9592 14.104 69.5592 14.568C69.1592 15.016 68.9592 15.616 68.9592 16.368V24H65.1192ZM94.7448 24.456C93.6248 24.456 92.6328 24.264 91.7688 23.88C90.9208 23.496 90.2088 22.984 89.6328 22.344C89.0728 21.688 88.6408 20.96 88.3368 20.16C88.0488 19.344 87.9048 18.512 87.9048 17.664V17.184C87.9048 16.304 88.0488 15.464 88.3368 14.664C88.6408 13.848 89.0728 13.12 89.6328 12.48C90.1928 11.84 90.8888 11.336 91.7208 10.968C92.5688 10.584 93.5288 10.392 94.6008 10.392C96.0088 10.392 97.1928 10.712 98.1528 11.352C99.1288 11.976 99.8728 12.8 100.385 13.824C100.897 14.832 101.153 15.936 101.153 17.136V18.432H89.5128V16.248H98.8248L97.5768 17.256C97.5768 16.472 97.4648 15.8 97.2408 15.24C97.0168 14.68 96.6808 14.256 96.2328 13.968C95.8008 13.664 95.2568 13.512 94.6008 13.512C93.9288 13.512 93.3608 13.664 92.8968 13.968C92.4328 14.272 92.0808 14.72 91.8408 15.312C91.6008 15.888 91.4808 16.6 91.4808 17.448C91.4808 18.232 91.5928 18.92 91.8168 19.512C92.0408 20.088 92.3928 20.536 92.8728 20.856C93.3528 21.176 93.9768 21.336 94.7448 21.336C95.4488 21.336 96.0248 21.2 96.4728 20.928C96.9208 20.656 97.2248 20.32 97.3848 19.92H100.913C100.721 20.8 100.345 21.584 99.7848 22.272C99.2248 22.96 98.5208 23.496 97.6728 23.88C96.8248 24.264 95.8488 24.456 94.7448 24.456Z" fill="#141B34"/>
<path d="M115.745 29.232C114.657 29.232 113.713 29.104 112.913 28.848C112.129 28.592 111.513 28.128 111.065 27.456C110.633 26.784 110.417 25.824 110.417 24.576V21.888H114.089V24.744C114.089 25.208 114.217 25.56 114.473 25.8C114.745 26.056 115.113 26.184 115.577 26.184H118.193V29.232H115.745ZM112.313 24.456C110.729 24.456 109.345 24.184 108.161 23.64C106.993 23.08 106.025 22.352 105.257 21.456C104.489 20.544 103.913 19.56 103.529 18.504C103.161 17.448 102.977 16.432 102.977 15.456V14.928C102.977 13.84 103.169 12.768 103.553 11.712C103.953 10.64 104.545 9.672 105.329 8.808C106.113 7.944 107.089 7.256 108.257 6.744C109.425 6.216 110.777 5.952 112.313 5.952C113.849 5.952 115.201 6.216 116.369 6.744C117.537 7.256 118.513 7.944 119.297 8.808C120.081 9.672 120.673 10.64 121.073 11.712C121.473 12.768 121.673 13.84 121.673 14.928V15.456C121.673 16.432 121.481 17.448 121.097 18.504C120.713 19.56 120.137 20.544 119.369 21.456C118.601 22.352 117.625 23.08 116.441 23.64C115.273 24.184 113.897 24.456 112.313 24.456ZM112.313 20.784C113.145 20.784 113.889 20.64 114.545 20.352C115.217 20.064 115.785 19.664 116.249 19.152C116.729 18.64 117.089 18.048 117.329 17.376C117.569 16.704 117.689 15.984 117.689 15.216C117.689 14.4 117.561 13.656 117.305 12.984C117.065 12.296 116.705 11.704 116.225 11.208C115.761 10.696 115.201 10.304 114.545 10.032C113.889 9.76 113.145 9.624 112.313 9.624C111.481 9.624 110.737 9.76 110.081 10.032C109.425 10.304 108.857 10.696 108.377 11.208C107.913 11.704 107.561 12.296 107.321 12.984C107.081 13.656 106.961 14.4 106.961 15.216C106.961 15.984 107.081 16.704 107.321 17.376C107.561 18.048 107.913 18.64 108.377 19.152C108.857 19.664 109.425 20.064 110.081 20.352C110.737 20.64 111.481 20.784 112.313 20.784Z" fill="#FF645A"/>
<path d="M34 15C34 17.9667 33.1203 20.8668 31.472 23.3336C29.8238 25.8003 27.4811 27.7229 24.7403 28.8582C21.9994 29.9935 18.9834 30.2906 16.0736 29.7118C13.1639 29.133 10.4912 27.7044 8.3934 25.6066C6.29561 23.5088 4.867 20.8361 4.28822 17.9264C3.70944 15.0166 4.00649 12.0006 5.14181 9.25975C6.27712 6.51886 8.19971 4.17618 10.6664 2.52796C13.1332 0.879735 16.0333 -3.53778e-08 19 0V15H34Z" fill="url(#paint0_angular_45_715)"/>
</g>
<defs>
<filter id="filter0_d_45_715" x="0" y="0" width="125.673" height="38" filterUnits="userSpaceOnUse" color-interpolation-filters="sRGB">
<feFlood flood-opacity="0" result="BackgroundImageFix"/>
<feColorMatrix in="SourceAlpha" type="matrix" values="0 0 0 0 0 0 0 0 0 0 0 0 0 0 0 0 0 0 127 0" result="hardAlpha"/>
<feOffset dy="4"/>
<feGaussianBlur stdDeviation="2"/>
<feComposite in2="hardAlpha" operator="out"/>
<feColorMatrix type="matrix" values="0 0 0 0 0 0 0 0 0 0 0 0 0 0 0 0 0 0 0.25 0"/>
<feBlend mode="normal" in2="BackgroundImageFix" result="effect1_dropShadow_45_715"/>
<feBlend mode="normal" in="SourceGraphic" in2="effect1_dropShadow_45_715" result="shape"/>
</filter>
<radialGradient id="paint0_angular_45_715" cx="0" cy="0" r="1" gradientUnits="userSpaceOnUse" gradientTransform="translate(19 15) scale(15)">
<stop stop-color="#FF4F44"/>
<stop offset="1" stop-color="#FFBCB8"/>
</radialGradient>
</defs>
</svg>
