<svg width="14" height="14" viewBox="0 0 14 14" fill="none" xmlns="http://www.w3.org/2000/svg">
<g id="heroicons-outline/trash">
<path id="Vector" d="M8.59856 5.25L8.39663 10.5M5.60337 10.5L5.40144 5.25M11.2161 3.37783C11.4156 3.40796 11.6144 3.44019 11.8125 3.4745M11.2161 3.37783L10.5932 11.4757C10.5406 12.1595 9.97041 12.6875 9.28458 12.6875H4.71542C4.02959 12.6875 3.45938 12.1595 3.40678 11.4757L2.78387 3.37783M11.2161 3.37783C10.5474 3.27684 9.87088 3.1995 9.1875 3.14669M2.1875 3.4745C2.38558 3.44019 2.58438 3.40796 2.78387 3.37783M2.78387 3.37783C3.45262 3.27684 4.12912 3.1995 4.8125 3.14669M9.1875 3.14669V2.61228C9.1875 1.92431 8.65628 1.34997 7.96867 1.32797C7.64705 1.31768 7.32413 1.3125 7 1.3125C6.67587 1.3125 6.35295 1.31768 6.03133 1.32797C5.34372 1.34997 4.8125 1.92431 4.8125 2.61228V3.14669M9.1875 3.14669C8.46566 3.09091 7.73615 3.0625 7 3.0625C6.26385 3.0625 5.53434 3.09091 4.8125 3.14669" stroke="#141B34" stroke-linecap="round" stroke-linejoin="round"/>
</g>
</svg>
