<svg width="19" height="18" viewBox="0 0 19 18" fill="none" xmlns="http://www.w3.org/2000/svg">
<g id="add">
<path id="icon" d="M10.3437 3.09379C10.3437 2.6278 9.96598 2.25004 9.49999 2.25004C9.034 2.25004 8.65624 2.6278 8.65624 3.09379V8.15625H3.59375C3.12776 8.15625 2.75 8.53401 2.75 9C2.75 9.46599 3.12776 9.84375 3.59375 9.84375H8.65624L8.65625 14.9063C8.65625 15.3722 9.03401 15.75 9.5 15.75C9.96599 15.75 10.3438 15.3722 10.3438 14.9063L10.3437 9.84375H15.4062C15.8722 9.84375 16.25 9.46599 16.25 9C16.25 8.53401 15.8722 8.15625 15.4062 8.15625H10.3437V3.09379Z" fill="white"/>
</g>
</svg>
