<svg width="16" height="14" viewBox="0 0 16 14" fill="none" xmlns="http://www.w3.org/2000/svg">
<path id="Union" fill-rule="evenodd" clip-rule="evenodd" d="M9.8744 2.07409C10.1798 0.883559 11.3076 1.00611e-08 12.6521 1.00611e-08C12.664 -9.63483e-07 12.676 6.87144e-05 12.6879 0.000208905C13.0053 0.00391486 13.3102 0.0568608 13.5947 0.151395C13.9889 0.282022 14.3592 0.497235 14.6743 0.797243C15.4231 1.51019 15.669 2.51988 15.4148 3.4263C15.2893 3.87396 15.0419 4.29707 14.6743 4.64705C14.4255 4.88394 14.1415 5.06841 13.8381 5.19995C13.6834 5.26716 13.5214 5.32164 13.3534 5.36196L13.0606 5.43667V6.99999C13.0606 7.1547 12.996 7.30307 12.8811 7.41247L12.6769 7.60691C12.4376 7.83472 12.0497 7.83472 11.8104 7.60691L11.1204 6.94995L5.88767 11.9319C5.54296 12.2601 5.07543 12.4444 4.58794 12.4444H4.17347C4.01097 12.4444 3.85513 12.5059 3.74022 12.6153L2.46528 13.8291C2.226 14.057 1.83806 14.057 1.59879 13.8291L0.986095 13.2458C0.746822 13.018 0.746822 12.6487 0.986095 12.4209L2.26104 11.207C2.37595 11.0976 2.4405 10.9492 2.4405 10.7945V10.3999C2.4405 9.93578 2.63415 9.49066 2.97886 9.16247L8.21156 4.18054L7.52152 3.52358C7.28225 3.29577 7.28225 2.92642 7.52152 2.69862L7.72576 2.50417C7.84066 2.39478 7.9965 2.33332 8.159 2.33332H9.80144L9.8744 2.07409ZM3.84535 9.98743L9.07804 5.0055L10.2539 6.12499L5.02118 11.1069C4.90628 11.2163 4.75044 11.2778 4.58794 11.2778H4.17347C3.96273 11.2778 3.75573 11.3122 3.56077 11.3779C3.6297 11.1922 3.66589 10.9952 3.66589 10.7945V10.3999C3.66589 10.2452 3.73044 10.0968 3.84535 9.98743Z" fill="#141B34"/>
</svg>
