<svg width="348" height="259" viewBox="0 0 348 259" fill="none" xmlns="http://www.w3.org/2000/svg">
<g opacity="0.4">
<path d="M29.8744 257.007C29.8744 257.007 -9.7544 233.199 4.7608 201.327C13.2856 182.588 50.2264 189.577 46.3864 158.396C41.3176 117.461 0.690395 89.9669 24.1144 54.9461C48.2296 18.9269 108.518 61.8581 167.423 23.7653C205.439 -0.810702 273.1 -14.6347 297.599 24.5333C321.023 61.9349 274.175 103.484 308.198 131.362C342.22 159.317 381.158 201.404 295.218 251.016C290.918 253.474 287.154 257.775 282.546 257.775C210.969 257.775 144.921 257.544 144.921 257.544" fill="#C2E6FB"/>
<path d="M22.1938 222.677C13.285 221.218 21.6562 247.407 34.3282 244.028C47.0002 240.649 29.6434 223.829 22.1938 222.677Z" fill="#FF7979"/>
<path d="M17.2025 207.855C12.1337 209.698 13.8233 220.757 21.3497 218.453C28.9529 216.073 22.1945 206.089 17.2025 207.855Z" fill="#FF7979"/>
<path d="M282.469 257.775C202.674 257.545 144.844 257.544 144.844 257.544L282.469 257.775Z" fill="#969696"/>
</g>
<path d="M298.675 47.4197C297.216 47.1125 295.833 46.4213 294.681 45.4997L295.065 45.0389C296.14 45.8837 297.446 46.4981 298.828 46.8053L298.675 47.4197ZM303.129 47.4197L302.976 46.8053C304.358 46.4981 305.587 45.8837 306.739 45.0389L307.123 45.4997C305.894 46.4213 304.512 47.1125 303.129 47.4197ZM291.916 42.1205C291.225 40.7381 290.918 39.3557 290.918 37.8197H291.532C291.532 39.2021 291.84 40.5845 292.454 41.8901L291.916 42.1205ZM309.811 42.0437L309.273 41.8133C309.888 40.5845 310.195 39.2021 310.195 37.7429H310.656H310.809C310.809 39.2789 310.502 40.7381 309.811 42.0437ZM292.454 33.7493L291.916 33.5189C292.531 32.2133 293.529 30.9845 294.681 30.0629L295.065 30.5237C293.99 31.3685 293.068 32.4437 292.454 33.7493ZM309.273 33.6725C308.659 32.4437 307.737 31.2917 306.662 30.4469L307.046 29.9861C308.198 30.9077 309.196 32.0597 309.811 33.4421L309.273 33.6725ZM298.752 28.6805L298.598 28.0661C299.289 27.9125 300.057 27.8357 300.825 27.8357C301.593 27.8357 302.284 27.9125 302.976 28.0661L302.822 28.6805C302.131 28.5269 301.44 28.4501 300.748 28.4501C300.211 28.4501 299.443 28.5269 298.752 28.6805Z" fill="#2A324F"/>
<path d="M18.9696 173.602H18.816V172.988H18.9696C20.2752 172.988 21.6576 172.834 22.8864 172.527L23.04 173.141C21.6576 173.448 20.2752 173.602 18.9696 173.602ZM14.5152 173.064C13.1328 172.757 11.7504 172.22 10.5216 171.605L10.752 171.068C11.9808 171.682 13.2864 172.143 14.6688 172.45L14.5152 173.064ZM27.0336 171.759L26.8032 171.221C28.032 170.607 29.2608 169.916 30.336 169.071L30.72 169.532C29.568 170.377 28.3392 171.145 27.0336 171.759ZM6.912 169.301C5.8368 168.38 4.8384 167.381 3.9168 166.229L4.3776 165.845C5.2224 166.92 6.2208 167.919 7.296 168.84L6.912 169.301ZM33.7152 166.536L33.2544 166.152C34.0992 165.077 34.8672 163.925 35.4816 162.696L36.0192 162.927C35.4048 164.156 34.6368 165.384 33.7152 166.536ZM1.7664 162.543C1.152 161.237 0.6912 159.855 0.4608 158.472L1.0752 158.319C1.3824 159.701 1.7664 161.007 2.3808 162.236L1.7664 162.543ZM37.4016 158.856L36.7872 158.703C37.0944 157.397 37.248 156.015 37.248 154.632H37.8624C37.8624 156.092 37.7088 157.474 37.4016 158.856ZM0.614401 154.325H0C0 152.866 0.230401 151.484 0.537601 150.101L1.152 150.255C0.768 151.561 0.614401 152.866 0.614401 154.325ZM36.9408 151.176C36.7104 149.794 36.2496 148.489 35.712 147.26L36.2496 147.029C36.7872 148.335 37.248 149.717 37.5552 151.1L36.9408 151.176ZM2.6112 146.338L2.0736 146.031C2.688 144.725 3.5328 143.573 4.4544 142.498L4.9152 142.882C3.9936 143.957 3.2256 145.109 2.6112 146.338ZM33.6384 143.65C32.7936 142.575 31.872 141.5 30.7968 140.655L31.1808 140.194C32.256 141.116 33.2544 142.191 34.0992 143.343L33.6384 143.65ZM7.8336 140.04L7.4496 139.58C8.6016 138.735 9.8304 137.967 11.136 137.429L11.3664 137.967C10.1376 138.428 8.9088 139.196 7.8336 140.04ZM27.4176 138.351C26.1888 137.737 24.8832 137.199 23.5776 136.892L23.7312 136.277C25.1136 136.661 26.4192 137.122 27.7248 137.813L27.4176 138.351ZM15.36 136.661L15.2064 136.047C16.4352 135.817 17.664 135.663 18.9696 135.663C19.1232 135.663 19.3536 135.663 19.5072 135.663V136.277C19.3536 136.277 19.1232 136.277 18.9696 136.277C17.7408 136.277 16.512 136.431 15.36 136.661Z" fill="#2A324F"/>
<path d="M36.7105 170.837C39.8493 170.837 42.3937 168.293 42.3937 165.154C42.3937 162.015 39.8493 159.471 36.7105 159.471C33.5718 159.471 31.0273 162.015 31.0273 165.154C31.0273 168.293 33.5718 170.837 36.7105 170.837Z" fill="#2A324F"/>
<path d="M288.769 158.165C291.102 158.165 292.993 156.274 292.993 153.941C292.993 151.608 291.102 149.717 288.769 149.717C286.436 149.717 284.545 151.608 284.545 153.941C284.545 156.274 286.436 158.165 288.769 158.165Z" fill="#2A324F"/>
<path d="M296.987 30.5237C296.987 32.2133 295.604 33.5189 293.991 33.5189C292.302 33.5189 290.996 32.1365 290.996 30.5237C290.996 28.9109 292.379 27.5285 293.991 27.5285C295.604 27.5285 296.987 28.8341 296.987 30.5237Z" fill="#2A324F"/>
<path d="M143.615 27.5285C143.615 29.9861 141.618 32.0597 139.084 32.0597C136.626 32.0597 134.553 30.0629 134.553 27.5285C134.553 25.0709 136.55 22.9973 139.084 22.9973C141.618 22.9973 143.615 24.9941 143.615 27.5285Z" fill="#2A324F"/>
<path d="M147.225 41.3525C146.841 41.3525 146.534 41.3525 146.15 41.2757L146.226 40.6613C147.532 40.8149 148.914 40.6613 150.22 40.1237L150.45 40.6613C149.452 41.1221 148.3 41.3525 147.225 41.3525ZM142.156 39.5861C141.004 38.6645 140.159 37.4357 139.622 36.1301L140.159 35.8997C140.62 37.1285 141.465 38.2805 142.54 39.1253L142.156 39.5861ZM153.83 37.9733L153.369 37.5893C154.137 36.5141 154.674 35.2085 154.751 33.8261L155.366 33.9029C155.212 35.4389 154.674 36.8213 153.83 37.9733ZM139.698 33.2117H139.084C139.084 31.7525 139.468 30.2933 140.236 29.0645L140.774 29.3717C140.082 30.5237 139.698 31.8293 139.698 33.2117ZM153.983 29.9861C153.369 28.7573 152.447 27.7589 151.372 26.9909L151.679 26.4533C152.908 27.2981 153.906 28.3733 154.521 29.6789L153.983 29.9861ZM143.615 26.6069L143.308 26.0693C144.614 25.3781 146.073 25.0709 147.532 25.0709V25.6853C146.226 25.6853 144.844 25.9925 143.615 26.6069Z" fill="#2A324F"/>
<path d="M298.062 170.069C296.602 169.992 295.22 169.532 293.914 168.84L294.222 168.303C295.45 168.917 296.756 169.301 298.138 169.455L298.062 170.069ZM302.286 169.455L302.055 168.917C303.361 168.456 304.513 167.765 305.511 166.844L305.895 167.304C304.897 168.226 303.668 168.994 302.286 169.455ZM290.612 166.076C289.69 164.924 289.076 163.618 288.692 162.236L289.306 162.082C289.69 163.388 290.305 164.616 291.15 165.692L290.612 166.076ZM308.506 163.772L307.969 163.541C308.506 162.312 308.814 160.93 308.814 159.548H309.428C309.351 161.007 309.044 162.389 308.506 163.772ZM308.737 158.472C308.583 157.09 308.199 155.784 307.508 154.632L308.046 154.325C308.737 155.554 309.198 156.936 309.351 158.396L308.737 158.472ZM288.999 158.012L288.385 157.935C288.615 156.476 289.076 155.17 289.921 153.864L290.458 154.172C289.69 155.4 289.23 156.706 288.999 158.012ZM304.743 151.56C303.668 150.716 302.362 150.178 301.057 149.871L301.21 149.256C302.593 149.564 303.975 150.178 305.127 151.1L304.743 151.56ZM293.223 151.33L292.916 150.869C294.145 150.024 295.45 149.487 296.91 149.256L296.986 149.871C295.681 150.024 294.375 150.562 293.223 151.33Z" fill="#2A324F"/>
<path d="M223.027 175.061L226.023 186.351L288.691 186.658C290.458 186.658 291.379 188.041 290.688 189.73L262.887 255.932C262.349 257.161 260.659 258.159 259.123 258.159L156.365 257.698C154.829 257.698 153.754 256.7 153.984 255.394L164.352 191.727L165.274 186.044L166.887 176.29C167.194 174.524 168.883 173.064 170.727 173.064L220.57 173.295C221.799 173.295 222.797 173.986 223.027 175.061Z" fill="#5D96D9"/>
<path d="M170.727 173.064L220.57 173.295C221.799 173.295 222.797 173.986 223.027 175.061L226.023 186.351L287.539 186.658" stroke="#121D30" stroke-width="0.75" stroke-miterlimit="10"/>
<path d="M161.582 199.765H252.514V153.147H161.582V199.765Z" fill="white"/>
<path d="M169.805 153.096H234.547" stroke="#121D30" stroke-width="0.75" stroke-miterlimit="10"/>
<path d="M199.756 172.45L204.979 182.434H258.431C259.967 182.434 261.196 183.663 261.196 185.199V255.394C261.196 256.93 259.967 258.159 258.431 258.159H155.903C154.367 258.159 153.139 256.93 153.139 255.394V187.656V182.434V173.756C153.139 172.22 154.367 170.991 155.903 170.991H197.299C198.297 170.914 199.295 171.528 199.756 172.45Z" fill="#65A8F7"/>
<path d="M155.904 170.914H197.299C198.298 170.914 199.296 171.529 199.757 172.373L204.979 182.357H258.432" stroke="#121D30" stroke-width="0.75" stroke-miterlimit="10"/>
<path d="M254.438 199.714C262.54 199.714 269.107 193.147 269.107 185.045C269.107 176.944 262.54 170.376 254.438 170.376C246.337 170.376 239.77 176.944 239.77 185.045C239.77 193.147 246.337 199.714 254.438 199.714Z" fill="#FF645A"/>
<path d="M260.735 190.498L255.283 185.045L260.735 179.592C260.966 179.362 260.966 178.978 260.735 178.824C260.505 178.594 260.121 178.594 259.967 178.824L254.515 184.277L249.062 178.824C248.831 178.594 248.447 178.594 248.294 178.824C248.063 179.055 248.063 179.439 248.294 179.592L253.747 185.045L248.294 190.498C248.063 190.728 248.063 191.112 248.294 191.266C248.524 191.496 248.908 191.496 249.062 191.266L254.515 185.813L259.967 191.266C260.198 191.496 260.582 191.496 260.735 191.266C260.966 191.036 260.966 190.728 260.735 190.498Z" fill="white"/>
<path d="M195.301 234.428C204.286 222.217 215.653 227.209 218.571 234.428" stroke="#121D30" stroke-width="0.75" stroke-miterlimit="10"/>
<path d="M193.382 208.853C193.382 212.002 191.922 214.613 190.233 214.613C188.466 214.613 187.084 212.002 187.084 208.853C187.084 205.704 188.543 203.093 190.233 203.093C191.922 203.093 193.382 205.704 193.382 208.853Z" fill="#121D30"/>
<path d="M226.79 208.853C226.79 212.002 225.331 214.613 223.641 214.613C221.875 214.613 220.492 212.002 220.492 208.853C220.492 205.704 221.951 203.093 223.641 203.093C225.331 203.093 226.79 205.704 226.79 208.853Z" fill="#121D30"/>
<path d="M94.0785 41.1989C94.0785 41.1989 100.222 32.2133 107.902 36.6677C117.502 42.2741 105.906 55.6373 113.048 59.4773C120.19 63.3173 127.563 63.6245 129.56 74.2997C132.248 88.2773 106.981 107.861 85.6305 95.4965C64.2801 83.1317 71.8833 59.7845 81.8673 55.1765C93.9249 49.6469 94.0785 41.1989 94.0785 41.1989Z" fill="#121D30"/>
<path d="M98.2251 62.2421V74.5301C98.2251 76.1429 97.6107 77.6021 96.5355 78.6005C95.4603 79.6757 94.0779 80.2901 92.4651 80.2901C89.2395 80.2901 86.7051 77.6789 86.7051 74.5301V62.2421H98.2251Z" fill="#D28A7B"/>
<path d="M77.8728 58.4789C78.3336 60.7829 80.6376 62.3189 83.0184 61.8581C85.3224 61.3973 86.8584 59.0933 86.3976 56.7125C85.9368 54.4085 83.6328 52.8725 81.252 53.3333C78.948 53.8709 77.412 56.0981 77.8728 58.4789Z" fill="#D28A7B"/>
<path d="M79.1016 56.8661L82.4808 59.1701" stroke="#121D30" stroke-width="0.75" stroke-miterlimit="10"/>
<path d="M102.373 57.6341C102.834 59.9381 105.138 61.4741 107.518 61.0133C109.822 60.5525 111.358 58.2485 110.898 55.8677C110.437 53.5637 108.133 52.0277 105.752 52.4885C103.448 52.9493 101.912 55.2533 102.373 57.6341Z" fill="#D28A7B"/>
<path d="M106.212 56.7125C106.212 56.7125 108.67 54.0245 107.825 47.5733H104.369L106.212 56.7125Z" fill="#121D30"/>
<path d="M105.906 58.6325L109.285 55.4069" stroke="#121D30" stroke-width="0.75" stroke-miterlimit="10"/>
<path d="M95.3836 39.8165C101.604 39.8165 106.673 44.8853 106.673 51.1061V60.3221C106.673 60.5525 106.673 60.7829 106.596 61.0133C106.443 62.0885 105.905 63.0869 104.984 63.8549L100.452 67.6181C99.07 68.7701 97.15 69.0005 95.5372 68.1557L86.6284 63.7013C85.0924 62.9333 84.1708 61.3205 84.1708 59.6309V51.0293C84.094 44.8853 89.1628 39.8165 95.3836 39.8165Z" fill="#D28A7B"/>
<path d="M90.084 65.3909L95.2296 68.0021C96.0744 68.4629 97.0728 68.6933 98.0712 68.6933H98.4552" stroke="#121D30" stroke-width="0.75" stroke-miterlimit="10"/>
<path d="M97.1502 39.8165L99.9918 59.5541H96.459" stroke="#121D30" stroke-width="0.75" stroke-miterlimit="10"/>
<path d="M106.673 54.1013V59.8613C106.52 59.8613 106.366 59.8613 106.289 59.8613C104.677 59.8613 103.371 58.5557 103.371 56.9429C103.371 55.3301 104.677 54.0245 106.289 54.0245C106.366 54.1013 106.52 54.1013 106.673 54.1013Z" fill="#CB705D"/>
<path d="M92.9266 57.0197C92.9266 58.6325 91.621 59.9381 90.0082 59.9381C88.3954 59.9381 87.0898 58.6325 87.0898 57.0197C87.0898 55.4069 88.3954 54.1013 90.0082 54.1013C91.621 54.1013 92.9266 55.4069 92.9266 57.0197Z" fill="#CB705D"/>
<path d="M84.0938 50.0309V57.3269C84.0938 57.3269 87.0122 54.7157 86.9354 49.7237L84.0938 50.0309Z" fill="#121D30"/>
<path d="M109.9 38.2805C102.22 33.8261 94.0788 41.1989 94.0788 41.1989C94.0788 41.1989 97.9956 49.6469 81.9444 55.1765C79.3332 56.0981 75.954 60.5525 74.418 63.0869C74.418 63.0869 77.9508 52.9493 79.026 46.3445C80.178 39.7397 86.0148 40.8149 86.0148 40.8149C86.0148 40.8149 89.5476 32.1365 99.378 32.2133C106.06 32.2133 109.9 38.2805 109.9 38.2805Z" fill="#121D30"/>
<path d="M104.37 54.6389C104.37 55.6373 103.909 56.4821 103.371 56.4821C102.834 56.4821 102.373 55.6373 102.373 54.6389C102.373 53.7941 102.68 53.1029 103.064 52.8725L104.293 53.9477C104.293 54.2549 104.37 54.4085 104.37 54.6389Z" fill="#121D30"/>
<path d="M93.7722 54.6389C93.7722 55.6373 93.3114 56.4821 92.7738 56.4821C92.2362 56.4821 91.7754 55.6373 91.7754 54.6389C91.7754 54.3317 91.8522 54.1013 91.8522 53.7941L93.2346 53.0261C93.5418 53.4101 93.7722 54.0245 93.7722 54.6389Z" fill="#121D30"/>
<path d="M102.219 46.6517C103.601 45.7301 104.523 45.9605 104.292 47.8805L102.219 46.6517Z" fill="#121D30"/>
<path d="M90.8535 47.8805C90.5463 46.2677 91.0839 45.4997 92.7735 46.4213L90.8535 47.8805Z" fill="#121D30"/>
<path d="M95.3848 63.1637C96.9208 61.0901 98.8408 61.9349 99.3016 63.1637" stroke="#121D30" stroke-width="0.75" stroke-miterlimit="10"/>
<path d="M116.965 115.772C119.653 114.389 120.729 111.087 119.346 108.322L106.674 82.9781C105.292 80.2901 101.989 79.2149 99.2245 80.5973C96.5365 81.9797 95.4613 85.2821 96.8437 88.0469L109.285 112.393C110.284 114.313 112.204 115.772 114.354 116.079C115.199 116.233 116.121 116.156 116.965 115.772Z" fill="#D28A7B"/>
<path d="M65.2015 120.764C62.2831 119.996 60.4398 117.001 61.2078 114.082L67.8895 86.5877C68.6574 83.6693 71.6526 81.8261 74.571 82.5941C77.4894 83.3621 79.3326 86.3573 78.5646 89.2757L71.9598 115.772C71.4222 117.922 69.8862 119.689 67.8895 120.533C67.0447 120.84 66.1231 120.994 65.2015 120.764Z" fill="#D28A7B"/>
<path d="M116.734 93.8837L106.212 93.1925L95.0762 96.8021L106.212 97.2629L116.734 93.8837Z" fill="#7C7CF7"/>
<path d="M113.278 84.0533L115.045 97.8773L98.3789 100.181L100.837 75.3749L105.368 75.9893C109.515 76.6037 112.741 79.8293 113.278 84.0533Z" fill="#7C7CF7"/>
<path d="M116.734 93.8837L106.212 97.2629L95.0762 96.8021L97.2266 103.023L106.98 102.562L117.348 99.2597L116.734 93.8837Z" fill="white"/>
<path d="M104.831 119.305H82.7891L68.6579 91.8101C66.3539 87.2789 68.2739 81.7493 72.8819 79.6757L87.4739 73.1477L100.76 75.3749C105.368 76.1429 108.594 80.3669 108.133 84.9749L104.831 119.305Z" fill="#7C7CF7"/>
<path d="M98.9175 83.0549L100.53 72.2261L82.0215 70.4597L83.7111 83.0549H98.9175Z" fill="#7373E9"/>
<path d="M84.0953 78.4469C86.8601 81.9797 90.1625 83.9765 93.3881 83.9765C96.3065 83.9765 98.7641 82.2869 100.146 79.4453C100.07 80.7509 99.9929 82.2869 99.8393 83.8229C99.3017 89.5829 98.1497 93.4997 96.6137 95.0357C96.0761 95.5733 95.5385 95.8037 95.0009 95.8037C94.7705 95.8037 94.4633 95.7269 94.2329 95.6501C91.4681 94.8053 88.7033 90.9653 86.2457 84.6677C85.3241 82.4405 84.6329 80.2133 84.0953 78.4469ZM82.7129 75.2981C82.7129 75.2981 86.9369 93.9605 94.0793 96.1877C94.3865 96.2645 94.7705 96.3413 95.0777 96.3413C101.222 96.3413 100.838 75.2981 100.838 75.2981C100.07 80.5205 97.0745 83.3621 93.3881 83.3621C89.9321 83.4389 85.9385 80.9045 82.7129 75.2981Z" fill="white"/>
<path d="M109.746 247.407H120.805L116.274 213.077H105.215L109.746 247.407Z" fill="#D28A7B"/>
<path d="M108.67 247.33H121.188L119.115 231.048L106.75 231.97L108.67 247.33Z" fill="white"/>
<path d="M107.672 257.544H136.011L135.243 255.01C135.013 254.165 134.629 253.397 134.168 252.706C133.169 251.247 131.71 250.095 130.021 249.48L129.253 249.173C128.485 248.943 127.793 248.559 127.102 248.098C126.565 247.714 126.027 247.33 125.566 246.869C124.568 245.871 123.723 244.642 123.185 243.26H107.211L107.595 252.706L107.672 257.544Z" fill="#121D30"/>
<path d="M118.578 244.949H124.185" stroke="#2A324F" stroke-width="0.75" stroke-miterlimit="10"/>
<path d="M120.037 246.946H125.644" stroke="#2A324F" stroke-width="0.75" stroke-miterlimit="10"/>
<path d="M112.971 250.709C112.971 251.093 113.278 251.4 113.662 251.4C114.046 251.4 114.353 251.093 114.353 250.709C114.353 250.325 114.046 250.018 113.662 250.018C113.355 250.018 113.048 250.325 112.971 250.709Z" stroke="#2A324F" stroke-width="0.75" stroke-miterlimit="10"/>
<path d="M116.35 250.709C116.35 251.093 116.657 251.4 117.041 251.4C117.425 251.4 117.732 251.093 117.732 250.709C117.732 250.325 117.425 250.018 117.041 250.018C116.734 250.018 116.426 250.325 116.35 250.709Z" stroke="#2A324F" stroke-width="0.75" stroke-miterlimit="10"/>
<path d="M107.673 257.544H136.012L135.244 255.01C135.013 254.165 134.629 253.397 134.169 252.706H107.596L107.673 257.544Z" fill="white"/>
<path d="M107.518 255.164H125.335" stroke="#2A324F" stroke-width="0.75" stroke-miterlimit="10"/>
<path d="M120.113 257.544H136.011L135.243 255.01C135.012 254.165 134.628 253.397 134.168 252.706C133.169 251.247 131.71 250.095 130.02 249.48L129.252 249.173C128.484 248.943 127.793 248.559 127.102 248.098C123.492 249.941 120.728 253.397 120.113 257.544Z" fill="white"/>
<path d="M123.263 243.336L123.647 241.954C123.877 240.956 123.186 240.034 122.188 240.034H120.729C119.577 240.034 118.578 240.572 117.887 241.57L116.658 243.413H123.263V243.336Z" fill="#121D30"/>
<path d="M76.7988 113.852L107.365 112.239L104.677 119.996L79.1796 119.688L76.7988 113.852Z" fill="#2A324F"/>
<path d="M104.677 119.996C104.677 119.996 115.199 129.672 115.813 147.029H68.8887C68.8887 130.748 79.1799 119.765 79.1799 119.765L104.677 119.996Z" fill="#2A324F"/>
<path d="M77.7203 126.447H85.0931C85.0931 126.447 81.4835 134.818 74.1875 135.356" stroke="white" stroke-width="0.75" stroke-miterlimit="10"/>
<path d="M109.746 126.447H105.676C105.676 126.447 107.212 134.357 113.817 135.356" stroke="white" stroke-width="0.75" stroke-miterlimit="10"/>
<path d="M95.9982 120.456L95.307 133.282C95.307 133.282 92.9262 132.053 93.4638 127.752" stroke="white" stroke-width="0.75" stroke-miterlimit="10"/>
<path d="M87.3984 118.613H80.7168V121.301H87.3984V118.613Z" fill="#2A324F"/>
<path d="M103.603 118.613H101.299V121.301H103.603V118.613Z" fill="#2A324F"/>
<path d="M99.7618 118.613H89.2402V121.301H99.7618V118.613Z" fill="#2A324F"/>
<path d="M97.8418 118.076H93.3105V121.762H97.8418V118.076Z" fill="white"/>
<path d="M66.7383 247.407L77.7975 247.868L83.4807 210.62L72.4215 210.082L66.7383 247.407Z" fill="#D28A7B"/>
<path d="M66.0469 247.33L78.5653 247.944L80.7157 230.972L68.2741 231.663L66.0469 247.33Z" fill="white"/>
<path d="M63.666 257.544H92.0052L91.7748 255.01C91.698 254.165 91.4676 253.397 91.1604 252.706C90.4692 251.247 89.2404 250.095 87.6276 249.48L86.9364 249.173C86.2452 248.943 85.6308 248.559 85.0164 248.098C84.5556 247.714 84.0948 247.33 83.7108 246.869C82.866 245.871 82.3284 244.642 82.0212 243.26H66.0468L64.5108 252.629L63.666 257.544Z" fill="#121D30"/>
<path d="M77.0293 244.949H82.6357" stroke="#2A324F" stroke-width="0.75" stroke-miterlimit="10"/>
<path d="M78.0273 246.946H83.6337" stroke="#2A324F" stroke-width="0.75" stroke-miterlimit="10"/>
<path d="M70.2706 250.709C70.1938 251.093 70.4242 251.4 70.8082 251.4C71.1922 251.4 71.5762 251.093 71.653 250.709C71.7298 250.325 71.4994 250.018 71.1154 250.018C70.7314 250.018 70.4242 250.325 70.2706 250.709Z" stroke="#2A324F" stroke-width="0.75" stroke-miterlimit="10"/>
<path d="M73.6495 250.709C73.5727 251.093 73.8031 251.4 74.1871 251.4C74.5711 251.4 74.9551 251.093 75.0319 250.709C75.1087 250.325 74.8783 250.018 74.4943 250.018C74.1871 250.018 73.8031 250.325 73.6495 250.709Z" stroke="#2A324F" stroke-width="0.75" stroke-miterlimit="10"/>
<path d="M63.666 257.544H92.0052L91.7748 255.01C91.698 254.165 91.4676 253.397 91.1604 252.706H64.5108L63.666 257.544Z" fill="white"/>
<path d="M82.0207 255.164H64.2031" stroke="#2A324F" stroke-width="0.75" stroke-miterlimit="10"/>
<path d="M76.1074 257.544H92.005L91.7746 255.01C91.6978 254.165 91.4674 253.397 91.1602 252.706C90.469 251.247 89.2402 250.095 87.6274 249.48L86.9362 249.173C86.245 248.943 85.6306 248.559 85.0162 248.098C80.9458 249.941 77.5666 253.397 76.1074 257.544Z" fill="white"/>
<path d="M82.0214 243.336L82.6358 241.954C83.0966 240.956 82.559 240.034 81.5606 240.034H80.1014C78.9494 240.034 77.7974 240.572 76.9526 241.57L75.3398 243.413H82.0214V243.336Z" fill="#121D30"/>
<path d="M93.3867 146.108L100.068 227.439H123.339L115.736 146.492L93.3867 146.108Z" fill="#2A324F"/>
<path d="M72.5744 183.356L64.4336 227.439H87.6272L94.9232 183.74L72.5744 183.356Z" fill="#2A324F"/>
<path d="M72.5751 183.356C72.5751 183.356 68.8887 159.24 68.8887 146.799H92.0823L94.8471 183.663L72.5751 183.356Z" fill="#2A324F"/>
<path d="M65.5097 88.2773L63.1289 100.412L79.6409 103.561L79.9481 76.6037L72.1913 79.9061C68.7353 81.4421 66.2009 84.5141 65.5097 88.2773Z" fill="#7C7CF7"/>
<path d="M61.5928 96.3413L72.0376 98.4917L79.7176 99.4901L77.3368 105.557L60.748 101.717L61.5928 96.3413Z" fill="white"/>
<path d="M104.985 87.5093C112.819 99.1829 112.435 104.713 102.758 109.013L104.985 87.5093Z" fill="#7878F4"/>
<path d="M110.514 97.2629L106.137 89.2757L108.134 84.9749" stroke="#121D30" stroke-width="0.75" stroke-miterlimit="10"/>
<path d="M48.3824 112.469C43.7744 110.089 38.3984 110.242 38.3984 110.242L40.0112 100.796C49.0736 101.871 51.992 105.788 53.2208 108.245L48.3824 112.469Z" fill="#D28A7B"/>
<path d="M38.3985 110.242C38.3985 110.242 33.9441 108.399 31.9473 104.866L34.0209 99.4901C34.0209 99.4901 36.9393 102.485 39.6273 102.869C39.6273 102.869 36.0945 100.105 35.4033 97.6469L37.0161 97.1093C37.0161 97.1093 39.6273 100.335 43.6209 101.794L38.3985 110.242Z" fill="#D28A7B"/>
<path d="M32.4844 103.484C32.4844 103.484 35.4028 106.479 38.0908 107.938" stroke="#121D30" stroke-width="0.75" stroke-miterlimit="10"/>
<path d="M33.252 101.41C33.252 101.41 35.7096 104.252 39.0888 105.711" stroke="#121D30" stroke-width="0.75" stroke-miterlimit="10"/>
<path d="M72.1896 114.082L49.764 106.402L46.3848 110.396C50.2248 114.773 54.5256 118.613 59.2872 121.532C64.8936 124.911 72.1896 120.764 72.1896 114.082Z" fill="#D28A7B"/>
<path d="M103.678 227.439L95.5372 144.341H91.4668" stroke="white" stroke-width="0.75" stroke-miterlimit="10"/>
<path d="M80.7162 121.301C80.7162 121.301 70.8858 135.048 72.8826 150.101C74.8794 165.154 76.7226 183.432 76.7226 183.432L67.6602 227.439" stroke="white" stroke-width="0.75" stroke-miterlimit="10"/>
<path d="M69.3494 112.623L62.207 110.626" stroke="#121D30" stroke-width="0.75" stroke-miterlimit="10"/>
<path d="M131.479 103.868C135.473 100.489 140.772 99.4901 140.772 99.4901L137.086 90.6581C128.484 93.7301 126.564 98.1845 125.873 100.873L131.479 103.868Z" fill="#D28A7B"/>
<path d="M140.696 99.4901C140.696 99.4901 144.613 96.7253 145.765 92.7317L142.539 87.9701C142.539 87.9701 140.312 91.5797 137.854 92.5781C137.854 92.5781 140.696 89.0453 140.773 86.5109L139.083 86.3573C139.083 86.3573 137.24 90.1205 133.707 92.3477L140.696 99.4901Z" fill="#D28A7B"/>
<path d="M144.919 91.5797C144.919 91.5797 142.692 95.1893 140.465 97.1861" stroke="#121D30" stroke-width="0.75" stroke-miterlimit="10"/>
<path d="M143.691 89.6597C143.691 89.6597 141.924 93.0389 139.006 95.1893" stroke="#121D30" stroke-width="0.75" stroke-miterlimit="10"/>
<path d="M108.67 110.78L128.792 98.2613L133.016 101.333C130.251 106.479 126.948 111.164 122.955 115.08C118.193 119.688 110.129 117.308 108.67 110.78Z" fill="#D28A7B"/>
<path d="M111.129 108.783L117.58 105.173" stroke="#121D30" stroke-width="0.75" stroke-miterlimit="10"/>
<path d="M67.8125 234.888L80.3309 234.351" stroke="#121D30" stroke-width="0.75" stroke-miterlimit="10"/>
<path d="M106.75 234.581L119.499 233.583" stroke="#121D30" stroke-width="0.75" stroke-miterlimit="10"/>
<path d="M8.44727 257.775H340.914" stroke="#1C1D22" stroke-miterlimit="10"/>
<path d="M213.426 68.2325C226.943 71.1509 240.383 74.1461 253.9 77.0645C247.756 58.7093 270.719 46.6517 264.575 28.2965C251.058 25.3781 237.618 22.3829 224.101 19.4645C230.245 37.8965 207.282 49.8773 213.426 68.2325Z" fill="white"/>
<path d="M259.659 51.8741C263.729 44.5781 267.492 37.2053 264.497 28.2965C250.98 25.3781 237.54 22.3829 224.023 19.4645" stroke="#121D30" stroke-width="0.75" stroke-miterlimit="10"/>
<path d="M213.426 68.2325C226.943 71.1509 240.383 74.1461 253.899 77.0645C251.903 71.2277 252.901 66.0053 254.975 61.0133" stroke="#121D30" stroke-width="0.75" stroke-miterlimit="10"/>
<path d="M185.624 126.217C197.528 119.228 209.432 112.162 221.259 105.173C204.21 95.8805 212.888 71.4581 195.838 62.1653C183.934 69.1541 172.03 76.2197 160.203 83.2085C177.253 92.5013 168.574 116.924 185.624 126.217Z" fill="white"/>
<path d="M185.623 126.217C197.527 119.228 209.431 112.162 221.258 105.173C213.501 100.949 211.121 93.6533 209.124 86.0501" stroke="#121D30" stroke-width="0.75" stroke-miterlimit="10"/>
<path d="M181.246 70.8437C174.257 74.9909 167.268 79.1381 160.279 83.2085C169.188 88.0469 171.108 97.1093 173.258 106.018" stroke="#121D30" stroke-width="0.75" stroke-miterlimit="10"/>
<path d="M258.43 145.954C246.526 138.965 234.622 131.9 222.795 124.911C239.845 115.618 231.166 91.1957 248.216 81.9029C260.12 88.8917 272.024 95.9573 283.851 102.946C266.801 112.239 275.48 136.738 258.43 145.954Z" fill="white"/>
<path d="M271.87 121.532C269.412 130.901 267.953 140.809 258.43 145.954C250.519 141.269 242.609 136.661 234.775 131.977" stroke="#121D30" stroke-width="0.75" stroke-miterlimit="10"/>
<path d="M236.541 99.3365C238.461 92.3477 241.072 85.8197 248.215 81.9029C254.589 85.6661 260.963 89.4293 267.338 93.1925" stroke="#121D30" stroke-width="0.75" stroke-miterlimit="10"/>
</svg>
