<svg width="18" height="18" viewBox="0 0 18 18" fill="none" xmlns="http://www.w3.org/2000/svg">
<g id="heroicons-outline/trash">
<path id="Vector" d="M9.77013 6.75L9.51052 13.5M5.91917 13.5L5.65956 6.75M13.1356 4.34293C13.3921 4.38166 13.6477 4.4231 13.9023 4.46722M13.1356 4.34293L12.3347 14.7544C12.2671 15.6336 11.5339 16.3125 10.6522 16.3125H4.77752C3.89574 16.3125 3.16262 15.6336 3.09499 14.7544L2.29411 4.34293M13.1356 4.34293C12.2758 4.21308 11.406 4.11364 10.5273 4.04574M1.52734 4.46722C1.78202 4.4231 2.03762 4.38166 2.29411 4.34293M2.29411 4.34293C3.15393 4.21308 4.02371 4.11364 4.90234 4.04574M10.5273 4.04574V3.35864C10.5273 2.47412 9.84435 1.73567 8.96028 1.70739C8.54676 1.69416 8.13158 1.6875 7.71484 1.6875C7.29811 1.6875 6.88293 1.69416 6.46941 1.70739C5.58533 1.73567 4.90234 2.47412 4.90234 3.35864V4.04574M10.5273 4.04574C9.59926 3.97403 8.66132 3.9375 7.71484 3.9375C6.76837 3.9375 5.83042 3.97403 4.90234 4.04574" stroke="#141B34" stroke-linecap="round" stroke-linejoin="round"/>
</g>
</svg>
