<svg width="20" height="20" viewBox="0 0 20 20" fill="none" xmlns="http://www.w3.org/2000/svg">
<path id="Union" fill-rule="evenodd" clip-rule="evenodd" d="M12.3329 2.96298C12.7482 1.26223 14.2821 1.43731e-08 16.1108 1.43731e-08C16.127 -1.3764e-06 16.1432 9.81635e-05 16.1594 0.000298435C16.5911 0.00559266 17.0059 0.0812297 17.3928 0.216278C17.9289 0.402888 18.4325 0.710335 18.8611 1.13892C19.8796 2.15741 20.214 3.59982 19.8683 4.89471C19.6976 5.53422 19.3611 6.13867 18.8611 6.63865C18.5227 6.97706 18.1364 7.24059 17.7238 7.4285C17.5135 7.52452 17.2931 7.60234 17.0646 7.65994L16.6663 7.76667V9.99999C16.6663 10.221 16.5785 10.433 16.4222 10.5892L16.1445 10.867C15.819 11.1925 15.2914 11.1925 14.966 10.867L14.0275 9.9285L6.91059 17.0455C6.44176 17.5144 5.80589 17.7778 5.14286 17.7778H4.57914C4.35814 17.7778 4.14618 17.8656 3.9899 18.0219L2.25587 19.7559C1.93044 20.0814 1.40282 20.0814 1.07739 19.7559L0.244072 18.9226C-0.0813574 18.5971 -0.0813575 18.0695 0.244072 17.7441L1.9781 16.01C2.13438 15.8537 2.22217 15.6418 2.22217 15.4207V14.857C2.22217 14.194 2.48556 13.5581 2.95439 13.0892L10.0713 5.9722L9.13277 5.03368C8.80734 4.70824 8.80734 4.1806 9.13277 3.85517L9.41054 3.57739C9.56681 3.42111 9.77877 3.33331 9.99978 3.33331H12.2336L12.3329 2.96298ZM4.13288 14.2678L11.2498 7.15072L12.849 8.74998L5.73211 15.867C5.57583 16.0233 5.36387 16.1111 5.14286 16.1111H4.57914C4.29253 16.1111 4.01099 16.1603 3.74583 16.2541C3.83959 15.9889 3.8888 15.7074 3.8888 15.4207V14.857C3.8888 14.636 3.9766 14.424 4.13288 14.2678Z" fill="#141B34"/>
</svg>
