<svg width="15" height="14" viewBox="0 0 15 14" fill="none" xmlns="http://www.w3.org/2000/svg">
<g id="vuesax/linear/direct-inbox">
<g id="direct-inbox">
<path id="Vector" d="M7.63281 1.16666V5.24999L8.79948 4.08332" stroke="#686D82" stroke-width="0.875" stroke-linecap="round" stroke-linejoin="round"/>
<path id="Vector_2" d="M7.63346 5.25001L6.4668 4.08334" stroke="#686D82" stroke-width="0.875" stroke-linecap="round" stroke-linejoin="round"/>
<path id="Vector_3" d="M1.78906 7.58334H4.36156C4.58323 7.58334 4.78156 7.70584 4.88073 7.90418L5.56323 9.26918C5.76156 9.66584 6.16406 9.91668 6.6074 9.91668H8.66656C9.1099 9.91668 9.5124 9.66584 9.71073 9.26918L10.3932 7.90418C10.4924 7.70584 10.6966 7.58334 10.9124 7.58334H13.4557" stroke="#686D82" stroke-width="0.875" stroke-linecap="round" stroke-linejoin="round"/>
<path id="Vector_4" d="M4.71549 2.40918C2.65049 2.71251 1.79883 3.92585 1.79883 6.41668V8.75001C1.79883 11.6667 2.96549 12.8333 5.88216 12.8333H9.38216C12.2988 12.8333 13.4655 11.6667 13.4655 8.75001V6.41668C13.4655 3.92585 12.6138 2.71251 10.5488 2.40918" stroke="#686D82" stroke-width="0.875" stroke-linecap="round" stroke-linejoin="round"/>
</g>
</g>
</svg>
