<svg width="1920" height="732" viewBox="0 0 1920 732" fill="none" xmlns="http://www.w3.org/2000/svg">
<g clip-path="url(#clip0_267_744)">
<g clip-path="url(#clip1_267_744)">
<path d="M234.5 0L234.5 735M211.5 0L211.5 735M188.5 0L188.5 735M165.5 0L165.5 735M142.5 0L142.5 735M119.5 0L119.5 735M96.5 0L96.5 735M73.5 0L73.5 735M50.5 0L50.5 735M27.5 0L27.5 735M4.5 0L4.50003 735M257.5 0L257.5 735M280.5 0L280.5 735M303.5 0L303.5 735M326.5 0L326.5 735M349.5 0L349.5 735M372.5 0L372.5 735M395.5 0L395.5 735M418.5 0L418.5 735M441.5 0L441.5 735M464.5 0L464.5 735M487.5 0L487.5 735M510.5 0L510.5 735M533.5 0L533.5 735M556.5 0L556.5 735M579.5 0L579.5 735M602.5 0L602.5 735M625.5 0L625.5 735M648.5 0L648.5 735M671.5 0L671.5 735M694.5 0L694.5 735M717.5 0L717.5 735M740.5 0L740.5 735M763.5 0L763.5 735M786.5 0L786.5 735M809.5 0L809.5 735M832.5 0L832.5 735M855.5 0L855.5 735M878.5 0L878.5 735M901.5 0L901.5 735M924.5 0L924.5 735M947.5 0L947.5 735M970.5 0L970.5 735M993.5 0L993.5 735M1016.5 0L1016.5 735M1039.5 0V735M1062.5 0V735M1085.5 0V735M1108.5 0V735M1131.5 0V735M1154.5 0V735M1177.5 0V735M1200.5 0V735M1223.5 0V735M1246.5 0V735M1269.5 0V735M1292.5 0V735M1315.5 0V735M1338.5 0V735M1361.5 0V735M1384.5 0V735M1407.5 0V735M1430.5 0V735M1453.5 0V735M1476.5 0V735M1499.5 0V735M1522.5 0V735M1545.5 0V735M1568.5 0V735M1591.5 0V735M1614.5 0V735M1637.5 0V735M1660.5 0V735M1683.5 0V735M1706.5 0V735M1729.5 0V735M1752.5 0V735M1775.5 0V735M1798.5 0V735M1821.5 0V735M1844.5 0V735M1867.5 0V735M1890.5 0V735M1913.5 0V735M0 662.5L1920 662.5M0 685.5L1920 685.5M0 708.5L1920 708.5M0 731.5L1920 731.5M0 754.5L1920 754.5M0 639.5L1920 639.5M0 616.5L1920 616.5M0 593.5L1920 593.5M0 570.5L1920 570.5M0 547.5L1920 547.5M0 524.5L1920 524.5M0 501.5L1920 501.5M0 478.5L1920 478.5M0 455.5L1920 455.5M0 432.5L1920 432.5M0 409.5L1920 409.5M0 386.5L1920 386.5M0 363.5L1920 363.5M0 340.5L1920 340.5M0 317.5L1920 317.5M0 294.5L1920 294.5M0 271.5L1920 271.5M0 248.5L1920 248.5M0 225.5L1920 225.5M0 202.5L1920 202.5M0 179.5L1920 179.5M0 156.5L1920 156.5M0 133.5L1920 133.5M0 110.5L1920 110.5M0 87.5L1920 87.4999M0 64.5L1920 64.4999M0 41.5L1920 41.4999M0 18.5L1920 18.4999" stroke="url(#paint0_linear_267_744)"/>
</g>
<path fill-rule="evenodd" clip-rule="evenodd" d="M403.5 617C422.554 617 438 601.554 438 582.5C438 563.446 422.554 548 403.5 548C384.446 548 369 563.446 369 582.5C369 601.554 384.446 617 403.5 617Z" fill="#FFEAE9"/>
<path fill-rule="evenodd" clip-rule="evenodd" d="M399.188 590.046H407.813C408.406 590.046 408.892 589.561 408.892 588.968V574.953C408.892 574.36 408.406 573.875 407.813 573.875H399.188C398.595 573.875 398.11 574.36 398.11 574.953V588.968C398.11 589.561 398.595 590.046 399.188 590.046ZM393.8 587.891H395.956C396.549 587.891 397.034 587.406 397.034 586.813V577.11C397.034 576.517 396.549 576.031 395.956 576.031H393.8C393.207 576.031 392.721 576.517 392.721 577.11V586.813C392.721 587.406 393.207 587.891 393.8 587.891ZM409.971 577.11V586.813C409.971 587.406 410.457 587.891 411.05 587.891H413.206C413.799 587.891 414.284 587.406 414.284 586.813V577.11C414.284 576.517 413.799 576.031 413.206 576.031H411.05C410.457 576.031 409.971 576.517 409.971 577.11Z" fill="#FF6960"/>
<g filter="url(#filter0_f_267_744)">
<circle cx="215" cy="603" r="154" fill="url(#paint1_linear_267_744)"/>
</g>
<g filter="url(#filter1_f_267_744)">
<circle cx="1650" cy="3" r="154" fill="url(#paint2_linear_267_744)"/>
</g>
<path fill-rule="evenodd" clip-rule="evenodd" d="M1405.5 374C1424.55 374 1440 358.554 1440 339.5C1440 320.446 1424.55 305 1405.5 305C1386.45 305 1371 320.446 1371 339.5C1371 358.554 1386.45 374 1405.5 374Z" fill="#FEE0DF"/>
<path fill-rule="evenodd" clip-rule="evenodd" d="M1410.89 329.796H1400.11C1398.92 329.796 1397.95 330.766 1397.95 331.952V349.202L1405.5 345.968L1413.05 349.202V331.952C1413.05 330.766 1412.08 329.796 1410.89 329.796Z" fill="#FF6E66"/>
<path fill-rule="evenodd" clip-rule="evenodd" d="M1456.5 624C1475.55 624 1491 608.554 1491 589.5C1491 570.446 1475.55 555 1456.5 555C1437.45 555 1422 570.446 1422 589.5C1422 608.554 1437.45 624 1456.5 624Z" fill="#FEE0DF"/>
<path fill-rule="evenodd" clip-rule="evenodd" d="M1447.87 590.582H1454.34C1454.94 590.582 1455.42 590.097 1455.42 589.504V580.879C1455.42 580.286 1454.94 579.801 1454.34 579.801H1447.87C1447.28 579.801 1446.8 580.286 1446.8 580.879V589.504C1446.8 590.097 1447.28 590.582 1447.87 590.582ZM1447.87 599.204H1454.34C1454.94 599.204 1455.42 598.719 1455.42 598.126V593.814C1455.42 593.221 1454.94 592.736 1454.34 592.736H1447.87C1447.28 592.736 1446.8 593.221 1446.8 593.814V598.126C1446.8 598.719 1447.28 599.204 1447.87 599.204ZM1458.66 599.207H1465.13C1465.72 599.207 1466.2 598.722 1466.2 598.129V589.504C1466.2 588.911 1465.72 588.426 1465.13 588.426H1458.66C1458.06 588.426 1457.58 588.911 1457.58 589.504V598.129C1457.58 598.722 1458.06 599.207 1458.66 599.207ZM1457.58 580.878V585.19C1457.58 585.783 1458.06 586.269 1458.66 586.269H1465.13C1465.72 586.269 1466.2 585.783 1466.2 585.19V580.878C1466.2 580.285 1465.72 579.8 1465.13 579.8H1458.66C1458.06 579.8 1457.58 580.285 1457.58 580.878Z" fill="#FF6E66"/>
</g>
<path fill-rule="evenodd" clip-rule="evenodd" d="M463.5 422C482.554 422 498 406.554 498 387.5C498 368.446 482.554 353 463.5 353C444.446 353 429 368.446 429 387.5C429 406.554 444.446 422 463.5 422Z" fill="#FFEAE9"/>
<path fill-rule="evenodd" clip-rule="evenodd" d="M463.503 376.719C457.573 376.719 452.721 381.571 452.721 387.5C452.721 393.43 457.573 398.282 463.503 398.282C469.432 398.282 474.284 393.43 474.284 387.5C474.284 381.571 469.432 376.719 463.503 376.719ZM467.328 391.596L462.93 388.89C462.606 388.695 462.412 388.35 462.412 387.973V382.917C462.423 382.475 462.789 382.108 463.231 382.108C463.673 382.108 464.04 382.475 464.04 382.917V387.714L468.18 390.205C468.568 390.442 468.698 390.949 468.46 391.337C468.223 391.714 467.716 391.833 467.328 391.596Z" fill="#FF6960"/>
<defs>
<filter id="filter0_f_267_744" x="-473" y="-85" width="1376" height="1376" filterUnits="userSpaceOnUse" color-interpolation-filters="sRGB">
<feFlood flood-opacity="0" result="BackgroundImageFix"/>
<feBlend mode="normal" in="SourceGraphic" in2="BackgroundImageFix" result="shape"/>
<feGaussianBlur stdDeviation="267" result="effect1_foregroundBlur_267_744"/>
</filter>
<filter id="filter1_f_267_744" x="962" y="-685" width="1376" height="1376" filterUnits="userSpaceOnUse" color-interpolation-filters="sRGB">
<feFlood flood-opacity="0" result="BackgroundImageFix"/>
<feBlend mode="normal" in="SourceGraphic" in2="BackgroundImageFix" result="shape"/>
<feGaussianBlur stdDeviation="267" result="effect1_foregroundBlur_267_744"/>
</filter>
<linearGradient id="paint0_linear_267_744" x1="960" y1="0" x2="960" y2="754.5" gradientUnits="userSpaceOnUse">
<stop stop-color="#F9FCFF"/>
<stop offset="1" stop-color="#DAE5F0" stop-opacity="0"/>
</linearGradient>
<linearGradient id="paint1_linear_267_744" x1="61" y1="449" x2="369" y2="757" gradientUnits="userSpaceOnUse">
<stop stop-color="#FFD3A5"/>
<stop offset="1" stop-color="#FD6585"/>
</linearGradient>
<linearGradient id="paint2_linear_267_744" x1="1496" y1="-151" x2="1804" y2="157" gradientUnits="userSpaceOnUse">
<stop stop-color="#81FBB8"/>
<stop offset="1" stop-color="#28C76F"/>
</linearGradient>
<clipPath id="clip0_267_744">
<rect width="1920" height="732" fill="white"/>
</clipPath>
<clipPath id="clip1_267_744">
<rect width="1920" height="735" fill="white"/>
</clipPath>
</defs>
</svg>
