<svg width="541" height="445" viewBox="0 0 541 445" fill="none" xmlns="http://www.w3.org/2000/svg">
<g filter="url(#filter0_d_263_675)">
<path fill-rule="evenodd" clip-rule="evenodd" d="M6 13C6 7.47715 10.4772 3 16 3H406C411.523 3 416 7.47715 416 13V386C416 391.523 411.523 396 406 396H16C10.4771 396 6 391.523 6 386V13Z" fill="white"/>
<path d="M6.5 13C6.5 7.75329 10.7533 3.5 16 3.5H406C411.247 3.5 415.5 7.75329 415.5 13V386C415.5 391.247 411.247 395.5 406 395.5H16C10.7533 395.5 6.5 391.247 6.5 386V13Z" stroke="#DAE5F0"/>
</g>
<rect x="45" y="42" width="161" height="17" rx="8.5" fill="#ECE5E5"/>
<path d="M368.202 50.5472C368.483 50.5472 368.75 50.6013 369.003 50.7095C369.255 50.8177 369.475 50.9692 369.663 51.164C369.858 51.3516 370.009 51.5716 370.117 51.8241C370.226 52.0766 370.28 52.3436 370.28 52.6249C370.28 52.9063 370.222 53.1732 370.107 53.4257C369.998 53.671 369.847 53.891 369.652 54.0858C369.465 54.2734 369.245 54.4249 368.992 54.5403C368.747 54.6485 368.483 54.7026 368.202 54.7026C367.921 54.7026 367.654 54.6485 367.401 54.5403C367.156 54.4249 366.936 54.2734 366.741 54.0858C366.554 53.891 366.402 53.671 366.287 53.4257C366.179 53.1732 366.124 52.9063 366.124 52.6249C366.124 52.3436 366.179 52.0802 366.287 51.835C366.402 51.5825 366.554 51.3624 366.741 51.1749C366.936 50.9801 367.156 50.8286 367.401 50.7204C367.654 50.6049 367.921 50.5472 368.202 50.5472ZM352.966 50.5472C353.247 50.5472 353.514 50.6013 353.766 50.7095C354.019 50.8177 354.239 50.9692 354.427 51.164C354.621 51.3516 354.773 51.5716 354.881 51.8241C354.989 52.0766 355.043 52.3436 355.043 52.6249C355.043 52.9063 354.986 53.1732 354.87 53.4257C354.762 53.671 354.61 53.891 354.416 54.0858C354.228 54.2734 354.008 54.4249 353.756 54.5403C353.51 54.6485 353.247 54.7026 352.966 54.7026C352.684 54.7026 352.417 54.6485 352.165 54.5403C351.92 54.4249 351.7 54.2734 351.505 54.0858C351.317 53.891 351.166 53.671 351.05 53.4257C350.942 53.1732 350.888 52.9063 350.888 52.6249C350.888 52.3436 350.942 52.0802 351.05 51.835C351.166 51.5825 351.317 51.3624 351.505 51.1749C351.7 50.9801 351.92 50.8286 352.165 50.7204C352.417 50.6049 352.684 50.5472 352.966 50.5472ZM360.584 50.5472C360.865 50.5472 361.132 50.6013 361.385 50.7095C361.637 50.8177 361.857 50.9692 362.045 51.164C362.24 51.3516 362.391 51.5716 362.499 51.8241C362.607 52.0766 362.662 52.3436 362.662 52.6249C362.662 52.9063 362.604 53.1732 362.488 53.4257C362.38 53.671 362.229 53.891 362.034 54.0858C361.846 54.2734 361.626 54.4249 361.374 54.5403C361.129 54.6485 360.865 54.7026 360.584 54.7026C360.303 54.7026 360.036 54.6485 359.783 54.5403C359.538 54.4249 359.318 54.2734 359.123 54.0858C358.935 53.891 358.784 53.671 358.668 53.4257C358.56 53.1732 358.506 52.9063 358.506 52.6249C358.506 52.3436 358.56 52.0802 358.668 51.835C358.784 51.5825 358.935 51.3624 359.123 51.1749C359.318 50.9801 359.538 50.8286 359.783 50.7204C360.036 50.6049 360.303 50.5472 360.584 50.5472Z" fill="#484848"/>
<rect x="318" y="96" width="52" height="11" rx="5.5" fill="#FE5A51"/>
<rect x="180" y="96" width="52" height="11" rx="5.5" fill="#D9DBDB"/>
<rect x="45.0002" y="96" width="52" height="11" rx="5.5" fill="#FF9D97"/>
<rect x="48.9394" y="347.926" width="11.2308" height="11.0811" rx="5.54054" fill="#FF9D97"/>
<rect x="65.0005" y="348" width="52" height="11" rx="5.5" fill="#FF9D97"/>
<rect x="164" y="348" width="52" height="11" rx="5.5" fill="#D9DBDB"/>
<rect x="141.743" y="347.926" width="11.2308" height="11.0811" rx="5.54054" fill="#D9DBDB"/>
<rect x="257" y="348" width="52" height="11" rx="5.5" fill="#FE5A51"/>
<rect x="234.548" y="347.926" width="11.2308" height="11.0811" rx="5.54054" fill="#FE5A51"/>
<path d="M320.83 358V357.026L324.487 353.022C324.917 352.553 325.27 352.146 325.548 351.799C325.826 351.449 326.031 351.121 326.165 350.815C326.302 350.504 326.37 350.18 326.37 349.841C326.37 349.451 326.276 349.114 326.089 348.829C325.905 348.544 325.652 348.324 325.331 348.169C325.01 348.014 324.65 347.936 324.249 347.936C323.824 347.936 323.452 348.025 323.135 348.201C322.821 348.374 322.577 348.618 322.404 348.932C322.235 349.246 322.15 349.613 322.15 350.035H320.873C320.873 349.386 321.023 348.816 321.322 348.326C321.621 347.835 322.029 347.453 322.545 347.179C323.064 346.904 323.647 346.767 324.293 346.767C324.942 346.767 325.517 346.904 326.019 347.179C326.52 347.453 326.913 347.823 327.198 348.288C327.483 348.753 327.626 349.271 327.626 349.841C327.626 350.248 327.552 350.647 327.404 351.036C327.259 351.422 327.007 351.853 326.646 352.33C326.289 352.802 325.793 353.379 325.158 354.061L322.669 356.723V356.81H327.82V358H320.83ZM334.362 358V349.689H335.595V350.988H335.704C335.877 350.544 336.156 350.2 336.542 349.954C336.928 349.705 337.392 349.581 337.933 349.581C338.481 349.581 338.937 349.705 339.302 349.954C339.67 350.2 339.956 350.544 340.162 350.988H340.249C340.461 350.559 340.781 350.218 341.206 349.965C341.632 349.709 342.142 349.581 342.738 349.581C343.481 349.581 344.088 349.814 344.561 350.279C345.034 350.741 345.27 351.46 345.27 352.438V358H343.993V352.438C343.993 351.825 343.825 351.386 343.49 351.123C343.154 350.86 342.759 350.728 342.305 350.728C341.72 350.728 341.268 350.905 340.947 351.258C340.626 351.608 340.465 352.052 340.465 352.589V358H339.167V352.308C339.167 351.835 339.013 351.455 338.707 351.166C338.4 350.874 338.005 350.728 337.522 350.728C337.19 350.728 336.88 350.816 336.591 350.993C336.306 351.17 336.075 351.415 335.898 351.729C335.725 352.039 335.639 352.398 335.639 352.806V358H334.362ZM350.981 358.173C350.23 358.173 349.572 357.995 349.006 357.637C348.443 357.28 348.003 356.781 347.686 356.139C347.372 355.497 347.215 354.746 347.215 353.888C347.215 353.022 347.372 352.266 347.686 351.621C348.003 350.975 348.443 350.474 349.006 350.117C349.572 349.76 350.23 349.581 350.981 349.581C351.731 349.581 352.388 349.76 352.95 350.117C353.517 350.474 353.957 350.975 354.27 351.621C354.588 352.266 354.747 353.022 354.747 353.888C354.747 354.746 354.588 355.497 354.27 356.139C353.957 356.781 353.517 357.28 352.95 357.637C352.388 357.995 351.731 358.173 350.981 358.173ZM350.981 357.026C351.551 357.026 352.02 356.88 352.388 356.588C352.755 356.296 353.028 355.911 353.205 355.435C353.381 354.959 353.47 354.443 353.47 353.888C353.47 353.332 353.381 352.815 353.205 352.335C353.028 351.855 352.755 351.468 352.388 351.172C352.02 350.876 351.551 350.728 350.981 350.728C350.411 350.728 349.942 350.876 349.574 351.172C349.206 351.468 348.934 351.855 348.757 352.335C348.58 352.815 348.492 353.332 348.492 353.888C348.492 354.443 348.58 354.959 348.757 355.435C348.934 355.911 349.206 356.296 349.574 356.588C349.942 356.88 350.411 357.026 350.981 357.026ZM356.696 358V349.689H357.929V350.944H358.016C358.167 350.533 358.442 350.2 358.838 349.943C359.235 349.687 359.682 349.559 360.18 349.559C360.274 349.559 360.391 349.561 360.532 349.565C360.673 349.568 360.779 349.574 360.851 349.581V350.88C360.808 350.869 360.709 350.852 360.554 350.831C360.402 350.806 360.242 350.793 360.072 350.793C359.668 350.793 359.307 350.878 358.99 351.047C358.676 351.213 358.427 351.444 358.243 351.74C358.063 352.032 357.973 352.366 357.973 352.741V358H356.696ZM365.596 358.173C364.796 358.173 364.105 357.996 363.524 357.643C362.947 357.286 362.501 356.788 362.188 356.15C361.877 355.507 361.722 354.761 361.722 353.91C361.722 353.058 361.877 352.308 362.188 351.659C362.501 351.006 362.938 350.497 363.497 350.133C364.06 349.765 364.716 349.581 365.467 349.581C365.899 349.581 366.327 349.653 366.749 349.797C367.171 349.942 367.555 350.176 367.901 350.501C368.248 350.822 368.524 351.247 368.729 351.778C368.935 352.308 369.038 352.961 369.038 353.736V354.277H362.631V353.174H367.739C367.739 352.705 367.645 352.286 367.458 351.918C367.274 351.55 367.01 351.26 366.668 351.047C366.329 350.834 365.928 350.728 365.467 350.728C364.958 350.728 364.518 350.854 364.146 351.107C363.778 351.356 363.495 351.68 363.297 352.081C363.098 352.481 362.999 352.91 362.999 353.368V354.104C362.999 354.732 363.107 355.264 363.324 355.7C363.544 356.133 363.849 356.463 364.238 356.691C364.628 356.914 365.081 357.026 365.596 357.026C365.932 357.026 366.235 356.979 366.505 356.885C366.779 356.788 367.016 356.644 367.214 356.453C367.413 356.258 367.566 356.016 367.674 355.728L368.908 356.074C368.778 356.492 368.56 356.86 368.253 357.178C367.946 357.491 367.568 357.737 367.117 357.913C366.666 358.087 366.159 358.173 365.596 358.173Z" fill="#FF9D97"/>
<path d="M48.9392 127.662H370.291" stroke="#D9DBDB" stroke-width="1.38514" stroke-linecap="square"/>
<path d="M48.9394 198.304H370.291" stroke="#D9DBDB" stroke-width="1.38514" stroke-linecap="square"/>
<path d="M48.9394 268.946H370.291" stroke="#D9DBDB" stroke-width="1.38514" stroke-linecap="square"/>
<path d="M100.464 297.953V289.225H103.413C104.098 289.225 104.657 289.349 105.092 289.596C105.53 289.84 105.853 290.171 106.064 290.589C106.274 291.007 106.379 291.473 106.379 291.987C106.379 292.501 106.274 292.968 106.064 293.389C105.856 293.809 105.535 294.144 105.101 294.394C104.666 294.642 104.109 294.765 103.43 294.765H101.316V293.828H103.396C103.865 293.828 104.241 293.747 104.525 293.585C104.809 293.423 105.015 293.204 105.143 292.928C105.274 292.65 105.339 292.336 105.339 291.987C105.339 291.637 105.274 291.325 105.143 291.049C105.015 290.774 104.808 290.558 104.521 290.402C104.234 290.242 103.853 290.163 103.379 290.163H101.521V297.953H100.464ZM107.945 297.953V291.407H108.917V292.396H108.985C109.104 292.072 109.32 291.809 109.632 291.607C109.945 291.406 110.297 291.305 110.689 291.305C110.763 291.305 110.856 291.306 110.966 291.309C111.077 291.312 111.161 291.316 111.218 291.322V292.345C111.184 292.336 111.106 292.323 110.983 292.306C110.864 292.286 110.738 292.277 110.604 292.277C110.286 292.277 110.002 292.343 109.752 292.477C109.505 292.607 109.309 292.789 109.164 293.022C109.022 293.252 108.951 293.515 108.951 293.811V297.953H107.945ZM114.87 298.089C114.279 298.089 113.76 297.948 113.314 297.667C112.871 297.386 112.525 296.992 112.275 296.487C112.027 295.981 111.904 295.39 111.904 294.714C111.904 294.032 112.027 293.437 112.275 292.928C112.525 292.42 112.871 292.025 113.314 291.744C113.76 291.463 114.279 291.322 114.87 291.322C115.461 291.322 115.978 291.463 116.421 291.744C116.867 292.025 117.213 292.42 117.461 292.928C117.711 293.437 117.836 294.032 117.836 294.714C117.836 295.39 117.711 295.981 117.461 296.487C117.213 296.992 116.867 297.386 116.421 297.667C115.978 297.948 115.461 298.089 114.87 298.089ZM114.87 297.186C115.319 297.186 115.688 297.071 115.978 296.84C116.267 296.61 116.482 296.308 116.621 295.933C116.76 295.558 116.83 295.152 116.83 294.714C116.83 294.277 116.76 293.869 116.621 293.491C116.482 293.113 116.267 292.808 115.978 292.575C115.688 292.342 115.319 292.225 114.87 292.225C114.421 292.225 114.052 292.342 113.762 292.575C113.472 292.808 113.257 293.113 113.118 293.491C112.979 293.869 112.909 294.277 112.909 294.714C112.909 295.152 112.979 295.558 113.118 295.933C113.257 296.308 113.472 296.61 113.762 296.84C114.052 297.071 114.421 297.186 114.87 297.186ZM121.842 298.089C121.297 298.089 120.815 297.951 120.398 297.676C119.98 297.397 119.653 297.005 119.418 296.5C119.182 295.991 119.064 295.39 119.064 294.697C119.064 294.009 119.182 293.413 119.418 292.907C119.653 292.402 119.982 292.011 120.402 291.735C120.822 291.46 121.308 291.322 121.859 291.322C122.286 291.322 122.622 291.393 122.869 291.535C123.119 291.674 123.31 291.833 123.44 292.012C123.574 292.188 123.678 292.333 123.751 292.447H123.837V289.225H124.842V297.953H123.871V296.947H123.751C123.678 297.066 123.572 297.217 123.436 297.399C123.3 297.578 123.105 297.738 122.852 297.88C122.599 298.019 122.263 298.089 121.842 298.089ZM121.979 297.186C122.382 297.186 122.723 297.08 123.001 296.87C123.28 296.657 123.492 296.363 123.636 295.988C123.781 295.61 123.854 295.174 123.854 294.68C123.854 294.191 123.783 293.764 123.641 293.397C123.499 293.028 123.288 292.741 123.01 292.536C122.732 292.329 122.388 292.225 121.979 292.225C121.553 292.225 121.197 292.335 120.913 292.553C120.632 292.769 120.42 293.063 120.278 293.436C120.139 293.805 120.07 294.22 120.07 294.68C120.07 295.146 120.141 295.569 120.283 295.95C120.428 296.328 120.641 296.629 120.922 296.853C121.206 297.075 121.558 297.186 121.979 297.186Z" fill="#76767B"/>
<path d="M154.484 297.953V289.225H157.433C158.118 289.225 158.678 289.349 159.112 289.596C159.55 289.84 159.874 290.171 160.084 290.589C160.294 291.007 160.399 291.473 160.399 291.987C160.399 292.501 160.294 292.968 160.084 293.389C159.877 293.809 159.555 294.144 159.121 294.394C158.686 294.642 158.129 294.765 157.45 294.765H155.337V293.828H157.416C157.885 293.828 158.261 293.747 158.546 293.585C158.83 293.423 159.036 293.204 159.163 292.928C159.294 292.65 159.359 292.336 159.359 291.987C159.359 291.637 159.294 291.325 159.163 291.049C159.036 290.774 158.828 290.558 158.541 290.402C158.254 290.242 157.874 290.163 157.399 290.163H155.541V297.953H154.484ZM161.965 297.953V291.407H162.937V292.396H163.005C163.124 292.072 163.34 291.809 163.653 291.607C163.965 291.406 164.318 291.305 164.71 291.305C164.783 291.305 164.876 291.306 164.987 291.309C165.097 291.312 165.181 291.316 165.238 291.322V292.345C165.204 292.336 165.126 292.323 165.004 292.306C164.884 292.286 164.758 292.277 164.624 292.277C164.306 292.277 164.022 292.343 163.772 292.477C163.525 292.607 163.329 292.789 163.184 293.022C163.042 293.252 162.971 293.515 162.971 293.811V297.953H161.965ZM168.89 298.089C168.299 298.089 167.781 297.948 167.335 297.667C166.891 297.386 166.545 296.992 166.295 296.487C166.048 295.981 165.924 295.39 165.924 294.714C165.924 294.032 166.048 293.437 166.295 292.928C166.545 292.42 166.891 292.025 167.335 291.744C167.781 291.463 168.299 291.322 168.89 291.322C169.481 291.322 169.998 291.463 170.441 291.744C170.887 292.025 171.234 292.42 171.481 292.928C171.731 293.437 171.856 294.032 171.856 294.714C171.856 295.39 171.731 295.981 171.481 296.487C171.234 296.992 170.887 297.386 170.441 297.667C169.998 297.948 169.481 298.089 168.89 298.089ZM168.89 297.186C169.339 297.186 169.708 297.071 169.998 296.84C170.288 296.61 170.502 296.308 170.641 295.933C170.781 295.558 170.85 295.152 170.85 294.714C170.85 294.277 170.781 293.869 170.641 293.491C170.502 293.113 170.288 292.808 169.998 292.575C169.708 292.342 169.339 292.225 168.89 292.225C168.441 292.225 168.072 292.342 167.782 292.575C167.492 292.808 167.278 293.113 167.139 293.491C166.999 293.869 166.93 294.277 166.93 294.714C166.93 295.152 166.999 295.558 167.139 295.933C167.278 296.308 167.492 296.61 167.782 296.84C168.072 297.071 168.441 297.186 168.89 297.186ZM175.863 298.089C175.317 298.089 174.836 297.951 174.418 297.676C174 297.397 173.674 297.005 173.438 296.5C173.202 295.991 173.084 295.39 173.084 294.697C173.084 294.009 173.202 293.413 173.438 292.907C173.674 292.402 174.002 292.011 174.422 291.735C174.843 291.46 175.329 291.322 175.88 291.322C176.306 291.322 176.642 291.393 176.89 291.535C177.14 291.674 177.33 291.833 177.461 292.012C177.594 292.188 177.698 292.333 177.772 292.447H177.857V289.225H178.863V297.953H177.891V296.947H177.772C177.698 297.066 177.593 297.217 177.456 297.399C177.32 297.578 177.125 297.738 176.873 297.88C176.62 298.019 176.283 298.089 175.863 298.089ZM175.999 297.186C176.402 297.186 176.743 297.08 177.022 296.87C177.3 296.657 177.512 296.363 177.657 295.988C177.802 295.61 177.874 295.174 177.874 294.68C177.874 294.191 177.803 293.764 177.661 293.397C177.519 293.028 177.309 292.741 177.03 292.536C176.752 292.329 176.408 292.225 175.999 292.225C175.573 292.225 175.218 292.335 174.934 292.553C174.652 292.769 174.441 293.063 174.299 293.436C174.16 293.805 174.09 294.22 174.09 294.68C174.09 295.146 174.161 295.569 174.303 295.95C174.448 296.328 174.661 296.629 174.942 296.853C175.226 297.075 175.579 297.186 175.999 297.186Z" fill="#76767B"/>
<path d="M212.995 289.225H214.257L217.223 296.47H217.325L220.291 289.225H221.552V297.953H220.564V291.322H220.478L217.751 297.953H216.796L214.069 291.322H213.984V297.953H212.995V289.225ZM225.461 298.106C225.046 298.106 224.67 298.028 224.332 297.872C223.994 297.713 223.725 297.484 223.526 297.186C223.327 296.884 223.228 296.521 223.228 296.095C223.228 295.72 223.302 295.416 223.45 295.183C223.597 294.947 223.795 294.762 224.042 294.629C224.289 294.495 224.562 294.396 224.86 294.33C225.161 294.262 225.464 294.208 225.768 294.169C226.165 294.117 226.488 294.079 226.735 294.053C226.985 294.025 227.167 293.978 227.28 293.913C227.397 293.848 227.455 293.734 227.455 293.572V293.538C227.455 293.117 227.34 292.791 227.11 292.558C226.883 292.325 226.538 292.208 226.075 292.208C225.594 292.208 225.218 292.313 224.945 292.524C224.673 292.734 224.481 292.958 224.37 293.197L223.415 292.856C223.586 292.458 223.813 292.149 224.097 291.927C224.384 291.703 224.697 291.546 225.035 291.458C225.376 291.367 225.711 291.322 226.04 291.322C226.251 291.322 226.492 291.348 226.765 291.399C227.04 291.447 227.306 291.548 227.562 291.701C227.82 291.855 228.035 292.086 228.205 292.396C228.376 292.705 228.461 293.12 228.461 293.64V297.953H227.455V297.066H227.404C227.336 297.208 227.222 297.36 227.063 297.522C226.904 297.684 226.692 297.822 226.428 297.936C226.164 298.049 225.842 298.106 225.461 298.106ZM225.614 297.203C226.012 297.203 226.347 297.125 226.62 296.968C226.896 296.812 227.103 296.61 227.242 296.363C227.384 296.116 227.455 295.856 227.455 295.583V294.663C227.413 294.714 227.319 294.761 227.174 294.803C227.032 294.843 226.867 294.879 226.68 294.91C226.495 294.938 226.315 294.964 226.138 294.987C225.965 295.007 225.825 295.024 225.717 295.038C225.455 295.072 225.211 295.127 224.984 295.204C224.759 295.278 224.577 295.39 224.438 295.541C224.302 295.688 224.234 295.89 224.234 296.146C224.234 296.495 224.363 296.759 224.621 296.938C224.883 297.115 225.214 297.203 225.614 297.203ZM230.296 297.953V291.407H231.302V297.953H230.296ZM230.808 290.316C230.612 290.316 230.443 290.25 230.301 290.116C230.162 289.982 230.092 289.822 230.092 289.634C230.092 289.447 230.162 289.286 230.301 289.153C230.443 289.019 230.612 288.953 230.808 288.953C231.004 288.953 231.171 289.019 231.311 289.153C231.453 289.286 231.524 289.447 231.524 289.634C231.524 289.822 231.453 289.982 231.311 290.116C231.171 290.25 231.004 290.316 230.808 290.316Z" fill="#76767B"/>
<path d="M268.806 297.953H266.113V289.225H268.926C269.772 289.225 270.497 289.4 271.099 289.75C271.701 290.096 272.163 290.595 272.484 291.245C272.805 291.893 272.966 292.669 272.966 293.572C272.966 294.481 272.804 295.264 272.48 295.92C272.156 296.573 271.684 297.076 271.065 297.428C270.446 297.778 269.693 297.953 268.806 297.953ZM267.17 297.015H268.738C269.46 297.015 270.058 296.876 270.532 296.598C271.007 296.319 271.36 295.923 271.593 295.409C271.826 294.894 271.943 294.282 271.943 293.572C271.943 292.867 271.828 292.261 271.598 291.752C271.368 291.241 271.024 290.849 270.566 290.576C270.109 290.301 269.539 290.163 268.858 290.163H267.17V297.015ZM277.346 298.089C276.716 298.089 276.171 297.95 275.714 297.671C275.26 297.39 274.909 296.998 274.662 296.495C274.417 295.99 274.295 295.402 274.295 294.731C274.295 294.061 274.417 293.47 274.662 292.958C274.909 292.444 275.252 292.044 275.693 291.757C276.136 291.467 276.653 291.322 277.244 291.322C277.585 291.322 277.921 291.379 278.254 291.492C278.586 291.606 278.889 291.791 279.162 292.046C279.434 292.299 279.652 292.634 279.814 293.052C279.975 293.47 280.056 293.984 280.056 294.595V295.021H275.011V294.152H279.034C279.034 293.782 278.96 293.453 278.812 293.163C278.667 292.873 278.46 292.644 278.19 292.477C277.923 292.309 277.608 292.225 277.244 292.225C276.843 292.225 276.497 292.325 276.204 292.524C275.914 292.72 275.691 292.975 275.535 293.291C275.379 293.606 275.301 293.944 275.301 294.305V294.884C275.301 295.379 275.386 295.798 275.556 296.142C275.73 296.482 275.97 296.742 276.277 296.921C276.583 297.098 276.94 297.186 277.346 297.186C277.61 297.186 277.849 297.149 278.062 297.075C278.278 296.998 278.464 296.884 278.62 296.734C278.777 296.58 278.897 296.39 278.983 296.163L279.954 296.436C279.852 296.765 279.68 297.055 279.439 297.305C279.197 297.552 278.899 297.745 278.544 297.884C278.189 298.021 277.789 298.089 277.346 298.089ZM286.739 291.407L284.319 297.953H283.296L280.876 291.407H281.967L283.773 296.623H283.842L285.648 291.407H286.739Z" fill="#76767B"/>
<path d="M319.634 288.879H321.09L324.514 297.241H324.632L328.055 288.879H329.511V298.953H328.37V291.299H328.272L325.123 298.953H324.022L320.874 291.299H320.775V298.953H319.634V288.879ZM334.023 299.13C333.544 299.13 333.11 299.04 332.719 298.859C332.329 298.676 332.019 298.412 331.79 298.067C331.56 297.72 331.445 297.3 331.445 296.808C331.445 296.375 331.531 296.024 331.701 295.755C331.872 295.483 332.1 295.27 332.385 295.116C332.67 294.962 332.985 294.847 333.329 294.772C333.677 294.693 334.026 294.631 334.377 294.585C334.836 294.526 335.208 294.481 335.494 294.452C335.782 294.419 335.992 294.365 336.123 294.29C336.258 294.214 336.325 294.083 336.325 293.896V293.857C336.325 293.371 336.192 292.994 335.926 292.725C335.664 292.457 335.266 292.322 334.731 292.322C334.177 292.322 333.742 292.443 333.428 292.686C333.113 292.929 332.892 293.188 332.764 293.463L331.662 293.07C331.859 292.611 332.121 292.253 332.449 291.997C332.78 291.738 333.141 291.558 333.531 291.456C333.924 291.351 334.311 291.299 334.692 291.299C334.934 291.299 335.213 291.328 335.528 291.388C335.846 291.443 336.153 291.56 336.448 291.737C336.746 291.914 336.994 292.181 337.191 292.539C337.387 292.896 337.486 293.375 337.486 293.975V298.953H336.325V297.93H336.266C336.187 298.093 336.056 298.269 335.872 298.456C335.689 298.643 335.444 298.802 335.139 298.933C334.834 299.064 334.462 299.13 334.023 299.13ZM334.2 298.087C334.659 298.087 335.046 297.997 335.361 297.816C335.679 297.636 335.918 297.403 336.079 297.118C336.243 296.833 336.325 296.533 336.325 296.218V295.155C336.276 295.214 336.167 295.268 336 295.318C335.836 295.364 335.646 295.405 335.43 295.441C335.216 295.473 335.008 295.503 334.805 295.529C334.605 295.552 334.443 295.572 334.318 295.588C334.016 295.628 333.734 295.691 333.472 295.78C333.213 295.865 333.003 295.995 332.842 296.169C332.685 296.339 332.606 296.572 332.606 296.867C332.606 297.27 332.755 297.575 333.054 297.782C333.356 297.985 333.738 298.087 334.2 298.087ZM339.604 291.397H340.765V299.504C340.765 299.969 340.685 300.373 340.524 300.714C340.367 301.055 340.127 301.319 339.806 301.505C339.488 301.692 339.086 301.786 338.601 301.786C338.562 301.786 338.522 301.786 338.483 301.786C338.444 301.786 338.404 301.786 338.365 301.786V300.704C338.404 300.704 338.44 300.704 338.473 300.704C338.506 300.704 338.542 300.704 338.581 300.704C338.936 300.704 339.195 300.599 339.359 300.389C339.522 300.182 339.604 299.887 339.604 299.504V291.397ZM340.175 290.138C339.949 290.138 339.754 290.061 339.59 289.907C339.429 289.753 339.349 289.568 339.349 289.351C339.349 289.135 339.429 288.949 339.59 288.795C339.754 288.641 339.949 288.564 340.175 288.564C340.401 288.564 340.595 288.641 340.755 288.795C340.919 288.949 341.001 289.135 341.001 289.351C341.001 289.568 340.919 289.753 340.755 289.907C340.595 290.061 340.401 290.138 340.175 290.138Z" fill="#76767B"/>
<path d="M275.409 268.946V274.486" stroke="#D9DBDB" stroke-width="1.38514" stroke-linecap="square"/>
<path d="M223.466 268.946V274.486" stroke="#D9DBDB" stroke-width="1.38514" stroke-linecap="square"/>
<path d="M168.753 268.946V274.486" stroke="#D9DBDB" stroke-width="1.38514" stroke-linecap="square"/>
<path d="M115.426 268.946V274.486" stroke="#D9DBDB" stroke-width="1.38514" stroke-linecap="square"/>
<path d="M330.122 268.946V274.486" stroke="#D9DBDB" stroke-width="1.38514" stroke-linecap="square"/>
<g clip-path="url(#clip0_263_675)">
<path d="M53.268 282.699C52.5269 282.699 51.8956 282.497 51.3742 282.094C50.8528 281.687 50.4544 281.098 50.179 280.328C49.9035 279.554 49.7658 278.619 49.7658 277.524C49.7658 276.435 49.9035 275.506 50.179 274.735C50.4577 273.961 50.8578 273.371 51.3791 272.964C51.9038 272.554 52.5334 272.349 53.268 272.349C54.0025 272.349 54.6305 272.554 55.1519 272.964C55.6765 273.371 56.0766 273.961 56.3521 274.735C56.6308 275.506 56.7702 276.435 56.7702 277.524C56.7702 278.619 56.6324 279.554 56.357 280.328C56.0815 281.098 55.6831 281.687 55.1617 282.094C54.6403 282.497 54.0091 282.699 53.268 282.699ZM53.268 281.616C54.0025 281.616 54.5731 281.262 54.9797 280.554C55.3863 279.846 55.5896 278.836 55.5896 277.524C55.5896 276.652 55.4962 275.909 55.3093 275.296C55.1256 274.683 54.86 274.215 54.5124 273.894C54.1681 273.572 53.7533 273.412 53.268 273.412C52.54 273.412 51.971 273.771 51.5611 274.489C51.1512 275.204 50.9463 276.216 50.9463 277.524C50.9463 278.396 51.0381 279.137 51.2217 279.747C51.4054 280.357 51.6694 280.821 52.0137 281.139C52.3613 281.457 52.7794 281.616 53.268 281.616ZM61.9251 282.699C61.184 282.699 60.5527 282.497 60.0313 282.094C59.5099 281.687 59.1115 281.098 58.8361 280.328C58.5606 279.554 58.4229 278.619 58.4229 277.524C58.4229 276.435 58.5606 275.506 58.8361 274.735C59.1148 273.961 59.5149 273.371 60.0362 272.964C60.5609 272.554 61.1905 272.349 61.9251 272.349C62.6596 272.349 63.2876 272.554 63.809 272.964C64.3336 273.371 64.7337 273.961 65.0092 274.735C65.2879 275.506 65.4273 276.435 65.4273 277.524C65.4273 278.619 65.2895 279.554 65.0141 280.328C64.7386 281.098 64.3402 281.687 63.8188 282.094C63.2974 282.497 62.6662 282.699 61.9251 282.699ZM61.9251 281.616C62.6596 281.616 63.2302 281.262 63.6368 280.554C64.0434 279.846 64.2467 278.836 64.2467 277.524C64.2467 276.652 64.1533 275.909 63.9664 275.296C63.7827 274.683 63.5171 274.215 63.1695 273.894C62.8252 273.572 62.4104 273.412 61.9251 273.412C61.1971 273.412 60.6281 273.771 60.2182 274.489C59.8083 275.204 59.6034 276.216 59.6034 277.524C59.6034 278.396 59.6952 279.137 59.8788 279.747C60.0625 280.357 60.3265 280.821 60.6708 281.139C61.0184 281.457 61.4365 281.616 61.9251 281.616Z" fill="#686868"/>
<path d="M53.5237 201.845V211.919H52.3039V203.124H52.2449L49.7855 204.757V203.518L52.3039 201.845H53.5237ZM59.569 212.057C58.9918 212.057 58.4721 211.942 58.0097 211.712C57.5473 211.483 57.1768 211.168 56.898 210.768C56.6193 210.368 56.4668 209.912 56.4406 209.401H57.6211C57.667 209.856 57.8736 210.233 58.2409 210.532C58.6114 210.827 59.0541 210.975 59.569 210.975C59.9821 210.975 60.3494 210.878 60.6708 210.684C60.9954 210.491 61.2495 210.225 61.4332 209.887C61.6201 209.546 61.7136 209.161 61.7136 208.732C61.7136 208.292 61.6168 207.9 61.4233 207.556C61.2332 207.208 60.9708 206.935 60.6363 206.735C60.3019 206.534 59.9198 206.433 59.4903 206.43C59.182 206.426 58.8656 206.474 58.5409 206.572C58.2163 206.667 57.949 206.79 57.7392 206.941L56.598 206.803L57.2079 201.845H62.4415V202.927H58.231L57.8769 205.898H57.9359C58.1425 205.734 58.4016 205.598 58.7131 205.49C59.0246 205.382 59.3493 205.328 59.687 205.328C60.3035 205.328 60.8528 205.475 61.3348 205.77C61.8201 206.062 62.2005 206.462 62.476 206.971C62.7547 207.479 62.8941 208.059 62.8941 208.712C62.8941 209.355 62.7498 209.928 62.4612 210.433C62.1759 210.935 61.7824 211.332 61.2807 211.624C60.779 211.912 60.2084 212.057 59.569 212.057ZM65.9499 209.164L65.9302 207.728H66.1663L69.4717 204.364H70.908L67.3862 207.925H67.2878L65.9499 209.164ZM64.8677 211.919V201.845H66.0286V211.919H64.8677ZM69.6685 211.919L66.7172 208.181L67.5436 207.374L71.1441 211.919H69.6685Z" fill="#686868"/>
<path d="M53.3858 141.415C52.7365 141.415 52.1577 141.303 51.6495 141.08C51.1445 140.857 50.7428 140.547 50.4443 140.151C50.1492 139.751 49.9885 139.287 49.9623 138.759H51.2018C51.2281 139.083 51.3396 139.364 51.5363 139.6C51.7331 139.833 51.9905 140.013 52.3086 140.141C52.6267 140.269 52.9792 140.333 53.3661 140.333C53.799 140.333 54.1826 140.257 54.5171 140.106C54.8516 139.956 55.1139 139.746 55.3041 139.477C55.4943 139.208 55.5894 138.896 55.5894 138.542C55.5894 138.172 55.4976 137.845 55.314 137.563C55.1303 137.278 54.8614 137.055 54.5073 136.894C54.1531 136.734 53.7203 136.653 53.2087 136.653H52.402V135.571H53.2087C53.6088 135.571 53.9597 135.499 54.2613 135.355C54.5663 135.211 54.804 135.007 54.9746 134.745C55.1484 134.483 55.2353 134.174 55.2353 133.82C55.2353 133.479 55.1598 133.182 55.009 132.93C54.8582 132.677 54.645 132.481 54.3696 132.34C54.0974 132.199 53.776 132.128 53.4055 132.128C53.0579 132.128 52.73 132.192 52.4217 132.32C52.1167 132.445 51.8675 132.627 51.674 132.866C51.4806 133.102 51.3756 133.387 51.3592 133.722H50.1787C50.1984 133.194 50.3574 132.731 50.6559 132.335C50.9543 131.935 51.3445 131.623 51.8265 131.4C52.3119 131.177 52.8447 131.066 53.4251 131.066C54.0482 131.066 54.5827 131.192 55.0287 131.444C55.4746 131.694 55.8173 132.023 56.0567 132.433C56.2961 132.843 56.4158 133.286 56.4158 133.761C56.4158 134.328 56.2666 134.812 55.9682 135.212C55.673 135.612 55.2713 135.889 54.7631 136.043V136.122C55.3992 136.227 55.896 136.498 56.2535 136.934C56.6109 137.367 56.7896 137.903 56.7896 138.542C56.7896 139.09 56.6404 139.582 56.342 140.018C56.0469 140.451 55.6435 140.792 55.132 141.041C54.6204 141.29 54.0384 141.415 53.3858 141.415ZM62.0872 141.415C61.3461 141.415 60.7148 141.213 60.1934 140.81C59.672 140.403 59.2736 139.815 58.9981 139.044C58.7227 138.27 58.585 137.335 58.585 136.24C58.585 135.152 58.7227 134.222 58.9981 133.451C59.2769 132.677 59.6769 132.087 60.1983 131.681C60.723 131.271 61.3526 131.066 62.0872 131.066C62.8217 131.066 63.4497 131.271 63.9711 131.681C64.4957 132.087 64.8958 132.677 65.1712 133.451C65.45 134.222 65.5893 135.152 65.5893 136.24C65.5893 137.335 65.4516 138.27 65.1762 139.044C64.9007 139.815 64.5023 140.403 63.9809 140.81C63.4595 141.213 62.8283 141.415 62.0872 141.415ZM62.0872 140.333C62.8217 140.333 63.3923 139.979 63.7989 139.27C64.2055 138.562 64.4088 137.552 64.4088 136.24C64.4088 135.368 64.3154 134.625 64.1285 134.012C63.9448 133.399 63.6792 132.932 63.3316 132.61C62.9873 132.289 62.5725 132.128 62.0872 132.128C61.3592 132.128 60.7902 132.487 60.3803 133.205C59.9704 133.92 59.7655 134.932 59.7655 136.24C59.7655 137.113 59.8573 137.854 60.0409 138.464C60.2246 139.073 60.4885 139.537 60.8329 139.856C61.1805 140.174 61.5986 140.333 62.0872 140.333ZM68.5603 138.523L68.5406 137.086H68.7767L72.0822 133.722H73.5185L69.9966 137.283H69.8982L68.5603 138.523ZM67.4782 141.277V131.203H68.639V141.277H67.4782ZM72.2789 141.277L69.3276 137.539L70.154 136.732L73.7546 141.277H72.2789Z" fill="#686868"/>
</g>
<path fill-rule="evenodd" clip-rule="evenodd" d="M310.73 202.459H316.271V268.946H310.73V202.459Z" fill="#FF9D97"/>
<path fill-rule="evenodd" clip-rule="evenodd" d="M319.041 165.061C319.041 163.531 320.282 162.291 321.812 162.291C323.342 162.291 324.582 163.531 324.582 165.061V266.176C324.582 267.706 323.342 268.946 321.812 268.946C320.282 268.946 319.041 267.706 319.041 266.176V165.061Z" fill="#D9DBDB"/>
<path fill-rule="evenodd" clip-rule="evenodd" d="M327.352 196.919C327.352 195.389 328.592 194.149 330.122 194.149C331.652 194.149 332.893 195.389 332.893 196.919V266.176C332.893 267.706 331.652 268.946 330.122 268.946C328.592 268.946 327.352 267.706 327.352 266.176V196.919Z" fill="#FE5A51"/>
<path fill-rule="evenodd" clip-rule="evenodd" d="M335.663 151.209C335.663 149.679 336.903 148.439 338.433 148.439C339.963 148.439 341.203 149.68 341.203 151.209V266.176C341.203 267.706 339.963 268.946 338.433 268.946C336.903 268.946 335.663 267.706 335.663 266.176V151.209Z" fill="#FF7878"/>
<path fill-rule="evenodd" clip-rule="evenodd" d="M343.974 214.926H349.514V268.946H343.974V214.926Z" fill="#252424"/>
<path fill-rule="evenodd" clip-rule="evenodd" d="M288.567 249.554C288.567 248.024 289.808 246.784 291.338 246.784C292.868 246.784 294.108 248.024 294.108 249.554V266.176C294.108 267.706 292.868 268.946 291.338 268.946C289.808 268.946 288.567 267.706 288.567 266.176V249.554Z" fill="#252424"/>
<path fill-rule="evenodd" clip-rule="evenodd" d="M256.017 173.372C256.017 171.842 257.257 170.601 258.787 170.601C260.317 170.601 261.557 171.842 261.557 173.372V266.176C261.557 267.706 260.317 268.946 258.787 268.946C257.257 268.946 256.017 267.706 256.017 266.176V173.372Z" fill="#FF9D97"/>
<path fill-rule="evenodd" clip-rule="evenodd" d="M264.328 170.601C264.328 169.071 265.568 167.831 267.098 167.831C268.628 167.831 269.868 169.071 269.868 170.601V266.176C269.868 267.706 268.628 268.946 267.098 268.946C265.568 268.946 264.328 267.706 264.328 266.176V170.601Z" fill="#D9DBDB"/>
<path fill-rule="evenodd" clip-rule="evenodd" d="M272.638 184.453C272.638 182.923 273.879 181.682 275.409 181.682C276.939 181.682 278.179 182.923 278.179 184.453V266.176C278.179 267.706 276.939 268.946 275.409 268.946C273.879 268.946 272.638 267.706 272.638 266.176V184.453Z" fill="#FE5A51"/>
<path fill-rule="evenodd" clip-rule="evenodd" d="M280.949 145.669C280.949 144.139 282.189 142.899 283.719 142.899C285.249 142.899 286.49 144.139 286.49 145.669V266.176C286.49 267.706 285.249 268.946 283.719 268.946C282.189 268.946 280.949 267.706 280.949 266.176V145.669Z" fill="#FF7878"/>
<path fill-rule="evenodd" clip-rule="evenodd" d="M204.074 183.068C204.074 181.538 205.315 180.297 206.845 180.297C208.375 180.297 209.615 181.538 209.615 183.068V266.176C209.615 267.706 208.375 268.946 206.845 268.946C205.315 268.946 204.074 267.706 204.074 266.176V183.068Z" fill="#FF9D97"/>
<path fill-rule="evenodd" clip-rule="evenodd" d="M212.385 191.378C212.385 189.848 213.626 188.608 215.156 188.608C216.686 188.608 217.926 189.848 217.926 191.378V266.176C217.926 267.706 216.686 268.946 215.156 268.946C213.626 268.946 212.385 267.706 212.385 266.176V191.378Z" fill="#D9DBDB"/>
<path fill-rule="evenodd" clip-rule="evenodd" d="M220.696 171.987C220.696 170.457 221.936 169.216 223.466 169.216C224.996 169.216 226.237 170.457 226.237 171.987V266.176C226.237 267.706 224.996 268.946 223.466 268.946C221.936 268.946 220.696 267.706 220.696 266.176V171.987Z" fill="#FE5A51"/>
<path fill-rule="evenodd" clip-rule="evenodd" d="M229.007 166.446C229.007 164.916 230.247 163.676 231.777 163.676C233.307 163.676 234.547 164.916 234.547 166.446V266.176C234.547 267.706 233.307 268.946 231.777 268.946C230.247 268.946 229.007 267.706 229.007 266.176V166.446Z" fill="#FF7878"/>
<path fill-rule="evenodd" clip-rule="evenodd" d="M237.318 206.615C237.318 205.085 238.558 203.844 240.088 203.844C241.618 203.844 242.858 205.085 242.858 206.615V266.176C242.858 267.706 241.618 268.946 240.088 268.946C238.558 268.946 237.318 267.706 237.318 266.176V206.615Z" fill="#252424"/>
<path fill-rule="evenodd" clip-rule="evenodd" d="M149.361 156.75C149.361 155.22 150.602 153.98 152.132 153.98C153.662 153.98 154.902 155.22 154.902 156.75V266.176C154.902 267.706 153.662 268.946 152.132 268.946C150.602 268.946 149.361 267.706 149.361 266.176V156.75Z" fill="#FF9D97"/>
<path fill-rule="evenodd" clip-rule="evenodd" d="M157.672 170.601C157.672 169.071 158.913 167.831 160.443 167.831C161.973 167.831 163.213 169.071 163.213 170.601V266.176C163.213 267.706 161.973 268.946 160.443 268.946C158.913 268.946 157.672 267.706 157.672 266.176V170.601Z" fill="#D9DBDB"/>
<path fill-rule="evenodd" clip-rule="evenodd" d="M165.983 202.459C165.983 200.929 167.224 199.689 168.754 199.689C170.284 199.689 171.524 200.93 171.524 202.459V266.176C171.524 267.706 170.284 268.946 168.754 268.946C167.224 268.946 165.983 267.706 165.983 266.176V202.459Z" fill="#FE5A51"/>
<path fill-rule="evenodd" clip-rule="evenodd" d="M174.294 163.676C174.294 162.146 175.534 160.905 177.064 160.905C178.594 160.905 179.835 162.146 179.835 163.676V266.176C179.835 267.706 178.594 268.946 177.064 268.946C175.534 268.946 174.294 267.706 174.294 266.176V163.676Z" fill="#FF7878"/>
<path fill-rule="evenodd" clip-rule="evenodd" d="M183.297 221.851C183.297 220.321 184.538 219.081 186.068 219.081C187.598 219.081 188.838 220.321 188.838 221.851V266.176C188.838 267.706 187.598 268.946 186.068 268.946C184.538 268.946 183.297 267.706 183.297 266.176V221.851Z" fill="#252424"/>
<path fill-rule="evenodd" clip-rule="evenodd" d="M96.0339 166.446C96.0339 164.916 97.2742 163.676 98.8041 163.676C100.334 163.676 101.574 164.916 101.574 166.446V266.176C101.574 267.706 100.334 268.946 98.8041 268.946C97.2742 268.946 96.0339 267.706 96.0339 266.176V166.446Z" fill="#FF9D97"/>
<path fill-rule="evenodd" clip-rule="evenodd" d="M104.345 183.068C104.345 181.538 105.585 180.297 107.115 180.297C108.645 180.297 109.885 181.538 109.885 183.068V266.176C109.885 267.706 108.645 268.946 107.115 268.946C105.585 268.946 104.345 267.706 104.345 266.176V183.068Z" fill="#D9DBDB"/>
<path fill-rule="evenodd" clip-rule="evenodd" d="M112.656 191.378C112.656 189.848 113.896 188.608 115.426 188.608C116.956 188.608 118.196 189.848 118.196 191.378V266.176C118.196 267.706 116.956 268.946 115.426 268.946C113.896 268.946 112.656 267.706 112.656 266.176V191.378Z" fill="#FE5A51"/>
<path fill-rule="evenodd" clip-rule="evenodd" d="M120.966 138.743C120.966 137.213 122.207 135.973 123.737 135.973C125.267 135.973 126.507 137.213 126.507 138.743V266.176C126.507 267.706 125.267 268.946 123.737 268.946C122.207 268.946 120.966 267.706 120.966 266.176V138.743Z" fill="#FF7878"/>
<path fill-rule="evenodd" clip-rule="evenodd" d="M129 243C129 241.343 130.343 240 132 240C133.657 240 135 241.343 135 243V266C135 267.657 133.657 269 132 269C130.343 269 129 267.657 129 266V243Z" fill="#252424"/>
<g filter="url(#filter1_d_263_675)">
<path fill-rule="evenodd" clip-rule="evenodd" d="M294 207C294 201.477 298.477 197 304 197H525C530.523 197 535 201.477 535 207V415C535 420.523 530.523 425 525 425H304C298.477 425 294 420.523 294 415V207Z" fill="white"/>
<path d="M294.5 207C294.5 201.753 298.753 197.5 304 197.5H525C530.247 197.5 534.5 201.753 534.5 207V415C534.5 420.247 530.247 424.5 525 424.5H304C298.753 424.5 294.5 420.247 294.5 415V207Z" stroke="#DAE5F0"/>
</g>
<rect x="320" y="223" width="117" height="8" rx="4" fill="#ECE5E5"/>
<path d="M509.587 227.344C509.79 227.344 509.983 227.384 510.165 227.462C510.347 227.54 510.506 227.649 510.642 227.79C510.782 227.925 510.892 228.084 510.97 228.266C511.048 228.449 511.087 228.641 511.087 228.844C511.087 229.048 511.045 229.24 510.962 229.423C510.884 229.6 510.774 229.759 510.634 229.899C510.498 230.035 510.34 230.144 510.157 230.227C509.98 230.305 509.79 230.344 509.587 230.344C509.384 230.344 509.191 230.305 509.009 230.227C508.832 230.144 508.673 230.035 508.532 229.899C508.397 229.759 508.287 229.6 508.204 229.423C508.126 229.24 508.087 229.048 508.087 228.844C508.087 228.641 508.126 228.451 508.204 228.274C508.287 228.092 508.397 227.933 508.532 227.798C508.673 227.657 508.832 227.548 509.009 227.469C509.191 227.386 509.384 227.344 509.587 227.344ZM498.587 227.344C498.79 227.344 498.983 227.384 499.165 227.462C499.347 227.54 499.506 227.649 499.642 227.79C499.782 227.925 499.892 228.084 499.97 228.266C500.048 228.449 500.087 228.641 500.087 228.844C500.087 229.048 500.045 229.24 499.962 229.423C499.884 229.6 499.774 229.759 499.634 229.899C499.498 230.035 499.34 230.144 499.157 230.227C498.98 230.305 498.79 230.344 498.587 230.344C498.384 230.344 498.191 230.305 498.009 230.227C497.832 230.144 497.673 230.035 497.532 229.899C497.397 229.759 497.287 229.6 497.204 229.423C497.126 229.24 497.087 229.048 497.087 228.844C497.087 228.641 497.126 228.451 497.204 228.274C497.287 228.092 497.397 227.933 497.532 227.798C497.673 227.657 497.832 227.548 498.009 227.469C498.191 227.386 498.384 227.344 498.587 227.344ZM504.087 227.344C504.29 227.344 504.483 227.384 504.665 227.462C504.847 227.54 505.006 227.649 505.142 227.79C505.282 227.925 505.392 228.084 505.47 228.266C505.548 228.449 505.587 228.641 505.587 228.844C505.587 229.048 505.545 229.24 505.462 229.423C505.384 229.6 505.274 229.759 505.134 229.899C504.998 230.035 504.84 230.144 504.657 230.227C504.48 230.305 504.29 230.344 504.087 230.344C503.884 230.344 503.691 230.305 503.509 230.227C503.332 230.144 503.173 230.035 503.032 229.899C502.897 229.759 502.787 229.6 502.704 229.423C502.626 229.24 502.587 229.048 502.587 228.844C502.587 228.641 502.626 228.451 502.704 228.274C502.787 228.092 502.897 227.933 503.032 227.798C503.173 227.657 503.332 227.548 503.509 227.469C503.691 227.386 503.884 227.344 504.087 227.344Z" fill="#484848"/>
<rect x="481" y="252" width="26" height="6" rx="3" fill="#E3E3EB"/>
<rect x="399" y="252" width="26" height="6" rx="3" fill="#FE5A51"/>
<rect x="320" y="252" width="26" height="6" rx="3" fill="#C9C9C9"/>
<rect x="320.054" y="389.963" width="6.60153" height="6.51351" rx="3.25676" fill="#FE5A51"/>
<rect x="330" y="390" width="26" height="6" rx="3" fill="#FE5A51"/>
<path d="M320.054 271.091H508.946" stroke="#D9DBDB" stroke-width="0.814189" stroke-linecap="square"/>
<path d="M320.054 312.615H508.946" stroke="#D9DBDB" stroke-width="0.814189" stroke-linecap="square"/>
<path d="M320.054 354.138H508.946" stroke="#D9DBDB" stroke-width="0.814189" stroke-linecap="square"/>
<g clip-path="url(#clip1_263_675)">
<path d="M345.682 365.802H346.399V370.034C346.399 370.412 346.33 370.733 346.191 370.997C346.052 371.261 345.857 371.462 345.604 371.599C345.352 371.735 345.054 371.804 344.711 371.804C344.387 371.804 344.099 371.745 343.846 371.627C343.594 371.508 343.395 371.338 343.251 371.119C343.106 370.899 343.034 370.638 343.034 370.335H343.739C343.739 370.503 343.781 370.649 343.864 370.775C343.948 370.898 344.064 370.994 344.211 371.064C344.357 371.133 344.524 371.168 344.711 371.168C344.917 371.168 345.092 371.124 345.237 371.038C345.382 370.951 345.491 370.824 345.567 370.656C345.644 370.486 345.682 370.279 345.682 370.034V365.802ZM349.051 371.827C348.769 371.827 348.514 371.774 348.284 371.668C348.055 371.56 347.873 371.405 347.738 371.202C347.603 370.998 347.536 370.751 347.536 370.462C347.536 370.208 347.586 370.002 347.686 369.844C347.786 369.684 347.92 369.558 348.088 369.468C348.255 369.377 348.441 369.31 348.643 369.265C348.847 369.219 349.053 369.182 349.259 369.155C349.529 369.121 349.747 369.095 349.915 369.077C350.085 369.058 350.208 369.026 350.285 368.982C350.364 368.938 350.404 368.861 350.404 368.751V368.728C350.404 368.442 350.326 368.221 350.17 368.063C350.015 367.904 349.781 367.825 349.467 367.825C349.141 367.825 348.886 367.897 348.701 368.039C348.516 368.182 348.386 368.334 348.31 368.496L347.663 368.265C347.778 367.995 347.933 367.785 348.125 367.635C348.32 367.482 348.532 367.376 348.761 367.317C348.993 367.255 349.22 367.224 349.444 367.224C349.586 367.224 349.75 367.241 349.935 367.276C350.122 367.309 350.303 367.377 350.476 367.481C350.651 367.585 350.797 367.743 350.913 367.953C351.028 368.163 351.086 368.444 351.086 368.797V371.723H350.404V371.122H350.369C350.323 371.218 350.246 371.321 350.138 371.431C350.03 371.541 349.886 371.634 349.707 371.711C349.528 371.788 349.309 371.827 349.051 371.827ZM349.155 371.214C349.425 371.214 349.652 371.161 349.837 371.055C350.024 370.949 350.165 370.812 350.259 370.644C350.356 370.477 350.404 370.3 350.404 370.115V369.491C350.375 369.526 350.311 369.557 350.213 369.586C350.117 369.613 350.005 369.637 349.878 369.659C349.752 369.678 349.63 369.695 349.51 369.711C349.393 369.724 349.297 369.736 349.224 369.745C349.047 369.768 348.881 369.806 348.727 369.858C348.575 369.908 348.451 369.984 348.357 370.086C348.264 370.187 348.218 370.324 348.218 370.497C348.218 370.734 348.306 370.913 348.481 371.035C348.658 371.154 348.883 371.214 349.155 371.214ZM353.014 369.051V371.723H352.332V367.282H352.991V367.976H353.049C353.153 367.75 353.311 367.569 353.523 367.432C353.735 367.293 354.008 367.224 354.344 367.224C354.645 367.224 354.908 367.286 355.133 367.409C355.359 367.531 355.534 367.716 355.659 367.964C355.785 368.211 355.847 368.523 355.847 368.901V371.723H355.165V368.947C355.165 368.598 355.074 368.327 354.893 368.132C354.712 367.935 354.463 367.837 354.147 367.837C353.929 367.837 353.735 367.884 353.563 367.979C353.394 368.073 353.26 368.211 353.161 368.392C353.063 368.573 353.014 368.793 353.014 369.051ZM361.454 365.802V371.723H360.737V366.553H360.703L359.257 367.513V366.785L360.737 365.802H361.454Z" fill="#686868"/>
<path d="M376.616 365.802H377.333V370.034C377.333 370.412 377.263 370.733 377.125 370.997C376.986 371.261 376.79 371.462 376.538 371.599C376.285 371.735 375.987 371.804 375.644 371.804C375.32 371.804 375.032 371.745 374.78 371.627C374.527 371.508 374.329 371.338 374.184 371.119C374.04 370.899 373.967 370.638 373.967 370.335H374.673C374.673 370.503 374.714 370.649 374.797 370.775C374.882 370.898 374.998 370.994 375.144 371.064C375.291 371.133 375.457 371.168 375.644 371.168C375.851 371.168 376.026 371.124 376.17 371.038C376.315 370.951 376.425 370.824 376.5 370.656C376.577 370.486 376.616 370.279 376.616 370.034V365.802ZM379.984 371.827C379.703 371.827 379.447 371.774 379.218 371.668C378.989 371.56 378.806 371.405 378.671 371.202C378.537 370.998 378.469 370.751 378.469 370.462C378.469 370.208 378.519 370.002 378.619 369.844C378.72 369.684 378.854 369.558 379.021 369.468C379.189 369.377 379.374 369.31 379.576 369.265C379.781 369.219 379.986 369.182 380.192 369.155C380.462 369.121 380.681 369.095 380.849 369.077C381.018 369.058 381.142 369.026 381.219 368.982C381.298 368.938 381.337 368.861 381.337 368.751V368.728C381.337 368.442 381.259 368.221 381.103 368.063C380.949 367.904 380.715 367.825 380.4 367.825C380.075 367.825 379.819 367.897 379.634 368.039C379.449 368.182 379.319 368.334 379.244 368.496L378.596 368.265C378.712 367.995 378.866 367.785 379.059 367.635C379.254 367.482 379.466 367.376 379.695 367.317C379.926 367.255 380.154 367.224 380.377 367.224C380.52 367.224 380.684 367.241 380.869 367.276C381.056 367.309 381.236 367.377 381.41 367.481C381.585 367.585 381.73 367.743 381.846 367.953C381.962 368.163 382.02 368.444 382.02 368.797V371.723H381.337V371.122H381.303C381.256 371.218 381.179 371.321 381.071 371.431C380.963 371.541 380.82 371.634 380.64 371.711C380.461 371.788 380.242 371.827 379.984 371.827ZM380.088 371.214C380.358 371.214 380.586 371.161 380.771 371.055C380.958 370.949 381.098 370.812 381.193 370.644C381.289 370.477 381.337 370.3 381.337 370.115V369.491C381.308 369.526 381.245 369.557 381.146 369.586C381.05 369.613 380.938 369.637 380.811 369.659C380.686 369.678 380.563 369.695 380.444 369.711C380.326 369.724 380.231 369.736 380.158 369.745C379.98 369.768 379.814 369.806 379.66 369.858C379.508 369.908 379.385 369.984 379.29 370.086C379.198 370.187 379.151 370.324 379.151 370.497C379.151 370.734 379.239 370.913 379.415 371.035C379.592 371.154 379.816 371.214 380.088 371.214ZM383.947 369.051V371.723H383.265V367.282H383.924V367.976H383.982C384.086 367.75 384.244 367.569 384.456 367.432C384.668 367.293 384.942 367.224 385.277 367.224C385.578 367.224 385.841 367.286 386.067 367.409C386.292 367.531 386.468 367.716 386.593 367.964C386.718 368.211 386.781 368.523 386.781 368.901V371.723H386.098V368.947C386.098 368.598 386.008 368.327 385.827 368.132C385.646 367.935 385.397 367.837 385.081 367.837C384.863 367.837 384.668 367.884 384.497 367.979C384.327 368.073 384.193 368.211 384.095 368.392C383.997 368.573 383.947 368.793 383.947 369.051ZM392.203 371.804C391.806 371.804 391.455 371.734 391.15 371.593C390.848 371.45 390.612 371.255 390.442 371.006C390.272 370.755 390.188 370.47 390.19 370.15C390.188 369.899 390.238 369.668 390.338 369.456C390.438 369.242 390.575 369.064 390.748 368.921C390.924 368.777 391.119 368.685 391.335 368.647V368.612C391.052 368.539 390.826 368.38 390.659 368.135C390.491 367.888 390.408 367.608 390.41 367.293C390.408 366.993 390.484 366.724 390.639 366.487C390.793 366.25 391.005 366.063 391.275 365.926C391.546 365.789 391.856 365.721 392.203 365.721C392.546 365.721 392.852 365.789 393.122 365.926C393.392 366.063 393.604 366.25 393.758 366.487C393.914 366.724 393.993 366.993 393.995 367.293C393.993 367.608 393.908 367.888 393.738 368.135C393.57 368.38 393.348 368.539 393.07 368.612V368.647C393.284 368.685 393.477 368.777 393.648 368.921C393.82 369.064 393.957 369.242 394.059 369.456C394.161 369.668 394.213 369.899 394.215 370.15C394.213 370.47 394.126 370.755 393.955 371.006C393.785 371.255 393.549 371.45 393.246 371.593C392.946 371.734 392.598 371.804 392.203 371.804ZM392.203 371.168C392.471 371.168 392.702 371.124 392.897 371.038C393.091 370.951 393.242 370.829 393.348 370.67C393.454 370.512 393.508 370.327 393.51 370.115C393.508 369.892 393.45 369.694 393.336 369.523C393.222 369.351 393.067 369.216 392.871 369.118C392.676 369.02 392.453 368.97 392.203 368.97C391.95 368.97 391.725 369.02 391.526 369.118C391.33 369.216 391.174 369.351 391.061 369.523C390.949 369.694 390.894 369.892 390.896 370.115C390.894 370.327 390.945 370.512 391.049 370.67C391.155 370.829 391.306 370.951 391.503 371.038C391.7 371.124 391.933 371.168 392.203 371.168ZM392.203 368.357C392.415 368.357 392.603 368.315 392.767 368.23C392.932 368.145 393.062 368.027 393.157 367.875C393.251 367.722 393.299 367.544 393.301 367.34C393.299 367.139 393.252 366.965 393.16 366.816C393.067 366.666 392.939 366.55 392.775 366.469C392.611 366.387 392.421 366.345 392.203 366.345C391.981 366.345 391.787 366.387 391.622 366.469C391.456 366.55 391.328 366.666 391.237 366.816C391.146 366.965 391.102 367.139 391.104 367.34C391.102 367.544 391.147 367.722 391.24 367.875C391.334 368.027 391.464 368.145 391.63 368.23C391.796 368.315 391.987 368.357 392.203 368.357Z" fill="#686868"/>
<path d="M406.305 365.802H407.022V370.034C407.022 370.412 406.953 370.733 406.814 370.997C406.675 371.261 406.479 371.462 406.227 371.599C405.974 371.735 405.677 371.804 405.334 371.804C405.01 371.804 404.722 371.745 404.469 371.627C404.217 371.508 404.018 371.338 403.873 371.119C403.729 370.899 403.657 370.638 403.657 370.335H404.362C404.362 370.503 404.403 370.649 404.486 370.775C404.571 370.898 404.687 370.994 404.833 371.064C404.98 371.133 405.147 371.168 405.334 371.168C405.54 371.168 405.715 371.124 405.86 371.038C406.004 370.951 406.114 370.824 406.189 370.656C406.266 370.486 406.305 370.279 406.305 370.034V365.802ZM409.673 371.827C409.392 371.827 409.137 371.774 408.907 371.668C408.678 371.56 408.496 371.405 408.361 371.202C408.226 370.998 408.158 370.751 408.158 370.462C408.158 370.208 408.208 370.002 408.309 369.844C408.409 369.684 408.543 369.558 408.711 369.468C408.878 369.377 409.063 369.31 409.266 369.265C409.47 369.219 409.675 369.182 409.882 369.155C410.151 369.121 410.37 369.095 410.538 369.077C410.707 369.058 410.831 369.026 410.908 368.982C410.987 368.938 411.026 368.861 411.026 368.751V368.728C411.026 368.442 410.948 368.221 410.792 368.063C410.638 367.904 410.404 367.825 410.09 367.825C409.764 367.825 409.509 367.897 409.324 368.039C409.138 368.182 409.008 368.334 408.933 368.496L408.286 368.265C408.401 367.995 408.555 367.785 408.748 367.635C408.943 367.482 409.155 367.376 409.384 367.317C409.616 367.255 409.843 367.224 410.067 367.224C410.209 367.224 410.373 367.241 410.558 367.276C410.745 367.309 410.925 367.377 411.099 367.481C411.274 367.585 411.42 367.743 411.535 367.953C411.651 368.163 411.709 368.444 411.709 368.797V371.723H411.026V371.122H410.992C410.946 371.218 410.868 371.321 410.76 371.431C410.653 371.541 410.509 371.634 410.33 371.711C410.15 371.788 409.932 371.827 409.673 371.827ZM409.777 371.214C410.047 371.214 410.275 371.161 410.46 371.055C410.647 370.949 410.787 370.812 410.882 370.644C410.978 370.477 411.026 370.3 411.026 370.115V369.491C410.998 369.526 410.934 369.557 410.836 369.586C410.739 369.613 410.627 369.637 410.5 369.659C410.375 369.678 410.253 369.695 410.133 369.711C410.016 369.724 409.92 369.736 409.847 369.745C409.67 369.768 409.504 369.806 409.35 369.858C409.197 369.908 409.074 369.984 408.979 370.086C408.887 370.187 408.841 370.324 408.841 370.497C408.841 370.734 408.928 370.913 409.104 371.035C409.281 371.154 409.506 371.214 409.777 371.214ZM413.637 369.051V371.723H412.954V367.282H413.613V367.976H413.671C413.775 367.75 413.933 367.569 414.145 367.432C414.358 367.293 414.631 367.224 414.967 367.224C415.267 367.224 415.53 367.286 415.756 367.409C415.981 367.531 416.157 367.716 416.282 367.964C416.407 368.211 416.47 368.523 416.47 368.901V371.723H415.788V368.947C415.788 368.598 415.697 368.327 415.516 368.132C415.335 367.935 415.086 367.837 414.77 367.837C414.552 367.837 414.358 367.884 414.186 367.979C414.016 368.073 413.882 368.211 413.784 368.392C413.686 368.573 413.637 368.793 413.637 369.051ZM422.077 365.802V371.723H421.36V366.553H421.325L419.88 367.513V366.785L421.36 365.802H422.077ZM425.63 371.804C425.291 371.804 424.986 371.736 424.714 371.601C424.442 371.467 424.224 371.281 424.06 371.046C423.897 370.811 423.807 370.543 423.792 370.243H424.485C424.512 370.51 424.634 370.732 424.85 370.908C425.068 371.081 425.328 371.168 425.63 371.168C425.873 371.168 426.089 371.111 426.278 370.997C426.469 370.883 426.618 370.727 426.726 370.529C426.836 370.328 426.891 370.102 426.891 369.849C426.891 369.591 426.834 369.361 426.72 369.158C426.609 368.954 426.454 368.793 426.258 368.675C426.061 368.558 425.837 368.498 425.584 368.496C425.403 368.494 425.217 368.522 425.026 368.58C424.835 368.636 424.678 368.708 424.555 368.797L423.884 368.716L424.243 365.802H427.319V366.438H424.844L424.636 368.184H424.671C424.792 368.088 424.944 368.008 425.127 367.944C425.31 367.88 425.501 367.849 425.7 367.849C426.062 367.849 426.385 367.935 426.668 368.109C426.954 368.28 427.177 368.515 427.339 368.814C427.503 369.113 427.585 369.454 427.585 369.838C427.585 370.216 427.5 370.553 427.331 370.85C427.163 371.145 426.932 371.378 426.637 371.549C426.342 371.719 426.006 371.804 425.63 371.804Z" fill="#686868"/>
<path d="M437.294 365.802H438.011V370.034C438.011 370.412 437.942 370.733 437.803 370.997C437.664 371.261 437.469 371.462 437.216 371.599C436.964 371.735 436.666 371.804 436.323 371.804C435.999 371.804 435.711 371.745 435.458 371.627C435.206 371.508 435.007 371.338 434.863 371.119C434.718 370.899 434.646 370.638 434.646 370.335H435.351C435.351 370.503 435.393 370.649 435.476 370.775C435.561 370.898 435.676 370.994 435.823 371.064C435.969 371.133 436.136 371.168 436.323 371.168C436.529 371.168 436.704 371.124 436.849 371.038C436.994 370.951 437.103 370.824 437.179 370.656C437.256 370.486 437.294 370.279 437.294 370.034V365.802ZM440.663 371.827C440.381 371.827 440.126 371.774 439.896 371.668C439.667 371.56 439.485 371.405 439.35 371.202C439.215 370.998 439.148 370.751 439.148 370.462C439.148 370.208 439.198 370.002 439.298 369.844C439.398 369.684 439.532 369.558 439.7 369.468C439.868 369.377 440.053 369.31 440.255 369.265C440.459 369.219 440.665 369.182 440.871 369.155C441.141 369.121 441.359 369.095 441.527 369.077C441.697 369.058 441.82 369.026 441.897 368.982C441.976 368.938 442.016 368.861 442.016 368.751V368.728C442.016 368.442 441.938 368.221 441.782 368.063C441.627 367.904 441.393 367.825 441.079 367.825C440.753 367.825 440.498 367.897 440.313 368.039C440.128 368.182 439.998 368.334 439.923 368.496L439.275 368.265C439.391 367.995 439.545 367.785 439.737 367.635C439.932 367.482 440.144 367.376 440.374 367.317C440.605 367.255 440.832 367.224 441.056 367.224C441.199 367.224 441.362 367.241 441.547 367.276C441.734 367.309 441.915 367.377 442.088 367.481C442.263 367.585 442.409 367.743 442.525 367.953C442.64 368.163 442.698 368.444 442.698 368.797V371.723H442.016V371.122H441.981C441.935 371.218 441.858 371.321 441.75 371.431C441.642 371.541 441.498 371.634 441.319 371.711C441.14 371.788 440.921 371.827 440.663 371.827ZM440.767 371.214C441.037 371.214 441.264 371.161 441.449 371.055C441.636 370.949 441.777 370.812 441.871 370.644C441.968 370.477 442.016 370.3 442.016 370.115V369.491C441.987 369.526 441.923 369.557 441.825 369.586C441.729 369.613 441.617 369.637 441.49 369.659C441.364 369.678 441.242 369.695 441.122 369.711C441.005 369.724 440.909 369.736 440.836 369.745C440.659 369.768 440.493 369.806 440.339 369.858C440.187 369.908 440.063 369.984 439.969 370.086C439.876 370.187 439.83 370.324 439.83 370.497C439.83 370.734 439.918 370.913 440.093 371.035C440.27 371.154 440.495 371.214 440.767 371.214ZM444.626 369.051V371.723H443.944V367.282H444.603V367.976H444.661C444.765 367.75 444.923 367.569 445.135 367.432C445.347 367.293 445.621 367.224 445.956 367.224C446.257 367.224 446.52 367.286 446.745 367.409C446.971 367.531 447.146 367.716 447.271 367.964C447.397 368.211 447.459 368.523 447.459 368.901V371.723H446.777V368.947C446.777 368.598 446.686 368.327 446.505 368.132C446.324 367.935 446.075 367.837 445.759 367.837C445.542 367.837 445.347 367.884 445.175 367.979C445.006 368.073 444.872 368.211 444.773 368.392C444.675 368.573 444.626 368.793 444.626 369.051ZM450.985 371.723V371.202L452.939 369.063C453.169 368.812 453.357 368.595 453.506 368.409C453.654 368.223 453.764 368.047 453.835 367.883C453.909 367.717 453.945 367.544 453.945 367.363C453.945 367.155 453.895 366.974 453.795 366.822C453.697 366.67 453.562 366.552 453.39 366.469C453.219 366.387 453.026 366.345 452.812 366.345C452.584 366.345 452.386 366.392 452.216 366.487C452.049 366.579 451.919 366.709 451.826 366.877C451.735 367.045 451.69 367.241 451.69 367.467H451.008C451.008 367.12 451.088 366.815 451.248 366.553C451.408 366.291 451.626 366.087 451.901 365.94C452.179 365.794 452.49 365.721 452.835 365.721C453.182 365.721 453.489 365.794 453.757 365.94C454.025 366.087 454.235 366.284 454.388 366.533C454.54 366.782 454.616 367.058 454.616 367.363C454.616 367.581 454.577 367.794 454.498 368.002C454.42 368.208 454.286 368.438 454.093 368.693C453.902 368.945 453.637 369.254 453.298 369.618L451.968 371.041V371.087H454.72V371.723H450.985ZM455.914 371.723V371.202L457.869 369.063C458.098 368.812 458.287 368.595 458.435 368.409C458.584 368.223 458.694 368.047 458.765 367.883C458.838 367.717 458.875 367.544 458.875 367.363C458.875 367.155 458.825 366.974 458.725 366.822C458.626 366.67 458.491 366.552 458.32 366.469C458.148 366.387 457.956 366.345 457.742 366.345C457.514 366.345 457.316 366.392 457.146 366.487C456.978 366.579 456.848 366.709 456.756 366.877C456.665 367.045 456.62 367.241 456.62 367.467H455.937C455.937 367.12 456.017 366.815 456.177 366.553C456.337 366.291 456.555 366.087 456.831 365.94C457.108 365.794 457.42 365.721 457.765 365.721C458.112 365.721 458.419 365.794 458.687 365.94C458.955 366.087 459.165 366.284 459.317 366.533C459.47 366.782 459.546 367.058 459.546 367.363C459.546 367.581 459.506 367.794 459.427 368.002C459.35 368.208 459.215 368.438 459.022 368.693C458.832 368.945 458.567 369.254 458.227 369.618L456.897 371.041V371.087H459.65V371.723H455.914Z" fill="#686868"/>
<path d="M474.919 365.802H475.636V370.034C475.636 370.412 475.566 370.733 475.428 370.997C475.289 371.261 475.093 371.462 474.841 371.599C474.588 371.735 474.29 371.804 473.947 371.804C473.623 371.804 473.335 371.745 473.083 371.627C472.83 371.508 472.632 371.338 472.487 371.119C472.343 370.899 472.27 370.638 472.27 370.335H472.976C472.976 370.503 473.017 370.649 473.1 370.775C473.185 370.898 473.301 370.994 473.447 371.064C473.594 371.133 473.76 371.168 473.947 371.168C474.154 371.168 474.329 371.124 474.473 371.038C474.618 370.951 474.728 370.824 474.803 370.656C474.88 370.486 474.919 370.279 474.919 370.034V365.802ZM478.287 371.827C478.006 371.827 477.75 371.774 477.521 371.668C477.292 371.56 477.109 371.405 476.974 371.202C476.84 370.998 476.772 370.751 476.772 370.462C476.772 370.208 476.822 370.002 476.922 369.844C477.023 369.684 477.157 369.558 477.324 369.468C477.492 369.377 477.677 369.31 477.879 369.265C478.084 369.219 478.289 369.182 478.495 369.155C478.765 369.121 478.984 369.095 479.152 369.077C479.321 369.058 479.445 369.026 479.522 368.982C479.601 368.938 479.64 368.861 479.64 368.751V368.728C479.64 368.442 479.562 368.221 479.406 368.063C479.252 367.904 479.018 367.825 478.703 367.825C478.378 367.825 478.122 367.897 477.937 368.039C477.752 368.182 477.622 368.334 477.547 368.496L476.899 368.265C477.015 367.995 477.169 367.785 477.362 367.635C477.557 367.482 477.769 367.376 477.998 367.317C478.229 367.255 478.457 367.224 478.68 367.224C478.823 367.224 478.987 367.241 479.172 367.276C479.359 367.309 479.539 367.377 479.713 367.481C479.888 367.585 480.033 367.743 480.149 367.953C480.265 368.163 480.323 368.444 480.323 368.797V371.723H479.64V371.122H479.606C479.559 371.218 479.482 371.321 479.374 371.431C479.266 371.541 479.123 371.634 478.943 371.711C478.764 371.788 478.545 371.827 478.287 371.827ZM478.391 371.214C478.661 371.214 478.888 371.161 479.074 371.055C479.261 370.949 479.401 370.812 479.496 370.644C479.592 370.477 479.64 370.3 479.64 370.115V369.491C479.611 369.526 479.548 369.557 479.449 369.586C479.353 369.613 479.241 369.637 479.114 369.659C478.989 369.678 478.866 369.695 478.747 369.711C478.629 369.724 478.534 369.736 478.461 369.745C478.283 369.768 478.117 369.806 477.963 369.858C477.811 369.908 477.688 369.984 477.593 370.086C477.501 370.187 477.454 370.324 477.454 370.497C477.454 370.734 477.542 370.913 477.718 371.035C477.895 371.154 478.119 371.214 478.391 371.214ZM482.25 369.051V371.723H481.568V367.282H482.227V367.976H482.285C482.389 367.75 482.547 367.569 482.759 367.432C482.971 367.293 483.245 367.224 483.58 367.224C483.881 367.224 484.144 367.286 484.37 367.409C484.595 367.531 484.771 367.716 484.896 367.964C485.021 368.211 485.084 368.523 485.084 368.901V371.723H484.401V368.947C484.401 368.598 484.311 368.327 484.13 368.132C483.949 367.935 483.7 367.837 483.384 367.837C483.166 367.837 482.971 367.884 482.8 367.979C482.63 368.073 482.496 368.211 482.398 368.392C482.299 368.573 482.25 368.793 482.25 369.051ZM474.428 379.723V379.202L476.383 377.063C476.612 376.812 476.801 376.595 476.95 376.409C477.098 376.223 477.208 376.047 477.279 375.883C477.352 375.717 477.389 375.544 477.389 375.363C477.389 375.155 477.339 374.974 477.239 374.822C477.14 374.67 477.005 374.552 476.834 374.469C476.662 374.387 476.47 374.345 476.256 374.345C476.028 374.345 475.83 374.392 475.66 374.487C475.492 374.579 475.362 374.709 475.27 374.877C475.179 375.045 475.134 375.241 475.134 375.467H474.451C474.451 375.12 474.531 374.815 474.691 374.553C474.851 374.291 475.069 374.087 475.345 373.94C475.622 373.794 475.934 373.721 476.279 373.721C476.626 373.721 476.933 373.794 477.201 373.94C477.469 374.087 477.679 374.284 477.831 374.533C477.984 374.782 478.06 375.058 478.06 375.363C478.06 375.581 478.02 375.794 477.941 376.002C477.864 376.208 477.729 376.438 477.536 376.693C477.346 376.945 477.081 377.254 476.741 377.618L475.411 379.041V379.087H478.164V379.723H474.428ZM481.243 373.721C481.486 373.722 481.729 373.769 481.972 373.859C482.215 373.95 482.436 374.1 482.637 374.31C482.837 374.519 482.998 374.803 483.12 375.163C483.241 375.524 483.302 375.976 483.302 376.519C483.302 377.046 483.252 377.513 483.151 377.922C483.053 378.328 482.91 378.671 482.723 378.951C482.538 379.23 482.313 379.442 482.047 379.587C481.783 379.732 481.484 379.804 481.151 379.804C480.819 379.804 480.523 379.738 480.263 379.607C480.005 379.474 479.793 379.29 479.627 379.055C479.463 378.818 479.358 378.543 479.312 378.231H480.017C480.081 378.503 480.207 378.727 480.396 378.905C480.587 379.08 480.838 379.168 481.151 379.168C481.607 379.168 481.968 378.968 482.232 378.569C482.498 378.17 482.631 377.606 482.631 376.878H482.585C482.477 377.04 482.349 377.18 482.2 377.297C482.052 377.415 481.887 377.505 481.706 377.569C481.525 377.632 481.332 377.664 481.127 377.664C480.788 377.664 480.477 377.58 480.194 377.413C479.912 377.243 479.687 377.011 479.517 376.716C479.349 376.419 479.265 376.08 479.265 375.698C479.265 375.336 479.346 375.004 479.508 374.704C479.672 374.401 479.902 374.16 480.196 373.981C480.493 373.802 480.842 373.715 481.243 373.721ZM481.243 374.357C481 374.357 480.781 374.417 480.587 374.539C480.394 374.658 480.241 374.82 480.127 375.025C480.015 375.227 479.959 375.451 479.959 375.698C479.959 375.945 480.013 376.169 480.121 376.372C480.231 376.572 480.381 376.732 480.569 376.852C480.76 376.969 480.977 377.028 481.22 377.028C481.403 377.028 481.574 376.993 481.732 376.921C481.89 376.848 482.028 376.749 482.145 376.623C482.265 376.496 482.358 376.353 482.426 376.193C482.493 376.031 482.527 375.862 482.527 375.687C482.527 375.455 482.471 375.238 482.359 375.036C482.249 374.834 482.097 374.67 481.902 374.545C481.71 374.419 481.49 374.357 481.243 374.357Z" fill="#686868"/>
</g>
<path d="M478.82 354.138V357.395" stroke="#D9DBDB" stroke-width="0.814189" stroke-linecap="square"/>
<path d="M352.621 354.138V357.395" stroke="#D9DBDB" stroke-width="0.814189" stroke-linecap="square"/>
<path d="M384.171 354.138V357.395" stroke="#D9DBDB" stroke-width="0.814189" stroke-linecap="square"/>
<path d="M415.721 354.138V357.395" stroke="#D9DBDB" stroke-width="0.814189" stroke-linecap="square"/>
<path d="M447.271 354.138V357.395" stroke="#D9DBDB" stroke-width="0.814189" stroke-linecap="square"/>
<g clip-path="url(#clip2_263_675)">
<path d="M322.598 362.405C322.162 362.405 321.791 362.287 321.485 362.05C321.178 361.811 320.944 361.465 320.782 361.012C320.62 360.557 320.54 360.007 320.54 359.364C320.54 358.724 320.62 358.177 320.782 357.724C320.946 357.269 321.181 356.922 321.488 356.683C321.796 356.442 322.166 356.322 322.598 356.322C323.03 356.322 323.399 356.442 323.705 356.683C324.014 356.922 324.249 357.269 324.411 357.724C324.575 358.177 324.657 358.724 324.657 359.364C324.657 360.007 324.576 360.557 324.414 361.012C324.252 361.465 324.018 361.811 323.711 362.05C323.405 362.287 323.034 362.405 322.598 362.405ZM322.598 361.769C323.03 361.769 323.365 361.561 323.604 361.145C323.843 360.728 323.963 360.135 323.963 359.364C323.963 358.851 323.908 358.414 323.798 358.054C323.69 357.693 323.534 357.419 323.33 357.23C323.127 357.041 322.883 356.946 322.598 356.946C322.17 356.946 321.836 357.157 321.595 357.58C321.354 358 321.233 358.594 321.233 359.364C321.233 359.876 321.287 360.312 321.395 360.67C321.503 361.029 321.658 361.302 321.861 361.489C322.065 361.676 322.311 361.769 322.598 361.769ZM327.687 362.405C327.251 362.405 326.88 362.287 326.574 362.05C326.267 361.811 326.033 361.465 325.871 361.012C325.709 360.557 325.628 360.007 325.628 359.364C325.628 358.724 325.709 358.177 325.871 357.724C326.035 357.269 326.27 356.922 326.577 356.683C326.885 356.442 327.255 356.322 327.687 356.322C328.119 356.322 328.488 356.442 328.794 356.683C329.103 356.922 329.338 357.269 329.5 357.724C329.663 358.177 329.745 358.724 329.745 359.364C329.745 360.007 329.664 360.557 329.503 361.012C329.341 361.465 329.106 361.811 328.8 362.05C328.493 362.287 328.122 362.405 327.687 362.405ZM327.687 361.769C328.119 361.769 328.454 361.561 328.693 361.145C328.932 360.728 329.051 360.135 329.051 359.364C329.051 358.851 328.997 358.414 328.887 358.054C328.779 357.693 328.623 357.419 328.418 357.23C328.216 357.041 327.972 356.946 327.687 356.946C327.259 356.946 326.924 357.157 326.684 357.58C326.443 358 326.322 358.594 326.322 359.364C326.322 359.876 326.376 360.312 326.484 360.67C326.592 361.029 326.747 361.302 326.95 361.489C327.154 361.676 327.4 361.769 327.687 361.769Z" fill="#686868"/>
<path d="M322.748 314.879V320.801H322.031V315.631H321.997L320.551 316.591V315.862L322.031 314.879H322.748ZM326.302 320.882C325.963 320.882 325.657 320.814 325.385 320.679C325.114 320.544 324.896 320.359 324.732 320.124C324.568 319.889 324.478 319.621 324.463 319.32H325.157C325.184 319.588 325.305 319.81 325.521 319.985C325.739 320.159 325.999 320.246 326.302 320.246C326.545 320.246 326.761 320.189 326.95 320.075C327.14 319.961 327.29 319.805 327.398 319.607C327.508 319.406 327.562 319.18 327.562 318.927C327.562 318.669 327.506 318.439 327.392 318.236C327.28 318.032 327.126 317.871 326.929 317.753C326.733 317.636 326.508 317.576 326.256 317.574C326.074 317.572 325.888 317.6 325.698 317.658C325.507 317.714 325.35 317.786 325.226 317.875L324.556 317.794L324.914 314.879H327.99V315.515H325.515L325.307 317.262H325.342C325.463 317.165 325.616 317.085 325.799 317.022C325.982 316.958 326.173 316.926 326.371 316.926C326.734 316.926 327.056 317.013 327.34 317.187C327.625 317.358 327.849 317.593 328.011 317.892C328.174 318.191 328.256 318.532 328.256 318.916C328.256 319.293 328.172 319.631 328.002 319.928C327.834 320.223 327.603 320.456 327.308 320.627C327.013 320.797 326.678 320.882 326.302 320.882ZM330.053 319.182L330.041 318.337H330.18L332.123 316.36H332.967L330.897 318.453H330.839L330.053 319.182ZM329.417 320.801V314.879H330.099V320.801H329.417ZM332.238 320.801L330.504 318.603L330.989 318.129L333.106 320.801H332.238Z" fill="#686868"/>
<path d="M322.668 279.358C322.286 279.358 321.946 279.293 321.647 279.161C321.35 279.03 321.114 278.848 320.939 278.615C320.765 278.38 320.671 278.107 320.655 277.797H321.384C321.399 277.988 321.465 278.152 321.581 278.291C321.696 278.428 321.847 278.534 322.034 278.609C322.221 278.684 322.429 278.722 322.656 278.722C322.911 278.722 323.136 278.678 323.333 278.589C323.529 278.5 323.683 278.377 323.795 278.219C323.907 278.061 323.963 277.878 323.963 277.67C323.963 277.452 323.909 277.26 323.801 277.094C323.693 276.926 323.535 276.795 323.327 276.701C323.119 276.607 322.864 276.559 322.564 276.559H322.089V275.923H322.564C322.799 275.923 323.005 275.881 323.182 275.796C323.362 275.711 323.501 275.592 323.602 275.437C323.704 275.283 323.755 275.102 323.755 274.894C323.755 274.693 323.71 274.519 323.622 274.371C323.533 274.222 323.408 274.106 323.246 274.024C323.086 273.941 322.897 273.899 322.679 273.899C322.475 273.899 322.282 273.937 322.101 274.012C321.922 274.085 321.775 274.192 321.661 274.333C321.548 274.472 321.486 274.639 321.476 274.836H320.783C320.794 274.526 320.888 274.254 321.063 274.021C321.238 273.786 321.468 273.602 321.751 273.471C322.036 273.34 322.35 273.275 322.691 273.275C323.057 273.275 323.371 273.349 323.633 273.497C323.895 273.644 324.097 273.838 324.238 274.079C324.378 274.319 324.449 274.58 324.449 274.859C324.449 275.193 324.361 275.477 324.186 275.712C324.012 275.947 323.776 276.11 323.477 276.201V276.247C323.851 276.309 324.143 276.468 324.353 276.724C324.563 276.979 324.668 277.294 324.668 277.67C324.668 277.991 324.581 278.281 324.405 278.537C324.232 278.791 323.995 278.992 323.694 279.138C323.393 279.285 323.051 279.358 322.668 279.358ZM327.782 279.358C327.347 279.358 326.976 279.24 326.669 279.002C326.363 278.763 326.129 278.417 325.967 277.964C325.805 277.51 325.724 276.96 325.724 276.316C325.724 275.676 325.805 275.13 325.967 274.677C326.13 274.222 326.366 273.875 326.672 273.636C326.981 273.395 327.351 273.275 327.782 273.275C328.214 273.275 328.583 273.395 328.89 273.636C329.198 273.875 329.433 274.222 329.595 274.677C329.759 275.13 329.841 275.676 329.841 276.316C329.841 276.96 329.76 277.51 329.598 277.964C329.436 278.417 329.202 278.763 328.896 279.002C328.589 279.24 328.218 279.358 327.782 279.358ZM327.782 278.722C328.214 278.722 328.55 278.514 328.789 278.097C329.028 277.681 329.147 277.087 329.147 276.316C329.147 275.804 329.092 275.367 328.982 275.007C328.874 274.646 328.718 274.372 328.514 274.183C328.311 273.994 328.068 273.899 327.782 273.899C327.354 273.899 327.02 274.11 326.779 274.532C326.538 274.953 326.418 275.547 326.418 276.316C326.418 276.829 326.472 277.265 326.58 277.623C326.688 277.982 326.843 278.255 327.045 278.442C327.249 278.628 327.495 278.722 327.782 278.722ZM331.587 277.658L331.576 276.814H331.715L333.657 274.836H334.502L332.432 276.929H332.374L331.587 277.658ZM330.951 279.277V273.356H331.634V279.277H330.951ZM333.773 279.277L332.038 277.08L332.524 276.606L334.641 279.277H333.773Z" fill="#686868"/>
</g>
<path d="M349.365 291.288C349.365 291.288 351.122 282.839 353.85 284.093C356.577 285.347 357.71 294.55 358.334 295.411C358.959 296.272 361.618 295.774 362.819 296.46C364.02 297.145 365.675 299.86 367.277 299.588C368.879 299.315 369.602 296.51 371.788 296.46C373.975 296.41 374.58 298.586 376.273 299.381C377.966 300.176 379.583 300.133 380.758 300.675C381.932 301.216 383.621 307.186 385.242 307.779C386.864 308.372 389.727 303.955 389.727 303.955C389.727 303.955 393.339 297.291 394.212 296.46C395.084 295.629 395.92 294.491 398.696 295.411C401.473 296.331 403.101 301.216 403.916 304.473C404.73 307.73 407.066 322.063 407.666 323.222C408.265 324.382 412.057 319.942 412.057 319.942C412.057 319.942 414.5 316.686 416.635 313.708C418.77 310.73 420.834 292.003 421.12 291.288C421.405 290.574 424.496 291.945 425.604 291.288C426.713 290.632 428.838 283.995 430.089 282.299C431.34 280.603 433.217 279.602 434.574 279.122C435.93 278.641 437.563 278.196 439.058 279.122C440.554 280.047 441.368 281.676 442.182 284.118C442.997 286.561 446.132 317.604 448.028 320.405C449.924 323.207 453.581 299.588 453.581 299.588C453.581 299.588 454.473 295.047 456.997 295.411C459.521 295.775 460.276 300.141 461.482 300.675C462.687 301.208 466.608 298.774 466.608 298.774C466.608 298.774 469.021 296.926 470.451 296.46C471.881 295.994 473.493 295.774 474.936 296.46C476.378 297.145 479.42 300.675 479.42 300.675" stroke="#FE5A51" stroke-width="1.62838"/>
<path fill-rule="evenodd" clip-rule="evenodd" d="M421.014 289.817C421.913 289.817 422.642 290.547 422.642 291.446C422.642 292.345 421.913 293.074 421.014 293.074C420.114 293.074 419.385 292.345 419.385 291.446C419.385 290.547 420.114 289.817 421.014 289.817Z" fill="#FE5A51"/>
<path fill-rule="evenodd" clip-rule="evenodd" d="M349.365 289.003C350.264 289.003 350.993 289.733 350.993 290.632C350.993 291.531 350.264 292.26 349.365 292.26C348.466 292.26 347.737 291.531 347.737 290.632C347.737 289.733 348.466 289.003 349.365 289.003Z" fill="#FE5A51"/>
<path fill-rule="evenodd" clip-rule="evenodd" d="M434.855 277.605C435.754 277.605 436.483 278.334 436.483 279.233C436.483 280.133 435.754 280.862 434.855 280.862C433.955 280.862 433.226 280.133 433.226 279.233C433.226 278.334 433.955 277.605 434.855 277.605Z" fill="#FE5A51"/>
<path fill-rule="evenodd" clip-rule="evenodd" d="M386.003 306.101C386.903 306.101 387.632 306.83 387.632 307.73C387.632 308.629 386.903 309.358 386.003 309.358C385.104 309.358 384.375 308.629 384.375 307.73C384.375 306.83 385.104 306.101 386.003 306.101Z" fill="#FE5A51"/>
<path fill-rule="evenodd" clip-rule="evenodd" d="M367.277 297.96C368.176 297.96 368.905 298.689 368.905 299.588C368.905 300.487 368.176 301.216 367.277 301.216C366.378 301.216 365.649 300.487 365.649 299.588C365.649 298.689 366.378 297.96 367.277 297.96Z" fill="#FE5A51"/>
<path fill-rule="evenodd" clip-rule="evenodd" d="M479.635 298.774C480.534 298.774 481.264 299.503 481.264 300.402C481.264 301.301 480.534 302.031 479.635 302.031C478.736 302.031 478.007 301.301 478.007 300.402C478.007 299.503 478.736 298.774 479.635 298.774Z" fill="#FE5A51"/>
<path fill-rule="evenodd" clip-rule="evenodd" d="M462.537 298.774C463.437 298.774 464.166 299.503 464.166 300.402C464.166 301.301 463.437 302.031 462.537 302.031C461.638 302.031 460.909 301.301 460.909 300.402C460.909 299.503 461.638 298.774 462.537 298.774Z" fill="#FE5A51"/>
<path fill-rule="evenodd" clip-rule="evenodd" d="M448.696 319.128C449.595 319.128 450.324 319.858 450.324 320.757C450.324 321.656 449.595 322.385 448.696 322.385C447.797 322.385 447.068 321.656 447.068 320.757C447.068 319.858 447.797 319.128 448.696 319.128Z" fill="#FE5A51"/>
<path fill-rule="evenodd" clip-rule="evenodd" d="M407.987 321.571C408.886 321.571 409.615 322.3 409.615 323.199C409.615 324.099 408.886 324.828 407.987 324.828C407.087 324.828 406.358 324.099 406.358 323.199C406.358 322.3 407.087 321.571 407.987 321.571Z" fill="#FE5A51"/>
<path fill-rule="evenodd" clip-rule="evenodd" d="M397.402 293.074C398.301 293.074 399.03 293.803 399.03 294.703C399.03 295.602 398.301 296.331 397.402 296.331C396.503 296.331 395.774 295.602 395.774 294.703C395.774 293.803 396.503 293.074 397.402 293.074Z" fill="#FE5A51"/>
<defs>
<filter id="filter0_d_263_675" x="0.459459" y="0.22973" width="421.081" height="404.081" filterUnits="userSpaceOnUse" color-interpolation-filters="sRGB">
<feFlood flood-opacity="0" result="BackgroundImageFix"/>
<feColorMatrix in="SourceAlpha" type="matrix" values="0 0 0 0 0 0 0 0 0 0 0 0 0 0 0 0 0 0 127 0" result="hardAlpha"/>
<feOffset dy="2.77027"/>
<feGaussianBlur stdDeviation="2.77027"/>
<feColorMatrix type="matrix" values="0 0 0 0 0 0 0 0 0 0 0 0 0 0 0 0 0 0 0.1 0"/>
<feBlend mode="normal" in2="BackgroundImageFix" result="effect1_dropShadow_263_675"/>
<feBlend mode="normal" in="SourceGraphic" in2="effect1_dropShadow_263_675" result="shape"/>
</filter>
<filter id="filter1_d_263_675" x="288.46" y="194.23" width="252.08" height="239.08" filterUnits="userSpaceOnUse" color-interpolation-filters="sRGB">
<feFlood flood-opacity="0" result="BackgroundImageFix"/>
<feColorMatrix in="SourceAlpha" type="matrix" values="0 0 0 0 0 0 0 0 0 0 0 0 0 0 0 0 0 0 127 0" result="hardAlpha"/>
<feOffset dy="2.77"/>
<feGaussianBlur stdDeviation="2.77"/>
<feColorMatrix type="matrix" values="0 0 0 0 0 0 0 0 0 0 0 0 0 0 0 0 0 0 0.1 0"/>
<feBlend mode="normal" in2="BackgroundImageFix" result="effect1_dropShadow_263_675"/>
<feBlend mode="normal" in="SourceGraphic" in2="effect1_dropShadow_263_675" result="shape"/>
</filter>
<clipPath id="clip0_263_675">
<rect width="44.3243" height="160.676" fill="white" transform="translate(48.9392 126.277)"/>
</clipPath>
<clipPath id="clip1_263_675">
<rect width="152.253" height="8.14189" fill="white" transform="translate(339.594 364.723)"/>
</clipPath>
<clipPath id="clip2_263_675">
<rect width="26.0541" height="94.4459" fill="white" transform="translate(320.054 270.277)"/>
</clipPath>
</defs>
</svg>
