<svg width="604" height="424" viewBox="0 0 604 424" fill="none" xmlns="http://www.w3.org/2000/svg">
<g filter="url(#filter0_d_263_674)">
<path fill-rule="evenodd" clip-rule="evenodd" d="M156.691 13.7636C156.691 7.81904 161.51 3 167.455 3H587.236C593.181 3 598 7.81904 598 13.7636V403.407C598 409.352 593.181 414.171 587.236 414.171H167.455C161.51 414.171 156.691 409.352 156.691 403.407V13.7636Z" fill="white"/>
<path d="M157.229 13.7636C157.229 8.11627 161.807 3.53818 167.455 3.53818H587.236C592.884 3.53818 597.462 8.11627 597.462 13.7636V403.407C597.462 409.055 592.884 413.633 587.236 413.633H167.455C161.807 413.633 157.229 409.055 157.229 403.407V13.7636Z" stroke="#DAE5F0" stroke-width="1.07636"/>
</g>
<rect x="204.051" y="48.2073" width="173.295" height="18.2982" rx="9.14909" fill="#ECE5E5"/>
<path d="M540.959 51.0762C541.178 51.0762 541.385 51.1182 541.581 51.2023C541.777 51.2864 541.948 51.4041 542.094 51.5555C542.246 51.7012 542.363 51.8722 542.447 52.0684C542.531 52.2646 542.573 52.4721 542.573 52.6907C542.573 52.9093 542.529 53.1168 542.439 53.313C542.355 53.5036 542.237 53.6746 542.086 53.8259C541.94 53.9717 541.769 54.0894 541.573 54.1791C541.382 54.2632 541.178 54.3052 540.959 54.3052C540.74 54.3052 540.533 54.2632 540.337 54.1791C540.146 54.0894 539.975 53.9717 539.824 53.8259C539.678 53.6746 539.56 53.5036 539.471 53.313C539.386 53.1168 539.344 52.9093 539.344 52.6907C539.344 52.4721 539.386 52.2674 539.471 52.0768C539.56 51.8806 539.678 51.7096 539.824 51.5639C539.975 51.4125 540.146 51.2948 540.337 51.2107C540.533 51.121 540.74 51.0762 540.959 51.0762ZM529.119 51.0762C529.338 51.0762 529.545 51.1182 529.741 51.2023C529.937 51.2864 530.108 51.4041 530.254 51.5555C530.406 51.7012 530.523 51.8722 530.607 52.0684C530.691 52.2646 530.733 52.4721 530.733 52.6907C530.733 52.9093 530.689 53.1168 530.599 53.313C530.515 53.5036 530.397 53.6746 530.246 53.8259C530.1 53.9717 529.929 54.0894 529.733 54.1791C529.542 54.2632 529.338 54.3052 529.119 54.3052C528.9 54.3052 528.693 54.2632 528.497 54.1791C528.306 54.0894 528.135 53.9717 527.984 53.8259C527.838 53.6746 527.72 53.5036 527.631 53.313C527.546 53.1168 527.504 52.9093 527.504 52.6907C527.504 52.4721 527.546 52.2674 527.631 52.0768C527.72 51.8806 527.838 51.7096 527.984 51.5639C528.135 51.4125 528.306 51.2948 528.497 51.2107C528.693 51.121 528.9 51.0762 529.119 51.0762ZM535.039 51.0762C535.258 51.0762 535.465 51.1182 535.661 51.2023C535.857 51.2864 536.028 51.4041 536.174 51.5555C536.326 51.7012 536.443 51.8722 536.527 52.0684C536.611 52.2646 536.653 52.4721 536.653 52.6907C536.653 52.9093 536.609 53.1168 536.519 53.313C536.435 53.5036 536.317 53.6746 536.166 53.8259C536.02 53.9717 535.849 54.0894 535.653 54.1791C535.462 54.2632 535.258 54.3052 535.039 54.3052C534.82 54.3052 534.613 54.2632 534.417 54.1791C534.226 54.0894 534.055 53.9717 533.904 53.8259C533.758 53.6746 533.64 53.5036 533.551 53.313C533.466 53.1168 533.424 52.9093 533.424 52.6907C533.424 52.4721 533.466 52.2674 533.551 52.0768C533.64 51.8806 533.758 51.7096 533.904 51.5639C534.055 51.4125 534.226 51.2948 534.417 51.2107C534.613 51.121 534.82 51.0762 535.039 51.0762Z" fill="#484848"/>
<rect x="493.593" y="103.102" width="55.9709" height="11.84" rx="5.92" fill="#FE5A51"/>
<rect x="346.131" y="103.102" width="55.9709" height="11.84" rx="5.92" fill="#D9DBDB"/>
<rect x="204.051" y="103.102" width="55.9709" height="11.84" rx="5.92" fill="#FF9D97"/>
<rect x="204.4" y="356.345" width="12.0885" height="11.9273" rx="5.96364" fill="#FE5A51"/>
<rect x="221.273" y="356.047" width="49.5127" height="11.84" rx="5.92" fill="#FE5A51"/>
<rect x="313.84" y="356.047" width="49.5127" height="11.84" rx="5.92" fill="#D9DBDB"/>
<rect x="295.346" y="356.345" width="12.0885" height="11.9273" rx="5.96364" fill="#D9DBDB"/>
<path d="M511.527 290.745V296.709" stroke="#D9DBDB" stroke-width="1.49091" stroke-linecap="square"/>
<path d="M281.927 290.745V296.709" stroke="#D9DBDB" stroke-width="1.49091" stroke-linecap="square"/>
<path d="M357.963 290.745V296.709" stroke="#D9DBDB" stroke-width="1.49091" stroke-linecap="square"/>
<path d="M435.491 290.745V296.709" stroke="#D9DBDB" stroke-width="1.49091" stroke-linecap="square"/>
<path d="M204.4 138.673H550.291" stroke="#D9DBDB" stroke-width="1.49091" stroke-linecap="square"/>
<path d="M204.4 214.709H550.291" stroke="#D9DBDB" stroke-width="1.49091" stroke-linecap="square"/>
<path d="M204.4 290.746H550.291" stroke="#D9DBDB" stroke-width="1.49091" stroke-linecap="square"/>
<g clip-path="url(#clip0_263_674)">
<path d="M209.059 305.403C208.261 305.403 207.582 305.186 207.021 304.752C206.459 304.314 206.031 303.68 205.734 302.851C205.438 302.018 205.289 301.012 205.289 299.833C205.289 298.661 205.438 297.661 205.734 296.831C206.034 295.998 206.465 295.363 207.026 294.925C207.591 294.484 208.268 294.263 209.059 294.263C209.85 294.263 210.525 294.484 211.087 294.925C211.651 295.363 212.082 295.998 212.379 296.831C212.679 297.661 212.829 298.661 212.829 299.833C212.829 301.012 212.68 302.018 212.384 302.851C212.087 303.68 211.658 304.314 211.097 304.752C210.536 305.186 209.857 305.403 209.059 305.403ZM209.059 304.238C209.85 304.238 210.464 303.857 210.901 303.095C211.339 302.332 211.558 301.245 211.558 299.833C211.558 298.894 211.457 298.095 211.256 297.435C211.058 296.775 210.773 296.272 210.398 295.926C210.028 295.58 209.581 295.407 209.059 295.407C208.275 295.407 207.663 295.794 207.222 296.566C206.781 297.336 206.56 298.425 206.56 299.833C206.56 300.772 206.659 301.57 206.856 302.226C207.054 302.883 207.338 303.382 207.709 303.725C208.083 304.067 208.533 304.238 209.059 304.238ZM218.377 305.403C217.579 305.403 216.9 305.186 216.339 304.752C215.778 304.314 215.349 303.68 215.052 302.851C214.756 302.018 214.607 301.012 214.607 299.833C214.607 298.661 214.756 297.661 215.052 296.831C215.352 295.998 215.783 295.363 216.344 294.925C216.909 294.484 217.586 294.263 218.377 294.263C219.168 294.263 219.844 294.484 220.405 294.925C220.97 295.363 221.4 295.998 221.697 296.831C221.997 297.661 222.147 298.661 222.147 299.833C222.147 301.012 221.998 302.018 221.702 302.851C221.406 303.68 220.977 304.314 220.415 304.752C219.854 305.186 219.175 305.403 218.377 305.403ZM218.377 304.238C219.168 304.238 219.782 303.857 220.22 303.095C220.657 302.332 220.876 301.245 220.876 299.833C220.876 298.894 220.775 298.095 220.574 297.435C220.377 296.775 220.091 296.272 219.717 295.926C219.346 295.58 218.899 295.407 218.377 295.407C217.594 295.407 216.981 295.794 216.54 296.566C216.099 297.336 215.878 298.425 215.878 299.833C215.878 300.772 215.977 301.57 216.175 302.226C216.372 302.883 216.656 303.382 217.027 303.725C217.401 304.067 217.851 304.238 218.377 304.238Z" fill="#686868"/>
<path d="M209.334 218.375V229.218H208.021V219.752H207.958L205.31 221.509V220.175L208.021 218.375H209.334ZM215.841 229.366C215.22 229.366 214.66 229.243 214.163 228.996C213.665 228.749 213.266 228.41 212.966 227.979C212.666 227.549 212.502 227.058 212.474 226.507H213.744C213.794 226.998 214.016 227.404 214.412 227.725C214.81 228.043 215.287 228.201 215.841 228.201C216.286 228.201 216.681 228.097 217.027 227.889C217.376 227.681 217.65 227.395 217.848 227.031C218.049 226.664 218.149 226.25 218.149 225.787C218.149 225.314 218.045 224.892 217.837 224.522C217.632 224.148 217.35 223.853 216.99 223.638C216.63 223.422 216.219 223.313 215.756 223.309C215.425 223.306 215.084 223.357 214.735 223.463C214.385 223.565 214.097 223.698 213.872 223.86L212.643 223.712L213.3 218.375H218.933V219.54H214.401L214.02 222.738H214.083C214.306 222.561 214.585 222.415 214.92 222.298C215.255 222.182 215.605 222.123 215.968 222.123C216.632 222.123 217.223 222.282 217.742 222.6C218.264 222.914 218.674 223.345 218.97 223.892C219.27 224.439 219.42 225.064 219.42 225.766C219.42 226.458 219.265 227.076 218.954 227.619C218.647 228.159 218.224 228.586 217.684 228.9C217.144 229.211 216.529 229.366 215.841 229.366ZM222.709 226.253L222.688 224.707H222.942L226.5 221.086H228.046L224.255 224.919H224.149L222.709 226.253ZM221.545 229.218V218.375H222.794V229.218H221.545ZM226.712 229.218L223.535 225.194L224.425 224.326L228.3 229.218H226.712Z" fill="#686868"/>
<path d="M209.186 153.33C208.487 153.33 207.864 153.21 207.317 152.97C206.774 152.73 206.341 152.396 206.02 151.969C205.702 151.539 205.529 151.039 205.501 150.471H206.835C206.864 150.82 206.984 151.122 207.195 151.376C207.407 151.627 207.684 151.821 208.027 151.959C208.369 152.096 208.748 152.165 209.165 152.165C209.631 152.165 210.044 152.084 210.404 151.922C210.764 151.759 211.046 151.533 211.251 151.244C211.456 150.954 211.558 150.619 211.558 150.238C211.558 149.839 211.459 149.488 211.261 149.184C211.064 148.877 210.774 148.637 210.393 148.464C210.012 148.291 209.546 148.205 208.995 148.205H208.127V147.04H208.995C209.426 147.04 209.804 146.962 210.128 146.807C210.457 146.652 210.713 146.433 210.896 146.151C211.083 145.868 211.177 145.536 211.177 145.155C211.177 144.788 211.096 144.469 210.933 144.197C210.771 143.925 210.541 143.713 210.245 143.562C209.952 143.41 209.606 143.334 209.207 143.334C208.833 143.334 208.48 143.403 208.148 143.54C207.82 143.675 207.552 143.871 207.344 144.128C207.135 144.382 207.022 144.689 207.005 145.049H205.734C205.755 144.481 205.926 143.983 206.248 143.556C206.569 143.126 206.989 142.79 207.508 142.55C208.03 142.31 208.604 142.19 209.228 142.19C209.899 142.19 210.474 142.326 210.954 142.598C211.434 142.866 211.803 143.221 212.061 143.662C212.319 144.103 212.447 144.58 212.447 145.092C212.447 145.702 212.287 146.223 211.966 146.654C211.648 147.084 211.216 147.382 210.668 147.548V147.633C211.353 147.746 211.888 148.037 212.273 148.507C212.657 148.973 212.85 149.55 212.85 150.238C212.85 150.827 212.689 151.357 212.368 151.826C212.05 152.292 211.616 152.659 211.066 152.928C210.515 153.196 209.888 153.33 209.186 153.33ZM218.552 153.33C217.754 153.33 217.075 153.113 216.514 152.679C215.952 152.241 215.523 151.607 215.227 150.778C214.93 149.945 214.782 148.939 214.782 147.76C214.782 146.588 214.93 145.588 215.227 144.758C215.527 143.925 215.958 143.29 216.519 142.852C217.084 142.411 217.761 142.19 218.552 142.19C219.342 142.19 220.018 142.411 220.58 142.852C221.144 143.29 221.575 143.925 221.871 144.758C222.171 145.588 222.321 146.588 222.321 147.76C222.321 148.939 222.173 149.945 221.877 150.778C221.58 151.607 221.151 152.241 220.59 152.679C220.029 153.113 219.35 153.33 218.552 153.33ZM218.552 152.165C219.342 152.165 219.957 151.784 220.394 151.022C220.832 150.259 221.051 149.172 221.051 147.76C221.051 146.821 220.95 146.022 220.749 145.362C220.551 144.702 220.265 144.199 219.891 143.853C219.521 143.507 219.074 143.334 218.552 143.334C217.768 143.334 217.156 143.721 216.715 144.493C216.273 145.263 216.053 146.352 216.053 147.76C216.053 148.699 216.152 149.497 216.349 150.153C216.547 150.81 216.831 151.309 217.202 151.652C217.576 151.994 218.026 152.165 218.552 152.165ZM225.519 150.217L225.498 148.671H225.752L229.31 145.049H230.856L227.065 148.883H226.959L225.519 150.217ZM224.355 153.182V142.339H225.604V153.182H224.355ZM229.522 153.182L226.345 149.158L227.235 148.29L231.11 153.182H229.522Z" fill="#686868"/>
</g>
<g clip-path="url(#clip1_263_674)">
<path d="M499.518 312.284H500.831V320.035C500.831 320.727 500.704 321.315 500.45 321.799C500.196 322.282 499.838 322.649 499.375 322.9C498.913 323.15 498.367 323.276 497.739 323.276C497.146 323.276 496.619 323.168 496.156 322.953C495.694 322.734 495.33 322.423 495.065 322.021C494.801 321.619 494.668 321.14 494.668 320.586H495.96C495.96 320.893 496.036 321.161 496.188 321.391C496.343 321.617 496.555 321.793 496.823 321.92C497.091 322.047 497.397 322.111 497.739 322.111C498.117 322.111 498.438 322.031 498.703 321.873C498.967 321.714 499.169 321.481 499.306 321.174C499.448 320.863 499.518 320.484 499.518 320.035V312.284ZM505.686 323.318C505.171 323.318 504.703 323.221 504.283 323.027C503.863 322.829 503.53 322.545 503.282 322.174C503.035 321.8 502.912 321.349 502.912 320.819C502.912 320.353 503.004 319.975 503.187 319.686C503.371 319.393 503.616 319.164 503.923 318.998C504.23 318.832 504.569 318.708 504.94 318.627C505.314 318.542 505.69 318.475 506.067 318.426C506.561 318.362 506.962 318.315 507.269 318.283C507.58 318.248 507.806 318.19 507.947 318.108C508.092 318.027 508.164 317.886 508.164 317.685V317.642C508.164 317.12 508.021 316.714 507.735 316.425C507.453 316.135 507.024 315.991 506.448 315.991C505.852 315.991 505.384 316.121 505.045 316.382C504.707 316.644 504.468 316.922 504.331 317.219L503.145 316.795C503.357 316.301 503.639 315.916 503.992 315.641C504.348 315.362 504.737 315.168 505.157 315.059C505.58 314.946 505.997 314.889 506.406 314.889C506.667 314.889 506.967 314.921 507.306 314.985C507.649 315.045 507.979 315.17 508.296 315.361C508.617 315.551 508.884 315.839 509.096 316.224C509.307 316.608 509.413 317.124 509.413 317.769V323.127H508.164V322.026H508.1C508.016 322.203 507.874 322.392 507.677 322.593C507.479 322.794 507.216 322.965 506.888 323.106C506.56 323.247 506.159 323.318 505.686 323.318ZM505.877 322.196C506.371 322.196 506.787 322.099 507.126 321.904C507.469 321.71 507.726 321.46 507.899 321.153C508.076 320.846 508.164 320.523 508.164 320.184V319.04C508.111 319.104 507.994 319.162 507.814 319.215C507.638 319.264 507.433 319.308 507.2 319.347C506.971 319.383 506.747 319.414 506.528 319.443C506.313 319.467 506.138 319.488 506.004 319.506C505.679 319.548 505.375 319.617 505.093 319.713C504.814 319.804 504.588 319.944 504.415 320.131C504.246 320.314 504.161 320.565 504.161 320.883C504.161 321.317 504.322 321.645 504.643 321.867C504.968 322.086 505.379 322.196 505.877 322.196ZM512.943 318.235V323.127H511.694V314.995H512.901V316.266H513.007C513.198 315.853 513.487 315.521 513.875 315.271C514.264 315.016 514.765 314.889 515.379 314.889C515.929 314.889 516.411 315.002 516.824 315.228C517.237 315.451 517.558 315.789 517.788 316.245C518.017 316.696 518.132 317.268 518.132 317.96V323.127H516.882V318.045C516.882 317.406 516.717 316.908 516.385 316.552C516.053 316.192 515.598 316.012 515.019 316.012C514.62 316.012 514.264 316.098 513.949 316.271C513.639 316.444 513.393 316.696 513.213 317.028C513.033 317.36 512.943 317.762 512.943 318.235ZM524.926 323.127L529.776 313.534V313.449H524.185V312.284H531.131V313.513L526.303 323.127H524.926Z" fill="#686868"/>
<path d="M421.714 312.284H423.027V320.035C423.027 320.727 422.9 321.315 422.646 321.799C422.392 322.282 422.033 322.649 421.571 322.9C421.109 323.15 420.563 323.276 419.935 323.276C419.342 323.276 418.814 323.168 418.352 322.953C417.89 322.734 417.526 322.423 417.261 322.021C416.997 321.619 416.864 321.14 416.864 320.586H418.156C418.156 320.893 418.232 321.161 418.384 321.391C418.539 321.617 418.751 321.793 419.019 321.92C419.287 322.047 419.593 322.111 419.935 322.111C420.313 322.111 420.634 322.031 420.899 321.873C421.163 321.714 421.364 321.481 421.502 321.174C421.643 320.863 421.714 320.484 421.714 320.035V312.284ZM427.882 323.318C427.367 323.318 426.899 323.221 426.479 323.027C426.059 322.829 425.725 322.545 425.478 322.174C425.231 321.8 425.108 321.349 425.108 320.819C425.108 320.353 425.199 319.975 425.383 319.686C425.566 319.393 425.812 319.164 426.119 318.998C426.426 318.832 426.765 318.708 427.135 318.627C427.509 318.542 427.885 318.475 428.263 318.426C428.757 318.362 429.158 318.315 429.465 318.283C429.775 318.248 430.001 318.19 430.143 318.108C430.287 318.027 430.36 317.886 430.36 317.685V317.642C430.36 317.12 430.217 316.714 429.931 316.425C429.648 316.135 429.22 315.991 428.644 315.991C428.048 315.991 427.58 316.121 427.241 316.382C426.902 316.644 426.664 316.922 426.526 317.219L425.341 316.795C425.552 316.301 425.835 315.916 426.188 315.641C426.544 315.362 426.932 315.168 427.352 315.059C427.776 314.946 428.192 314.889 428.602 314.889C428.863 314.889 429.163 314.921 429.502 314.985C429.844 315.045 430.174 315.17 430.492 315.361C430.813 315.551 431.08 315.839 431.291 316.224C431.503 316.608 431.609 317.124 431.609 317.769V323.127H430.36V322.026H430.296C430.211 322.203 430.07 322.392 429.873 322.593C429.675 322.794 429.412 322.965 429.084 323.106C428.755 323.247 428.355 323.318 427.882 323.318ZM428.072 322.196C428.567 322.196 428.983 322.099 429.322 321.904C429.664 321.71 429.922 321.46 430.095 321.153C430.271 320.846 430.36 320.523 430.36 320.184V319.04C430.307 319.104 430.19 319.162 430.01 319.215C429.834 319.264 429.629 319.308 429.396 319.347C429.167 319.383 428.942 319.414 428.724 319.443C428.508 319.467 428.334 319.488 428.2 319.506C427.875 319.548 427.571 319.617 427.289 319.713C427.01 319.804 426.784 319.944 426.611 320.131C426.442 320.314 426.357 320.565 426.357 320.883C426.357 321.317 426.518 321.645 426.839 321.867C427.164 322.086 427.575 322.196 428.072 322.196ZM435.139 318.235V323.127H433.89V314.995H435.097V316.266H435.203C435.393 315.853 435.683 315.521 436.071 315.271C436.459 315.016 436.96 314.889 437.575 314.889C438.125 314.889 438.607 315.002 439.02 315.228C439.433 315.451 439.754 315.789 439.984 316.245C440.213 316.696 440.328 317.268 440.328 317.96V323.127H439.078V318.045C439.078 317.406 438.912 316.908 438.581 316.552C438.249 316.192 437.793 316.012 437.215 316.012C436.816 316.012 436.459 316.098 436.145 316.271C435.835 316.444 435.589 316.696 435.409 317.028C435.229 317.36 435.139 317.762 435.139 318.235ZM450.171 323.276C449.55 323.276 448.991 323.152 448.493 322.905C447.995 322.658 447.597 322.319 447.296 321.889C446.996 321.458 446.832 320.967 446.804 320.417H448.075C448.124 320.907 448.347 321.313 448.742 321.634C449.141 321.952 449.617 322.111 450.171 322.111C450.616 322.111 451.011 322.007 451.357 321.799C451.707 321.59 451.98 321.304 452.178 320.941C452.379 320.574 452.48 320.159 452.48 319.697C452.48 319.224 452.376 318.802 452.167 318.431C451.963 318.057 451.68 317.762 451.32 317.547C450.96 317.332 450.549 317.222 450.087 317.219C449.755 317.215 449.414 317.267 449.065 317.372C448.715 317.475 448.428 317.607 448.202 317.769L446.974 317.621L447.63 312.284H453.263V313.449H448.731L448.35 316.647H448.414C448.636 316.471 448.915 316.324 449.25 316.208C449.585 316.091 449.935 316.033 450.298 316.033C450.962 316.033 451.553 316.192 452.072 316.509C452.594 316.824 453.004 317.254 453.3 317.801C453.6 318.348 453.75 318.973 453.75 319.675C453.75 320.367 453.595 320.985 453.284 321.529C452.977 322.069 452.554 322.496 452.014 322.81C451.474 323.12 450.86 323.276 450.171 323.276Z" fill="#686868"/>
<path d="M343.976 312.284H345.289V320.035C345.289 320.727 345.162 321.315 344.907 321.799C344.653 322.282 344.295 322.649 343.833 322.9C343.37 323.15 342.825 323.276 342.197 323.276C341.604 323.276 341.076 323.168 340.614 322.953C340.151 322.734 339.788 322.423 339.523 322.021C339.258 321.619 339.126 321.14 339.126 320.586H340.418C340.418 320.893 340.494 321.161 340.645 321.391C340.801 321.617 341.013 321.793 341.281 321.92C341.549 322.047 341.854 322.111 342.197 322.111C342.574 322.111 342.896 322.031 343.16 321.873C343.425 321.714 343.626 321.481 343.764 321.174C343.905 320.863 343.976 320.484 343.976 320.035V312.284ZM350.144 323.318C349.628 323.318 349.161 323.221 348.741 323.027C348.321 322.829 347.987 322.545 347.74 322.174C347.493 321.8 347.369 321.349 347.369 320.819C347.369 320.353 347.461 319.975 347.645 319.686C347.828 319.393 348.074 319.164 348.381 318.998C348.688 318.832 349.027 318.708 349.397 318.627C349.771 318.542 350.147 318.475 350.525 318.426C351.019 318.362 351.42 318.315 351.727 318.283C352.037 318.248 352.263 318.19 352.404 318.108C352.549 318.027 352.621 317.886 352.621 317.685V317.642C352.621 317.12 352.479 316.714 352.193 316.425C351.91 316.135 351.481 315.991 350.906 315.991C350.31 315.991 349.842 316.121 349.503 316.382C349.164 316.644 348.926 316.922 348.788 317.219L347.602 316.795C347.814 316.301 348.096 315.916 348.449 315.641C348.806 315.362 349.194 315.168 349.614 315.059C350.038 314.946 350.454 314.889 350.864 314.889C351.125 314.889 351.425 314.921 351.764 314.985C352.106 315.045 352.436 315.17 352.754 315.361C353.075 315.551 353.341 315.839 353.553 316.224C353.765 316.608 353.871 317.124 353.871 317.769V323.127H352.621V322.026H352.558C352.473 322.203 352.332 322.392 352.134 322.593C351.937 322.794 351.674 322.965 351.345 323.106C351.017 323.247 350.617 323.318 350.144 323.318ZM350.334 322.196C350.828 322.196 351.245 322.099 351.584 321.904C351.926 321.71 352.184 321.46 352.357 321.153C352.533 320.846 352.621 320.523 352.621 320.184V319.04C352.569 319.104 352.452 319.162 352.272 319.215C352.096 319.264 351.891 319.308 351.658 319.347C351.428 319.383 351.204 319.414 350.985 319.443C350.77 319.467 350.595 319.488 350.461 319.506C350.137 319.548 349.833 319.617 349.551 319.713C349.272 319.804 349.046 319.944 348.873 320.131C348.704 320.314 348.619 320.565 348.619 320.883C348.619 321.317 348.779 321.645 349.101 321.867C349.425 322.086 349.837 322.196 350.334 322.196ZM357.401 318.235V323.127H356.152V314.995H357.359V316.266H357.465C357.655 315.853 357.945 315.521 358.333 315.271C358.721 315.016 359.222 314.889 359.836 314.889C360.387 314.889 360.869 315.002 361.282 315.228C361.695 315.451 362.016 315.789 362.245 316.245C362.475 316.696 362.59 317.268 362.59 317.96V323.127H361.34V318.045C361.34 317.406 361.174 316.908 360.842 316.552C360.511 316.192 360.055 316.012 359.476 316.012C359.078 316.012 358.721 316.098 358.407 316.271C358.096 316.444 357.851 316.696 357.671 317.028C357.491 317.36 357.401 317.762 357.401 318.235ZM372.708 323.276C372.01 323.276 371.387 323.156 370.84 322.916C370.296 322.676 369.864 322.342 369.542 321.915C369.225 321.484 369.052 320.985 369.024 320.417H370.358C370.386 320.766 370.506 321.068 370.718 321.322C370.93 321.573 371.207 321.767 371.549 321.904C371.891 322.042 372.271 322.111 372.687 322.111C373.153 322.111 373.566 322.03 373.926 321.867C374.286 321.705 374.569 321.479 374.773 321.19C374.978 320.9 375.08 320.565 375.08 320.184C375.08 319.785 374.982 319.434 374.784 319.13C374.586 318.823 374.297 318.583 373.916 318.41C373.534 318.237 373.069 318.151 372.518 318.151H371.65V316.986H372.518C372.949 316.986 373.326 316.908 373.651 316.753C373.979 316.598 374.235 316.379 374.419 316.096C374.606 315.814 374.699 315.482 374.699 315.101C374.699 314.734 374.618 314.415 374.456 314.143C374.293 313.871 374.064 313.659 373.767 313.507C373.474 313.356 373.129 313.28 372.73 313.28C372.356 313.28 372.003 313.349 371.671 313.486C371.343 313.62 371.074 313.816 370.866 314.074C370.658 314.328 370.545 314.635 370.527 314.995H369.257C369.278 314.427 369.449 313.929 369.77 313.502C370.091 313.072 370.511 312.736 371.03 312.496C371.553 312.256 372.126 312.136 372.751 312.136C373.421 312.136 373.997 312.272 374.477 312.544C374.957 312.812 375.326 313.167 375.583 313.608C375.841 314.049 375.97 314.526 375.97 315.038C375.97 315.648 375.809 316.169 375.488 316.599C375.17 317.03 374.738 317.328 374.191 317.494V317.579C374.876 317.692 375.41 317.983 375.795 318.452C376.18 318.918 376.372 319.495 376.372 320.184C376.372 320.773 376.212 321.303 375.89 321.772C375.573 322.238 375.139 322.605 374.588 322.873C374.037 323.142 373.411 323.276 372.708 323.276Z" fill="#686868"/>
<path d="M267.73 312.284H269.043V320.035C269.043 320.727 268.916 321.315 268.662 321.799C268.408 322.282 268.049 322.649 267.587 322.9C267.125 323.15 266.579 323.276 265.951 323.276C265.358 323.276 264.83 323.168 264.368 322.953C263.906 322.734 263.542 322.423 263.277 322.021C263.013 321.619 262.88 321.14 262.88 320.586H264.172C264.172 320.893 264.248 321.161 264.4 321.391C264.555 321.617 264.767 321.793 265.035 321.92C265.303 322.047 265.609 322.111 265.951 322.111C266.329 322.111 266.65 322.031 266.915 321.873C267.179 321.714 267.38 321.481 267.518 321.174C267.659 320.863 267.73 320.484 267.73 320.035V312.284ZM273.898 323.318C273.383 323.318 272.915 323.221 272.495 323.027C272.075 322.829 271.741 322.545 271.494 322.174C271.247 321.8 271.124 321.349 271.124 320.819C271.124 320.353 271.215 319.975 271.399 319.686C271.582 319.393 271.828 319.164 272.135 318.998C272.442 318.832 272.781 318.708 273.151 318.627C273.525 318.542 273.901 318.475 274.279 318.426C274.773 318.362 275.174 318.315 275.481 318.283C275.792 318.248 276.017 318.19 276.159 318.108C276.303 318.027 276.376 317.886 276.376 317.685V317.642C276.376 317.12 276.233 316.714 275.947 316.425C275.664 316.135 275.236 315.991 274.66 315.991C274.064 315.991 273.596 316.121 273.257 316.382C272.918 316.644 272.68 316.922 272.543 317.219L271.357 316.795C271.568 316.301 271.851 315.916 272.204 315.641C272.56 315.362 272.948 315.168 273.368 315.059C273.792 314.946 274.208 314.889 274.618 314.889C274.879 314.889 275.179 314.921 275.518 314.985C275.86 315.045 276.19 315.17 276.508 315.361C276.829 315.551 277.096 315.839 277.307 316.224C277.519 316.608 277.625 317.124 277.625 317.769V323.127H276.376V322.026H276.312C276.227 322.203 276.086 322.392 275.889 322.593C275.691 322.794 275.428 322.965 275.1 323.106C274.771 323.247 274.371 323.318 273.898 323.318ZM274.088 322.196C274.583 322.196 274.999 322.099 275.338 321.904C275.68 321.71 275.938 321.46 276.111 321.153C276.287 320.846 276.376 320.523 276.376 320.184V319.04C276.323 319.104 276.206 319.162 276.026 319.215C275.85 319.264 275.645 319.308 275.412 319.347C275.183 319.383 274.959 319.414 274.74 319.443C274.524 319.467 274.35 319.488 274.216 319.506C273.891 319.548 273.587 319.617 273.305 319.713C273.026 319.804 272.8 319.944 272.627 320.131C272.458 320.314 272.373 320.565 272.373 320.883C272.373 321.317 272.534 321.645 272.855 321.867C273.18 322.086 273.591 322.196 274.088 322.196ZM281.155 318.235V323.127H279.906V314.995H281.113V316.266H281.219C281.409 315.853 281.699 315.521 282.087 315.271C282.475 315.016 282.976 314.889 283.591 314.889C284.141 314.889 284.623 315.002 285.036 315.228C285.449 315.451 285.77 315.789 286 316.245C286.229 316.696 286.344 317.268 286.344 317.96V323.127H285.094V318.045C285.094 317.406 284.928 316.908 284.597 316.552C284.265 316.192 283.809 316.012 283.231 316.012C282.832 316.012 282.475 316.098 282.161 316.271C281.851 316.444 281.605 316.696 281.425 317.028C281.245 317.36 281.155 317.762 281.155 318.235ZM296.611 312.284V323.127H295.298V313.661H295.234L292.587 315.419V314.085L295.298 312.284H296.611Z" fill="#686868"/>
</g>
<mask id="mask0_263_674" style="mask-type:alpha" maskUnits="userSpaceOnUse" x="261" y="98" width="269" height="193">
<rect x="261.055" y="98.4182" width="268.364" height="192.327" fill="#C4C4C4"/>
</mask>
<g mask="url(#mask0_263_674)">
<path fill-rule="evenodd" clip-rule="evenodd" d="M-189.2 174.573C-189.2 174.573 -168.761 172.254 -154.909 172.548C-141.058 172.841 -119.103 183.308 -110.17 187.044C-101.236 190.78 -86.7895 199.334 -70.9039 199.446C-55.0182 199.558 -41.6001 196.182 -32.9891 192.846C-24.3781 189.511 -10.291 186.053 6.47693 187.044C23.2448 188.035 43.3817 214.414 61.2727 215.764C79.1636 217.115 69.1285 211.721 88.5338 199.446C107.939 187.171 137.309 175.924 158.182 175.924C179.054 175.924 220.8 194.831 246.145 194.831C271.491 194.831 302.05 177.955 323.196 178.329C344.342 178.703 338.321 189.341 363.051 191.073C387.782 192.805 534.26 184.659 557.93 187.044C581.6 189.429 578.593 205.248 598.363 205.248C618.134 205.248 658.442 191.401 677.318 187.044C696.193 182.687 712.8 178.625 721.745 178.625C730.691 178.625 781.022 191.366 795.365 191.073C809.709 190.78 887.442 183.434 914.073 185.378C940.704 187.321 952.836 192.846 952.836 192.846V289.62H-189.2V174.573Z" fill="url(#paint0_linear_263_674)"/>
<path d="M-187.709 174.848C-187.709 174.848 -156.4 170.347 -144.473 172.598C-132.545 174.848 -95.589 198.368 -71.4181 199.603C-47.2472 200.837 -25.1999 183.85 3.12733 187.225C31.4546 190.601 40.4001 215.356 61.2728 215.356C82.1455 215.356 100.036 178.224 155.2 178.224C210.364 178.224 211.213 196.54 246.146 195.102C281.078 193.664 310.81 177.756 326.655 178.224C342.5 178.691 341.564 190.601 362.436 190.601C383.309 190.601 542.836 187.225 557.746 187.225C572.655 187.225 580.109 200.728 598 205.229C615.891 209.73 697.891 178.224 717.273 178.224C736.655 178.224 779.891 190.601 803.746 190.601C827.6 190.601 885.746 184.975 906.618 184.975C927.491 184.975 949.855 190.601 949.855 190.601" stroke="#D9DBDB" stroke-width="2.98182"/>
<path fill-rule="evenodd" clip-rule="evenodd" d="M-189.2 204.104C-189.2 204.104 -163.122 218 -150.627 221.024C-138.132 224.047 -127.937 214.256 -110.182 214.231C-92.427 214.205 -81.8546 229.984 -62.4728 227.733C-43.091 225.483 -29.7179 222.197 -20.7273 218.732C-11.7368 215.266 13.5195 205.08 34.4363 206.354C55.3531 207.629 73.1405 216.186 83.6363 220.982C94.1321 225.778 116.436 236.735 125.418 239.257C134.4 241.78 140.593 230.006 164.477 231.349C188.36 232.691 194.988 242.262 205.194 243.742C215.4 245.222 241.673 247.987 255.091 245.737C268.509 243.486 293.854 235.61 302.8 232.234C311.745 228.858 334.109 220.982 360.945 220.982C387.782 220.982 459.18 234.244 480.577 233.615C501.974 232.985 511.912 225.438 521.964 225.483C532.016 225.527 545.557 233.845 558.36 232.477C571.164 231.109 600.982 216.481 627.818 217.606C654.654 218.732 663.6 223.232 672.545 225.483C681.491 227.733 707.132 236.458 715.93 237.159C724.727 237.86 736.15 229.019 755.942 229.019C775.734 229.019 780.423 234.796 795.217 237.159C810.011 239.522 813.936 241.404 833.475 241.404C853.014 241.404 850.762 239.941 872.898 237.159C895.034 234.377 899.816 232.341 913.475 231.349C927.134 230.356 952.836 231.349 952.836 231.349V289.707H-189.2V204.104Z" fill="url(#paint1_linear_263_674)"/>
<path d="M-189.2 204.104C-189.2 204.104 -166.625 220.703 -147.455 220.982C-128.284 221.261 -125.091 214.231 -110.182 214.231C-95.2728 214.231 -77.3819 228.858 -62.4728 227.733C-47.5637 226.608 -38.6183 224.358 -26.691 220.982C-14.7637 217.606 7.24861 204.203 34.4363 206.354C61.624 208.506 73.1999 216.481 83.6363 220.982C94.0727 225.483 113.084 237.676 125.418 239.257C137.753 240.839 140.226 229.985 164.477 231.349C188.727 232.712 194.061 241.747 205.194 243.742C216.327 245.737 240.984 248.243 255.091 245.737C269.198 243.23 332.618 222.107 346.036 220.982C359.454 219.857 359.088 220.094 386.291 223.232C413.494 226.371 486.182 235.61 498.109 232.234C510.036 228.858 510.036 225.483 523.454 225.483C536.873 225.483 537.121 232.983 558.36 232.477C579.599 231.972 599.491 216.481 627.818 217.606C656.145 218.732 703.687 235.562 715.93 237.159C728.172 238.756 736.127 229.019 755.942 229.019C775.757 229.019 781.56 234.977 795.217 237.159C808.874 239.341 814.021 241.404 833.475 241.404C852.929 241.404 876.311 235.107 899.164 232.234C922.016 229.362 952.836 231.109 952.836 231.109" stroke="#FE5A51" stroke-width="2.98182"/>
</g>
<g filter="url(#filter1_d_263_674)">
<path d="M323.786 84.8037H16.5053C10.7034 84.8037 6 90.1123 6 96.6607V147.053C6 153.601 10.7034 158.91 16.5053 158.91H323.786C329.588 158.91 334.291 153.601 334.291 147.053V96.6607C334.291 90.1123 329.588 84.8037 323.786 84.8037Z" fill="white"/>
<path d="M16.5053 85.3419H323.786C329.231 85.3419 333.753 90.3464 333.753 96.6607V147.053C333.753 153.367 329.231 158.372 323.786 158.372H16.5053C11.06 158.372 6.53818 153.367 6.53818 147.053V96.6607C6.53818 90.3464 11.06 85.3419 16.5053 85.3419Z" stroke="#DAE5F0" stroke-width="1.07636"/>
</g>
<path d="M148.933 129.002H144.251V127.468H150.841V129.002L146.799 137.419H144.798L148.933 129.002ZM152.103 127.321H153.85V130.883C154.055 130.598 154.326 130.38 154.664 130.229C155.002 130.078 155.38 130.002 155.798 130.002C156.322 130.002 156.794 130.118 157.212 130.349C157.63 130.58 157.954 130.905 158.185 131.323C158.417 131.741 158.532 132.217 158.532 132.75V137.419H156.785V133.164C156.785 132.693 156.647 132.315 156.371 132.03C156.105 131.745 155.753 131.603 155.318 131.603C154.891 131.603 154.539 131.745 154.264 132.03C153.988 132.315 153.85 132.693 153.85 133.164V137.419H152.103V127.321ZM165.475 137.579C164.933 137.579 164.417 137.477 163.928 137.272C163.448 137.068 163.034 136.779 162.687 136.405C162.349 136.032 162.118 135.6 161.994 135.111L163.581 134.551C163.741 134.996 163.986 135.338 164.315 135.578C164.644 135.818 165.031 135.938 165.475 135.938C166.009 135.938 166.436 135.787 166.756 135.485C167.085 135.182 167.249 134.773 167.249 134.258C167.249 133.751 167.085 133.351 166.756 133.057C166.436 132.755 166.004 132.604 165.462 132.604C165.088 132.604 164.751 132.675 164.448 132.817L164.035 131.95L166.609 129.015H162.554V127.481H168.65V128.909L166.609 131.296C167.356 131.412 167.952 131.732 168.397 132.257C168.841 132.773 169.063 133.422 169.063 134.204C169.063 134.836 168.908 135.409 168.597 135.925C168.285 136.441 167.854 136.845 167.303 137.139C166.76 137.432 166.151 137.579 165.475 137.579ZM174.444 137.579C173.661 137.579 172.967 137.366 172.363 136.939C171.767 136.512 171.3 135.912 170.962 135.138C170.633 134.355 170.469 133.457 170.469 132.444C170.469 131.43 170.633 130.536 170.962 129.762C171.3 128.989 171.767 128.388 172.363 127.962C172.959 127.535 173.648 127.321 174.43 127.321C175.222 127.321 175.92 127.535 176.525 127.962C177.129 128.388 177.596 128.989 177.925 129.762C178.263 130.536 178.432 131.43 178.432 132.444C178.432 133.457 178.263 134.355 177.925 135.138C177.596 135.912 177.129 136.512 176.525 136.939C175.929 137.366 175.235 137.579 174.444 137.579ZM172.283 132.444C172.283 133.52 172.474 134.369 172.856 134.991C173.239 135.614 173.768 135.925 174.444 135.925C175.119 135.925 175.649 135.618 176.031 135.005C176.422 134.382 176.618 133.528 176.618 132.444C176.618 131.367 176.422 130.523 176.031 129.909C175.649 129.287 175.115 128.975 174.43 128.975C173.754 128.975 173.225 129.282 172.843 129.896C172.469 130.509 172.283 131.359 172.283 132.444ZM179.979 130.163H181.62V131.07C181.807 130.723 182.074 130.46 182.42 130.283C182.776 130.096 183.185 130.002 183.648 130.002C184.128 130.002 184.568 130.109 184.968 130.323C185.368 130.527 185.675 130.812 185.889 131.176C186.129 130.785 186.44 130.492 186.822 130.296C187.214 130.1 187.654 130.002 188.143 130.002C188.65 130.002 189.108 130.118 189.517 130.349C189.926 130.58 190.246 130.905 190.477 131.323C190.708 131.741 190.824 132.217 190.824 132.75V137.419H189.077V133.164C189.077 132.684 188.948 132.306 188.69 132.03C188.441 131.745 188.103 131.603 187.676 131.603C187.258 131.603 186.92 131.745 186.662 132.03C186.404 132.315 186.275 132.693 186.275 133.164V137.419H184.528V133.164C184.528 132.684 184.399 132.306 184.141 132.03C183.892 131.745 183.554 131.603 183.127 131.603C182.709 131.603 182.371 131.745 182.114 132.03C181.856 132.315 181.727 132.693 181.727 133.164V137.419H179.979V130.163Z" fill="#0B0B0B"/>
<path d="M47.1349 133.777C46.9748 133.795 46.8459 133.804 46.748 133.804C46.1522 133.804 45.6142 133.666 45.134 133.391C44.6627 133.115 44.2892 132.737 44.0135 132.257C43.7467 131.777 43.6133 131.239 43.6133 130.643C43.6133 130.011 43.7601 129.442 44.0535 128.935C44.347 128.428 44.7561 128.033 45.2807 127.748C45.8143 127.464 46.4101 127.321 47.0682 127.321C47.7262 127.321 48.3176 127.464 48.8423 127.748C49.367 128.033 49.776 128.428 50.0695 128.935C50.3718 129.433 50.523 129.994 50.523 130.616C50.523 131.141 50.4341 131.648 50.2562 132.137C50.0784 132.617 49.7449 133.177 49.2558 133.817L46.4813 137.419H44.307L47.1349 133.777ZM45.4275 130.629C45.4275 131.118 45.5831 131.519 45.8943 131.83C46.2056 132.132 46.5969 132.283 47.0682 132.283C47.5306 132.283 47.9174 132.132 48.2287 131.83C48.5399 131.519 48.6956 131.118 48.6956 130.629C48.6956 130.14 48.5399 129.74 48.2287 129.429C47.9174 129.109 47.5306 128.949 47.0682 128.949C46.6058 128.949 46.2145 129.109 45.8943 129.429C45.5831 129.74 45.4275 130.14 45.4275 130.629ZM51.6909 136.045L54.3854 133.231C54.9635 132.626 55.3859 132.168 55.6527 131.857C55.9194 131.536 56.1106 131.261 56.2262 131.03C56.3418 130.789 56.3996 130.545 56.3996 130.296C56.3996 129.887 56.2707 129.562 56.0128 129.322C55.7549 129.073 55.417 128.949 54.999 128.949C54.5633 128.949 54.1898 129.073 53.8786 129.322C53.5762 129.562 53.3539 129.918 53.2116 130.389L51.6242 129.896C51.731 129.38 51.9444 128.931 52.2645 128.548C52.5935 128.157 52.9982 127.855 53.4784 127.641C53.9586 127.428 54.4655 127.321 54.999 127.321C55.6304 127.321 56.1907 127.441 56.6798 127.681C57.1689 127.913 57.5468 128.242 57.8136 128.669C58.0893 129.087 58.2271 129.567 58.2271 130.109C58.2271 130.643 58.0804 131.163 57.7869 131.67C57.5023 132.168 57.0355 132.755 56.3863 133.431L54.052 135.885H58.3605V137.419H51.6909V136.045ZM69.1341 127.481H71.0016L62.9447 137.419H61.0772L69.1341 127.481ZM60.0101 129.922C60.0101 129.451 60.1257 129.015 60.3569 128.615C60.5881 128.215 60.9038 127.899 61.304 127.668C61.7042 127.437 62.1488 127.321 62.6379 127.321C63.1181 127.321 63.5539 127.437 63.9452 127.668C64.3453 127.899 64.661 128.215 64.8922 128.615C65.1234 129.015 65.239 129.451 65.239 129.922C65.239 130.394 65.1234 130.829 64.8922 131.23C64.661 131.63 64.3453 131.946 63.9452 132.177C63.5539 132.408 63.1181 132.524 62.6379 132.524C62.1488 132.524 61.7042 132.408 61.304 132.177C60.9038 131.946 60.5881 131.63 60.3569 131.23C60.1257 130.829 60.0101 130.394 60.0101 129.922ZM61.4107 129.922C61.4107 130.26 61.5219 130.554 61.7442 130.803C61.9754 131.052 62.2733 131.176 62.6379 131.176C63.0025 131.176 63.2915 131.052 63.505 130.803C63.7273 130.554 63.8384 130.26 63.8384 129.922C63.8384 129.584 63.7273 129.291 63.505 129.042C63.2915 128.784 63.0025 128.655 62.6379 128.655C62.2733 128.655 61.9754 128.784 61.7442 129.042C61.5219 129.291 61.4107 129.584 61.4107 129.922ZM66.7864 134.978C66.7864 134.507 66.902 134.071 67.1332 133.671C67.3644 133.271 67.6801 132.955 68.0803 132.724C68.4805 132.492 68.9206 132.377 69.4009 132.377C69.8811 132.377 70.3213 132.492 70.7214 132.724C71.1216 132.955 71.4373 133.271 71.6685 133.671C71.8997 134.071 72.0153 134.507 72.0153 134.978C72.0153 135.449 71.8997 135.885 71.6685 136.285C71.4373 136.685 71.1216 137.001 70.7214 137.232C70.3213 137.463 69.8811 137.579 69.4009 137.579C68.9206 137.579 68.4805 137.463 68.0803 137.232C67.6801 137.001 67.3644 136.685 67.1332 136.285C66.902 135.885 66.7864 135.449 66.7864 134.978ZM68.187 134.978C68.187 135.316 68.2982 135.609 68.5205 135.858C68.7428 136.107 69.0363 136.232 69.4009 136.232C69.7655 136.232 70.0589 136.107 70.2812 135.858C70.5036 135.609 70.6147 135.316 70.6147 134.978C70.6147 134.64 70.5036 134.347 70.2812 134.098C70.0589 133.84 69.7655 133.711 69.4009 133.711C69.0363 133.711 68.7428 133.84 68.5205 134.098C68.2982 134.347 68.187 134.64 68.187 134.978Z" fill="#0B0B0B"/>
<path d="M245.132 137.579C244.43 137.579 243.812 137.446 243.278 137.179C242.745 136.903 242.331 136.539 242.038 136.085C241.744 135.623 241.598 135.111 241.598 134.551C241.598 134.009 241.722 133.533 241.971 133.124C242.229 132.715 242.598 132.386 243.078 132.137C242.74 131.932 242.473 131.643 242.278 131.27C242.091 130.887 241.998 130.474 241.998 130.029C241.998 129.513 242.131 129.051 242.398 128.642C242.665 128.233 243.034 127.913 243.505 127.681C243.985 127.441 244.528 127.321 245.132 127.321C245.728 127.321 246.262 127.437 246.733 127.668C247.213 127.899 247.587 128.224 247.854 128.642C248.12 129.051 248.254 129.513 248.254 130.029C248.254 130.465 248.16 130.869 247.974 131.243C247.787 131.616 247.525 131.914 247.187 132.137C247.667 132.395 248.031 132.728 248.28 133.137C248.538 133.546 248.667 134.022 248.667 134.564C248.667 135.116 248.521 135.623 248.227 136.085C247.934 136.539 247.516 136.903 246.973 137.179C246.44 137.446 245.826 137.579 245.132 137.579ZM243.425 134.498C243.425 134.96 243.581 135.334 243.892 135.618C244.203 135.903 244.617 136.045 245.132 136.045C245.648 136.045 246.062 135.903 246.373 135.618C246.693 135.334 246.853 134.96 246.853 134.498C246.853 134.035 246.693 133.666 246.373 133.391C246.062 133.106 245.648 132.964 245.132 132.964C244.617 132.964 244.203 133.106 243.892 133.391C243.581 133.666 243.425 134.035 243.425 134.498ZM243.812 130.136C243.812 130.509 243.932 130.821 244.172 131.07C244.421 131.31 244.741 131.43 245.132 131.43C245.515 131.43 245.826 131.31 246.066 131.07C246.315 130.821 246.44 130.509 246.44 130.136C246.44 129.762 246.315 129.456 246.066 129.215C245.826 128.975 245.515 128.855 245.132 128.855C244.741 128.855 244.421 128.975 244.172 129.215C243.932 129.456 243.812 129.762 243.812 130.136ZM250.159 127.321H251.906V130.883C252.111 130.598 252.382 130.38 252.72 130.229C253.058 130.078 253.436 130.002 253.854 130.002C254.379 130.002 254.85 130.118 255.268 130.349C255.686 130.58 256.01 130.905 256.242 131.323C256.473 131.741 256.588 132.217 256.588 132.75V137.419H254.841V133.164C254.841 132.693 254.703 132.315 254.428 132.03C254.161 131.745 253.809 131.603 253.374 131.603C252.947 131.603 252.596 131.745 252.32 132.03C252.044 132.315 251.906 132.693 251.906 133.164V137.419H250.159V127.321ZM264.665 135.231H260.103V133.711L264.559 127.481H266.453V133.711H267.907V135.231H266.453V137.419H264.665V135.231ZM264.665 133.711V129.722L261.891 133.711H264.665ZM272.313 137.579C271.788 137.579 271.286 137.481 270.806 137.286C270.326 137.09 269.916 136.81 269.579 136.445C269.241 136.081 269.009 135.654 268.885 135.165L270.459 134.604C270.61 135.04 270.85 135.374 271.179 135.605C271.508 135.827 271.886 135.938 272.313 135.938C272.82 135.938 273.233 135.778 273.554 135.458C273.874 135.129 274.034 134.707 274.034 134.191C274.034 133.675 273.874 133.257 273.554 132.937C273.233 132.617 272.82 132.457 272.313 132.457C271.957 132.457 271.642 132.537 271.366 132.697C271.09 132.848 270.89 133.062 270.766 133.337L269.285 133.004L270.072 127.481H275.488V129.015H271.366L271.059 131.296C271.459 131.038 271.98 130.91 272.62 130.91C273.26 130.91 273.825 131.052 274.314 131.336C274.812 131.612 275.194 131.999 275.461 132.497C275.728 132.995 275.861 133.56 275.861 134.191C275.861 134.831 275.706 135.409 275.394 135.925C275.092 136.441 274.67 136.845 274.127 137.139C273.585 137.432 272.98 137.579 272.313 137.579ZM277.372 130.163H279.012V131.07C279.199 130.723 279.466 130.46 279.813 130.283C280.168 130.096 280.577 130.002 281.04 130.002C281.52 130.002 281.96 130.109 282.36 130.323C282.761 130.527 283.067 130.812 283.281 131.176C283.521 130.785 283.832 130.492 284.215 130.296C284.606 130.1 285.046 130.002 285.535 130.002C286.042 130.002 286.5 130.118 286.909 130.349C287.318 130.58 287.638 130.905 287.869 131.323C288.101 131.741 288.216 132.217 288.216 132.75V137.419H286.469V133.164C286.469 132.684 286.34 132.306 286.082 132.03C285.833 131.745 285.495 131.603 285.068 131.603C284.65 131.603 284.312 131.745 284.054 132.03C283.797 132.315 283.668 132.693 283.668 133.164V137.419H281.92V133.164C281.92 132.684 281.791 132.306 281.533 132.03C281.284 131.745 280.946 131.603 280.52 131.603C280.102 131.603 279.764 131.745 279.506 132.03C279.248 132.315 279.119 132.693 279.119 133.164V137.419H277.372V130.163Z" fill="#0B0B0B"/>
<path d="M43.7913 108.562H46.1301C46.5688 108.562 46.9541 108.645 47.2861 108.811C47.624 108.977 47.8849 109.214 48.0687 109.523C48.2525 109.831 48.3443 110.193 48.3443 110.608C48.3443 111.023 48.2525 111.384 48.0687 111.693C47.8849 112.001 47.624 112.238 47.2861 112.404C46.9541 112.57 46.5688 112.653 46.1301 112.653H44.6627V115.187H43.7913V108.562ZM46.1567 111.853C46.5539 111.853 46.8711 111.74 47.1083 111.515C47.3454 111.289 47.464 110.987 47.464 110.608C47.464 110.228 47.3454 109.926 47.1083 109.701C46.8711 109.475 46.5539 109.363 46.1567 109.363H44.6627V111.853H46.1567ZM49.4248 110.394H50.2341V110.963C50.4831 110.548 50.9069 110.341 51.5057 110.341H51.7992V111.123H51.3812C51.0374 111.123 50.7617 111.23 50.5542 111.444C50.3526 111.657 50.2518 111.953 50.2518 112.333V115.187H49.4248V110.394ZM54.8109 115.294C54.3544 115.294 53.9364 115.187 53.557 114.974C53.1835 114.755 52.8871 114.455 52.6677 114.076C52.4484 113.69 52.3387 113.261 52.3387 112.786C52.3387 112.318 52.4454 111.894 52.6588 111.515C52.8782 111.129 53.1746 110.83 53.5481 110.617C53.9275 110.397 54.3484 110.287 54.8109 110.287C55.2674 110.287 55.6824 110.397 56.0558 110.617C56.4353 110.83 56.7317 111.126 56.9451 111.506C57.1645 111.885 57.2742 112.312 57.2742 112.786C57.2742 113.267 57.1645 113.696 56.9451 114.076C56.7258 114.455 56.4264 114.755 56.047 114.974C55.6735 115.187 55.2614 115.294 54.8109 115.294ZM53.2102 112.786C53.2102 113.106 53.2783 113.397 53.4147 113.658C53.557 113.919 53.7497 114.123 53.9927 114.271C54.2417 114.42 54.5144 114.494 54.8109 114.494C55.1014 114.494 55.3681 114.42 55.6112 114.271C55.8543 114.123 56.044 113.919 56.1803 113.658C56.3226 113.397 56.3938 113.106 56.3938 112.786C56.3938 112.466 56.3226 112.179 56.1803 111.924C56.044 111.663 55.8543 111.458 55.6112 111.31C55.3681 111.162 55.1014 111.088 54.8109 111.088C54.5144 111.088 54.2417 111.162 53.9927 111.31C53.7497 111.458 53.557 111.663 53.4147 111.924C53.2783 112.179 53.2102 112.466 53.2102 112.786ZM60.5311 115.294C60.0865 115.294 59.6834 115.184 59.3217 114.965C58.9601 114.746 58.6755 114.446 58.468 114.067C58.2605 113.687 58.1568 113.264 58.1568 112.795C58.1568 112.327 58.2605 111.903 58.468 111.524C58.6755 111.138 58.9601 110.836 59.3217 110.617C59.6834 110.397 60.0865 110.287 60.5311 110.287C60.8809 110.287 61.1951 110.353 61.4738 110.483C61.7583 110.614 61.9955 110.797 62.1852 111.034V108.456H63.0211V115.187H62.2119V114.485C62.034 114.74 61.7969 114.938 61.5004 115.081C61.2099 115.223 60.8868 115.294 60.5311 115.294ZM59.0283 112.795C59.0283 113.115 59.0964 113.406 59.2328 113.667C59.3691 113.922 59.5559 114.123 59.793 114.271C60.0361 114.42 60.3058 114.494 60.6023 114.494C60.8987 114.494 61.1655 114.42 61.4026 114.271C61.6457 114.123 61.8354 113.922 61.9718 113.667C62.114 113.406 62.1852 113.115 62.1852 112.795C62.1852 112.475 62.114 112.185 61.9718 111.924C61.8354 111.663 61.6457 111.458 61.4026 111.31C61.1655 111.162 60.8987 111.088 60.6023 111.088C60.3058 111.088 60.0361 111.162 59.793 111.31C59.5559 111.458 59.3691 111.663 59.2328 111.924C59.0964 112.185 59.0283 112.475 59.0283 112.795ZM66.0002 115.294C65.6563 115.294 65.348 115.214 65.0753 115.054C64.8026 114.894 64.5892 114.672 64.435 114.387C64.2809 114.097 64.2038 113.765 64.2038 113.391V110.394H65.0309V113.302C65.0309 113.658 65.1376 113.945 65.351 114.165C65.5644 114.384 65.8431 114.494 66.1869 114.494C66.5308 114.494 66.8094 114.381 67.0228 114.156C67.2363 113.925 67.343 113.616 67.343 113.231V110.394H68.1789V115.187H67.3697V114.6C67.2274 114.826 67.0377 114.998 66.8005 115.116C66.5634 115.235 66.2966 115.294 66.0002 115.294ZM71.6834 115.294C71.215 115.294 70.7941 115.184 70.4206 114.965C70.0471 114.746 69.7566 114.446 69.5491 114.067C69.3416 113.682 69.2379 113.255 69.2379 112.786C69.2379 112.312 69.3416 111.885 69.5491 111.506C69.7566 111.126 70.0442 110.83 70.4117 110.617C70.7852 110.397 71.2091 110.287 71.6834 110.287C72.1458 110.287 72.5667 110.409 72.9462 110.652C73.3315 110.889 73.6042 111.197 73.7643 111.577L73.0173 111.933C72.9047 111.678 72.7268 111.473 72.4837 111.319C72.2466 111.165 71.9798 111.088 71.6834 111.088C71.3929 111.088 71.1261 111.162 70.883 111.31C70.6459 111.458 70.4592 111.663 70.3228 111.924C70.1864 112.179 70.1183 112.469 70.1183 112.795C70.1183 113.115 70.1864 113.406 70.3228 113.667C70.4651 113.922 70.6548 114.123 70.8919 114.271C71.1291 114.42 71.3929 114.494 71.6834 114.494C71.9857 114.494 72.2555 114.417 72.4926 114.263C72.7298 114.108 72.9047 113.898 73.0173 113.631L73.7643 114.005C73.6102 114.378 73.3404 114.686 72.9551 114.929C72.5697 115.173 72.1458 115.294 71.6834 115.294ZM76.7656 115.241C76.2972 115.241 75.9356 115.11 75.6807 114.849C75.4317 114.583 75.3072 114.203 75.3072 113.711V111.186H74.4357V110.394H74.6135C74.827 110.394 74.9959 110.332 75.1204 110.207C75.2449 110.077 75.3072 109.902 75.3072 109.683V109.291H76.1342V110.394H77.2102V111.186H76.1342V113.685C76.1342 114.218 76.401 114.485 76.9346 114.485C77.0472 114.485 77.1569 114.476 77.2636 114.458V115.196C77.1391 115.226 76.9731 115.241 76.7656 115.241ZM78.3441 110.394H79.1711V115.187H78.3441V110.394ZM78.2462 109.114C78.2462 108.959 78.2937 108.835 78.3885 108.74C78.4834 108.645 78.6079 108.598 78.762 108.598C78.9162 108.598 79.0407 108.645 79.1355 108.74C79.2304 108.835 79.2778 108.959 79.2778 109.114C79.2778 109.268 79.2304 109.392 79.1355 109.487C79.0407 109.582 78.9162 109.629 78.762 109.629C78.6079 109.629 78.4834 109.582 78.3885 109.487C78.2937 109.392 78.2462 109.268 78.2462 109.114ZM79.9114 110.394H80.8363L82.1791 114.022L83.5308 110.394H84.4556L82.5703 115.187H81.7878L79.9114 110.394ZM85.1959 110.394H86.023V115.187H85.1959V110.394ZM85.0981 109.114C85.0981 108.959 85.1455 108.835 85.2404 108.74C85.3352 108.645 85.4598 108.598 85.6139 108.598C85.768 108.598 85.8925 108.645 85.9874 108.74C86.0822 108.835 86.1297 108.959 86.1297 109.114C86.1297 109.268 86.0822 109.392 85.9874 109.487C85.8925 109.582 85.768 109.629 85.6139 109.629C85.4598 109.629 85.3352 109.582 85.2404 109.487C85.1455 109.392 85.0981 109.268 85.0981 109.114ZM89.254 115.241C88.7856 115.241 88.424 115.11 88.1691 114.849C87.9201 114.583 87.7956 114.203 87.7956 113.711V111.186H86.9241V110.394H87.1019C87.3154 110.394 87.4843 110.332 87.6088 110.207C87.7333 110.077 87.7956 109.902 87.7956 109.683V109.291H88.6226V110.394H89.6986V111.186H88.6226V113.685C88.6226 114.218 88.8894 114.485 89.423 114.485C89.5356 114.485 89.6453 114.476 89.752 114.458V115.196C89.6275 115.226 89.4615 115.241 89.254 115.241ZM92.1923 115.178L90.2893 110.394H91.1874L92.6458 114.138L94.0954 110.394H95.0113L92.3613 116.966H91.4453L92.1923 115.178Z" fill="#0B0B0B"/>
<path d="M144.576 108.562H146.915C147.354 108.562 147.739 108.645 148.071 108.811C148.409 108.977 148.67 109.214 148.853 109.523C149.037 109.831 149.129 110.193 149.129 110.608C149.129 111.023 149.037 111.384 148.853 111.693C148.67 112.001 148.409 112.238 148.071 112.404C147.739 112.57 147.354 112.653 146.915 112.653H145.448V115.187H144.576V108.562ZM146.942 111.853C147.339 111.853 147.656 111.74 147.893 111.515C148.13 111.289 148.249 110.987 148.249 110.608C148.249 110.228 148.13 109.926 147.893 109.701C147.656 109.475 147.339 109.363 146.942 109.363H145.448V111.853H146.942ZM150.21 110.394H151.019V110.963C151.268 110.548 151.692 110.341 152.291 110.341H152.584V111.123H152.166C151.822 111.123 151.546 111.23 151.339 111.444C151.137 111.657 151.037 111.953 151.037 112.333V115.187H150.21V110.394ZM155.596 115.294C155.139 115.294 154.721 115.187 154.342 114.974C153.968 114.755 153.672 114.455 153.453 114.076C153.233 113.69 153.123 113.261 153.123 112.786C153.123 112.318 153.23 111.894 153.444 111.515C153.663 111.129 153.959 110.83 154.333 110.617C154.712 110.397 155.133 110.287 155.596 110.287C156.052 110.287 156.467 110.397 156.841 110.617C157.22 110.83 157.516 111.126 157.73 111.506C157.949 111.885 158.059 112.312 158.059 112.786C158.059 113.267 157.949 113.696 157.73 114.076C157.511 114.455 157.211 114.755 156.832 114.974C156.458 115.187 156.046 115.294 155.596 115.294ZM153.995 112.786C153.995 113.106 154.063 113.397 154.199 113.658C154.342 113.919 154.534 114.123 154.778 114.271C155.027 114.42 155.299 114.494 155.596 114.494C155.886 114.494 156.153 114.42 156.396 114.271C156.639 114.123 156.829 113.919 156.965 113.658C157.107 113.397 157.179 113.106 157.179 112.786C157.179 112.466 157.107 112.179 156.965 111.924C156.829 111.663 156.639 111.458 156.396 111.31C156.153 111.162 155.886 111.088 155.596 111.088C155.299 111.088 155.027 111.162 154.778 111.31C154.534 111.458 154.342 111.663 154.199 111.924C154.063 112.179 153.995 112.466 153.995 112.786ZM161.316 115.294C160.871 115.294 160.468 115.184 160.107 114.965C159.745 114.746 159.46 114.446 159.253 114.067C159.045 113.687 158.942 113.264 158.942 112.795C158.942 112.327 159.045 111.903 159.253 111.524C159.46 111.138 159.745 110.836 160.107 110.617C160.468 110.397 160.871 110.287 161.316 110.287C161.666 110.287 161.98 110.353 162.259 110.483C162.543 110.614 162.78 110.797 162.97 111.034V108.456H163.806V115.187H162.997V114.485C162.819 114.74 162.582 114.938 162.285 115.081C161.995 115.223 161.672 115.294 161.316 115.294ZM159.813 112.795C159.813 113.115 159.881 113.406 160.018 113.667C160.154 113.922 160.341 114.123 160.578 114.271C160.821 114.42 161.091 114.494 161.387 114.494C161.683 114.494 161.95 114.42 162.187 114.271C162.43 114.123 162.62 113.922 162.757 113.667C162.899 113.406 162.97 113.115 162.97 112.795C162.97 112.475 162.899 112.185 162.757 111.924C162.62 111.663 162.43 111.458 162.187 111.31C161.95 111.162 161.683 111.088 161.387 111.088C161.091 111.088 160.821 111.162 160.578 111.31C160.341 111.458 160.154 111.663 160.018 111.924C159.881 112.185 159.813 112.475 159.813 112.795ZM166.785 115.294C166.441 115.294 166.133 115.214 165.86 115.054C165.587 114.894 165.374 114.672 165.22 114.387C165.066 114.097 164.989 113.765 164.989 113.391V110.394H165.816V113.302C165.816 113.658 165.922 113.945 166.136 114.165C166.349 114.384 166.628 114.494 166.972 114.494C167.316 114.494 167.594 114.381 167.808 114.156C168.021 113.925 168.128 113.616 168.128 113.231V110.394H168.964V115.187H168.154V114.6C168.012 114.826 167.822 114.998 167.585 115.116C167.348 115.235 167.081 115.294 166.785 115.294ZM172.468 115.294C172 115.294 171.579 115.184 171.205 114.965C170.832 114.746 170.541 114.446 170.334 114.067C170.126 113.682 170.023 113.255 170.023 112.786C170.023 112.312 170.126 111.885 170.334 111.506C170.541 111.126 170.829 110.83 171.197 110.617C171.57 110.397 171.994 110.287 172.468 110.287C172.931 110.287 173.352 110.409 173.731 110.652C174.116 110.889 174.389 111.197 174.549 111.577L173.802 111.933C173.689 111.678 173.512 111.473 173.269 111.319C173.031 111.165 172.765 111.088 172.468 111.088C172.178 111.088 171.911 111.162 171.668 111.31C171.431 111.458 171.244 111.663 171.108 111.924C170.971 112.179 170.903 112.469 170.903 112.795C170.903 113.115 170.971 113.406 171.108 113.667C171.25 113.922 171.44 114.123 171.677 114.271C171.914 114.42 172.178 114.494 172.468 114.494C172.771 114.494 173.04 114.417 173.277 114.263C173.515 114.108 173.689 113.898 173.802 113.631L174.549 114.005C174.395 114.378 174.125 114.686 173.74 114.929C173.354 115.173 172.931 115.294 172.468 115.294ZM177.55 115.241C177.082 115.241 176.72 115.11 176.465 114.849C176.216 114.583 176.092 114.203 176.092 113.711V111.186H175.22V110.394H175.398C175.612 110.394 175.781 110.332 175.905 110.207C176.03 110.077 176.092 109.902 176.092 109.683V109.291H176.919V110.394H177.995V111.186H176.919V113.685C176.919 114.218 177.186 114.485 177.719 114.485C177.832 114.485 177.942 114.476 178.048 114.458V115.196C177.924 115.226 177.758 115.241 177.55 115.241ZM179.129 110.394H179.956V115.187H179.129V110.394ZM179.031 109.114C179.031 108.959 179.078 108.835 179.173 108.74C179.268 108.645 179.393 108.598 179.547 108.598C179.701 108.598 179.825 108.645 179.92 108.74C180.015 108.835 180.063 108.959 180.063 109.114C180.063 109.268 180.015 109.392 179.92 109.487C179.825 109.582 179.701 109.629 179.547 109.629C179.393 109.629 179.268 109.582 179.173 109.487C179.078 109.392 179.031 109.268 179.031 109.114ZM180.696 110.394H181.621L182.964 114.022L184.316 110.394H185.24L183.355 115.187H182.573L180.696 110.394ZM188.099 115.294C187.649 115.294 187.24 115.184 186.872 114.965C186.505 114.746 186.217 114.446 186.01 114.067C185.802 113.682 185.698 113.252 185.698 112.777C185.698 112.303 185.799 111.876 186.001 111.497C186.208 111.117 186.487 110.821 186.837 110.608C187.192 110.394 187.59 110.287 188.028 110.287C188.485 110.287 188.882 110.394 189.22 110.608C189.564 110.821 189.825 111.106 190.002 111.461C190.186 111.811 190.278 112.188 190.278 112.591C190.278 112.727 190.263 112.875 190.234 113.035H186.57C186.582 113.338 186.659 113.602 186.801 113.827C186.943 114.052 187.127 114.227 187.352 114.351C187.584 114.476 187.836 114.538 188.108 114.538C188.689 114.538 189.137 114.274 189.451 113.747L190.145 114.102C189.991 114.446 189.73 114.731 189.362 114.956C188.995 115.181 188.574 115.294 188.099 115.294ZM189.38 112.324C189.368 111.95 189.232 111.642 188.971 111.399C188.716 111.15 188.402 111.026 188.028 111.026C187.661 111.026 187.344 111.144 187.077 111.381C186.81 111.612 186.647 111.927 186.588 112.324H189.38ZM194.841 115.241C194.373 115.241 194.011 115.11 193.756 114.849C193.507 114.583 193.382 114.203 193.382 113.711V111.186H192.511V110.394H192.689C192.902 110.394 193.071 110.332 193.196 110.207C193.32 110.077 193.382 109.902 193.382 109.683V109.291H194.209V110.394H195.286V111.186H194.209V113.685C194.209 114.218 194.476 114.485 195.01 114.485C195.122 114.485 195.232 114.476 195.339 114.458V115.196C195.214 115.226 195.048 115.241 194.841 115.241ZM196.419 110.394H197.246V115.187H196.419V110.394ZM196.322 109.114C196.322 108.959 196.369 108.835 196.464 108.74C196.559 108.645 196.683 108.598 196.837 108.598C196.991 108.598 197.116 108.645 197.211 108.74C197.306 108.835 197.353 108.959 197.353 109.114C197.353 109.268 197.306 109.392 197.211 109.487C197.116 109.582 196.991 109.629 196.837 109.629C196.683 109.629 196.559 109.582 196.464 109.487C196.369 109.392 196.322 109.268 196.322 109.114ZM198.53 110.394H199.339V110.99C199.475 110.765 199.659 110.593 199.89 110.474C200.128 110.35 200.388 110.287 200.673 110.287C200.999 110.287 201.296 110.368 201.562 110.528C201.835 110.682 202.043 110.892 202.185 111.159C202.339 110.88 202.546 110.667 202.807 110.519C203.074 110.365 203.368 110.287 203.688 110.287C204.014 110.287 204.313 110.368 204.586 110.528C204.859 110.682 205.075 110.895 205.235 111.168C205.395 111.441 205.475 111.746 205.475 112.084V115.187H204.639V112.351C204.639 111.959 204.535 111.651 204.328 111.426C204.126 111.2 203.863 111.088 203.537 111.088C203.205 111.088 202.935 111.203 202.727 111.435C202.52 111.66 202.416 111.965 202.416 112.351V115.187H201.58V112.351C201.58 111.959 201.479 111.651 201.278 111.426C201.076 111.2 200.809 111.088 200.477 111.088C200.151 111.088 199.882 111.203 199.668 111.435C199.461 111.66 199.357 111.965 199.357 112.351V115.187H198.53V110.394ZM208.855 115.294C208.405 115.294 207.995 115.184 207.628 114.965C207.26 114.746 206.973 114.446 206.765 114.067C206.558 113.682 206.454 113.252 206.454 112.777C206.454 112.303 206.555 111.876 206.756 111.497C206.964 111.117 207.243 110.821 207.592 110.608C207.948 110.394 208.345 110.287 208.784 110.287C209.24 110.287 209.638 110.394 209.976 110.608C210.319 110.821 210.58 111.106 210.758 111.461C210.942 111.811 211.034 112.188 211.034 112.591C211.034 112.727 211.019 112.875 210.989 113.035H207.326C207.337 113.338 207.414 113.602 207.557 113.827C207.699 114.052 207.883 114.227 208.108 114.351C208.339 114.476 208.591 114.538 208.864 114.538C209.445 114.538 209.893 114.274 210.207 113.747L210.9 114.102C210.746 114.446 210.485 114.731 210.118 114.956C209.75 115.181 209.329 115.294 208.855 115.294ZM210.136 112.324C210.124 111.95 209.987 111.642 209.727 111.399C209.472 111.15 209.157 111.026 208.784 111.026C208.416 111.026 208.099 111.144 207.832 111.381C207.566 111.612 207.403 111.927 207.343 112.324H210.136Z" fill="#0B0B0B"/>
<path d="M241.015 108.562H241.931L243.38 114.005L244.892 108.562H245.808L247.302 113.987L248.76 108.562H249.676L247.818 115.187H246.848L245.345 109.798L243.843 115.187H242.873L241.015 108.562ZM252.353 115.294C251.896 115.294 251.478 115.187 251.099 114.974C250.726 114.755 250.429 114.455 250.21 114.076C249.99 113.69 249.881 113.261 249.881 112.786C249.881 112.318 249.987 111.894 250.201 111.515C250.42 111.129 250.717 110.83 251.09 110.617C251.47 110.397 251.891 110.287 252.353 110.287C252.809 110.287 253.224 110.397 253.598 110.617C253.977 110.83 254.274 111.126 254.487 111.506C254.707 111.885 254.816 112.312 254.816 112.786C254.816 113.267 254.707 113.696 254.487 114.076C254.268 114.455 253.968 114.755 253.589 114.974C253.216 115.187 252.803 115.294 252.353 115.294ZM250.752 112.786C250.752 113.106 250.82 113.397 250.957 113.658C251.099 113.919 251.292 114.123 251.535 114.271C251.784 114.42 252.057 114.494 252.353 114.494C252.643 114.494 252.91 114.42 253.153 114.271C253.396 114.123 253.586 113.919 253.722 113.658C253.865 113.397 253.936 113.106 253.936 112.786C253.936 112.466 253.865 112.179 253.722 111.924C253.586 111.663 253.396 111.458 253.153 111.31C252.91 111.162 252.643 111.088 252.353 111.088C252.057 111.088 251.784 111.162 251.535 111.31C251.292 111.458 251.099 111.663 250.957 111.924C250.82 112.179 250.752 112.466 250.752 112.786ZM255.895 110.394H256.704V110.963C256.953 110.548 257.377 110.341 257.976 110.341H258.27V111.123H257.852C257.508 111.123 257.232 111.23 257.025 111.444C256.823 111.657 256.722 111.953 256.722 112.333V115.187H255.895V110.394ZM259.004 108.456H259.831V112.644L262.036 110.394H263.095L261.254 112.324L263.219 115.187H262.241L260.649 112.884L259.831 113.747V115.187H259.004V108.456ZM263.962 110.394H264.789V115.187H263.962V110.394ZM263.865 109.114C263.865 108.959 263.912 108.835 264.007 108.74C264.102 108.645 264.226 108.598 264.38 108.598C264.535 108.598 264.659 108.645 264.754 108.74C264.849 108.835 264.896 108.959 264.896 109.114C264.896 109.268 264.849 109.392 264.754 109.487C264.659 109.582 264.535 109.629 264.38 109.629C264.226 109.629 264.102 109.582 264.007 109.487C263.912 109.392 263.865 109.268 263.865 109.114ZM266.073 110.394H266.882V110.981C267.024 110.756 267.214 110.584 267.451 110.465C267.688 110.347 267.955 110.287 268.252 110.287C268.59 110.287 268.895 110.368 269.168 110.528C269.44 110.682 269.654 110.895 269.808 111.168C269.968 111.441 270.048 111.746 270.048 112.084V115.187H269.212V112.351C269.212 111.959 269.105 111.651 268.892 111.426C268.684 111.2 268.409 111.088 268.065 111.088C267.721 111.088 267.439 111.203 267.22 111.435C267.007 111.66 266.9 111.965 266.9 112.351V115.187H266.073V110.394ZM273.517 117.144C273.013 117.144 272.568 117.028 272.183 116.797C271.804 116.572 271.534 116.269 271.374 115.89L272.147 115.534C272.236 115.771 272.399 115.964 272.637 116.112C272.874 116.266 273.164 116.343 273.508 116.343C273.929 116.343 274.279 116.222 274.557 115.979C274.836 115.742 274.975 115.41 274.975 114.983V114.316C274.798 114.559 274.569 114.746 274.291 114.876C274.012 115.007 273.71 115.072 273.384 115.072C272.939 115.072 272.539 114.968 272.183 114.761C271.827 114.547 271.546 114.26 271.338 113.898C271.137 113.53 271.036 113.124 271.036 112.68C271.036 112.235 271.137 111.832 271.338 111.47C271.54 111.103 271.818 110.815 272.174 110.608C272.53 110.394 272.93 110.287 273.375 110.287C273.707 110.287 274.012 110.356 274.291 110.492C274.569 110.622 274.806 110.812 275.002 111.061V110.394H275.811V114.983C275.811 115.398 275.713 115.768 275.518 116.094C275.322 116.421 275.049 116.675 274.7 116.859C274.35 117.049 273.956 117.144 273.517 117.144ZM271.907 112.68C271.907 112.97 271.973 113.237 272.103 113.48C272.239 113.723 272.426 113.916 272.663 114.058C272.9 114.2 273.164 114.271 273.455 114.271C273.733 114.271 273.988 114.2 274.219 114.058C274.457 113.916 274.64 113.723 274.771 113.48C274.907 113.237 274.975 112.97 274.975 112.68C274.975 112.389 274.907 112.122 274.771 111.879C274.64 111.636 274.457 111.444 274.219 111.301C273.988 111.159 273.733 111.088 273.455 111.088C273.164 111.088 272.9 111.159 272.663 111.301C272.432 111.444 272.248 111.636 272.112 111.879C271.976 112.122 271.907 112.389 271.907 112.68ZM278.728 108.562H279.6V111.515H282.917V108.562H283.797V115.187H282.917V112.315H279.6V115.187H278.728V108.562ZM287.447 115.294C286.99 115.294 286.572 115.187 286.193 114.974C285.819 114.755 285.523 114.455 285.304 114.076C285.084 113.69 284.975 113.261 284.975 112.786C284.975 112.318 285.081 111.894 285.295 111.515C285.514 111.129 285.81 110.83 286.184 110.617C286.563 110.397 286.984 110.287 287.447 110.287C287.903 110.287 288.318 110.397 288.692 110.617C289.071 110.83 289.368 111.126 289.581 111.506C289.8 111.885 289.91 112.312 289.91 112.786C289.91 113.267 289.8 113.696 289.581 114.076C289.362 114.455 289.062 114.755 288.683 114.974C288.309 115.187 287.897 115.294 287.447 115.294ZM285.846 112.786C285.846 113.106 285.914 113.397 286.051 113.658C286.193 113.919 286.385 114.123 286.629 114.271C286.878 114.42 287.15 114.494 287.447 114.494C287.737 114.494 288.004 114.42 288.247 114.271C288.49 114.123 288.68 113.919 288.816 113.658C288.958 113.397 289.03 113.106 289.03 112.786C289.03 112.466 288.958 112.179 288.816 111.924C288.68 111.663 288.49 111.458 288.247 111.31C288.004 111.162 287.737 111.088 287.447 111.088C287.15 111.088 286.878 111.162 286.629 111.31C286.385 111.458 286.193 111.663 286.051 111.924C285.914 112.179 285.846 112.466 285.846 112.786ZM292.687 115.294C292.343 115.294 292.035 115.214 291.762 115.054C291.489 114.894 291.276 114.672 291.122 114.387C290.967 114.097 290.89 113.765 290.89 113.391V110.394H291.717V113.302C291.717 113.658 291.824 113.945 292.038 114.165C292.251 114.384 292.53 114.494 292.874 114.494C293.217 114.494 293.496 114.381 293.709 114.156C293.923 113.925 294.03 113.616 294.03 113.231V110.394H294.865V115.187H294.056V114.6C293.914 114.826 293.724 114.998 293.487 115.116C293.25 115.235 292.983 115.294 292.687 115.294ZM296.147 110.394H296.956V110.963C297.205 110.548 297.629 110.341 298.228 110.341H298.521V111.123H298.103C297.759 111.123 297.484 111.23 297.276 111.444C297.075 111.657 296.974 111.953 296.974 112.333V115.187H296.147V110.394ZM300.972 115.294C300.509 115.294 300.1 115.181 299.745 114.956C299.389 114.725 299.134 114.414 298.98 114.022L299.647 113.685C299.783 113.963 299.97 114.183 300.207 114.343C300.444 114.503 300.702 114.583 300.981 114.583C301.248 114.583 301.467 114.52 301.639 114.396C301.811 114.271 301.897 114.108 301.897 113.907C301.897 113.711 301.82 113.554 301.665 113.436C301.511 113.311 301.345 113.237 301.167 113.213L300.447 113.115C300.02 113.009 299.7 112.831 299.487 112.582C299.273 112.333 299.167 112.039 299.167 111.701C299.167 111.423 299.238 111.177 299.38 110.963C299.528 110.75 299.73 110.584 299.985 110.465C300.246 110.347 300.533 110.287 300.847 110.287C301.262 110.287 301.633 110.391 301.959 110.599C302.291 110.806 302.528 111.094 302.67 111.461L302.012 111.799C301.894 111.556 301.728 111.363 301.514 111.221C301.307 111.079 301.076 111.008 300.821 111.008C300.578 111.008 300.382 111.067 300.234 111.186C300.086 111.304 300.011 111.458 300.011 111.648C300.011 111.844 300.08 112.001 300.216 112.119C300.358 112.232 300.512 112.303 300.678 112.333L301.47 112.44C301.867 112.546 302.175 112.73 302.395 112.991C302.62 113.246 302.733 113.542 302.733 113.88C302.733 114.153 302.658 114.396 302.51 114.609C302.362 114.823 302.155 114.992 301.888 115.116C301.621 115.235 301.316 115.294 300.972 115.294Z" fill="#0B0B0B"/>
<path d="M78.6241 138.16C79.1643 136.308 81.4609 132.899 86.3245 134.084C92.4034 135.566 93.8218 138.16 96.2532 134.084C98.6847 130.008 101.725 128.526 104.561 128.526" stroke="#87C51E" stroke-width="1.07636"/>
<path d="M124.57 104.442C124.57 104.237 124.404 104.071 124.2 104.071C123.995 104.071 123.829 104.237 123.829 104.442V139.272C123.829 139.476 123.995 139.642 124.2 139.642C124.404 139.642 124.57 139.476 124.57 139.272V104.442Z" fill="#EBEBEB"/>
<defs>
<filter id="filter0_d_263_674" x="150.727" y="0.0181816" width="453.236" height="423.098" filterUnits="userSpaceOnUse" color-interpolation-filters="sRGB">
<feFlood flood-opacity="0" result="BackgroundImageFix"/>
<feColorMatrix in="SourceAlpha" type="matrix" values="0 0 0 0 0 0 0 0 0 0 0 0 0 0 0 0 0 0 127 0" result="hardAlpha"/>
<feOffset dy="2.98182"/>
<feGaussianBlur stdDeviation="2.98182"/>
<feColorMatrix type="matrix" values="0 0 0 0 0 0 0 0 0 0 0 0 0 0 0 0 0 0 0.1 0"/>
<feBlend mode="normal" in2="BackgroundImageFix" result="effect1_dropShadow_263_674"/>
<feBlend mode="normal" in="SourceGraphic" in2="effect1_dropShadow_263_674" result="shape"/>
</filter>
<filter id="filter1_d_263_674" x="0.0363631" y="81.8219" width="340.218" height="86.0335" filterUnits="userSpaceOnUse" color-interpolation-filters="sRGB">
<feFlood flood-opacity="0" result="BackgroundImageFix"/>
<feColorMatrix in="SourceAlpha" type="matrix" values="0 0 0 0 0 0 0 0 0 0 0 0 0 0 0 0 0 0 127 0" result="hardAlpha"/>
<feOffset dy="2.98182"/>
<feGaussianBlur stdDeviation="2.98182"/>
<feColorMatrix type="matrix" values="0 0 0 0 0 0 0 0 0 0 0 0 0 0 0 0 0 0 0.1 0"/>
<feBlend mode="normal" in2="BackgroundImageFix" result="effect1_dropShadow_263_674"/>
<feBlend mode="normal" in="SourceGraphic" in2="effect1_dropShadow_263_674" result="shape"/>
</filter>
<linearGradient id="paint0_linear_263_674" x1="951.414" y1="289.328" x2="951.414" y2="172.515" gradientUnits="userSpaceOnUse">
<stop stop-color="white" stop-opacity="0.07"/>
<stop offset="1" stop-color="#D9DBDB" stop-opacity="0.6"/>
</linearGradient>
<linearGradient id="paint1_linear_263_674" x1="941.516" y1="288.01" x2="941.516" y2="204.104" gradientUnits="userSpaceOnUse">
<stop stop-color="#A76262" stop-opacity="0.07"/>
<stop offset="1" stop-color="#A76262" stop-opacity="0.35"/>
</linearGradient>
<clipPath id="clip0_263_674">
<rect width="47.7091" height="172.945" fill="white" transform="translate(204.4 137.182)"/>
</clipPath>
<clipPath id="clip1_263_674">
<rect width="280.291" height="14.9091" fill="white" transform="translate(256.582 310.127)"/>
</clipPath>
</defs>
</svg>
