<svg width="155" height="39" viewBox="0 0 155 39" fill="none" xmlns="http://www.w3.org/2000/svg">
<path d="M55.7857 30.79V11.8761H60.8959V30.79H55.7857ZM49.398 12.4993V8.04348H67.3148V12.4993H49.398ZM70.0245 30.79V13.7145H75.01V30.79H70.0245ZM67.7498 17.3914V13.7145H75.01V17.3914H67.7498ZM71.9564 12.0319C71.0216 12.0319 70.3257 11.793 69.8687 11.3152C69.4324 10.8167 69.2143 10.1935 69.2143 9.44567C69.2143 8.67706 69.4324 8.05387 69.8687 7.57609C70.3257 7.07753 71.0216 6.82826 71.9564 6.82826C72.8912 6.82826 73.5767 7.07753 74.0129 7.57609C74.4699 8.05387 74.6984 8.67706 74.6984 9.44567C74.6984 10.1935 74.4699 10.8167 74.0129 11.3152C73.5767 11.793 72.8912 12.0319 71.9564 12.0319ZM79.6212 30.79V13.7145H83.5784V21.0682H83.298C83.298 19.3233 83.5161 17.8692 83.9524 16.7059C84.3886 15.5426 85.0429 14.6701 85.9154 14.0885C86.7879 13.486 87.8577 13.1848 89.1249 13.1848H89.343C90.6309 13.1848 91.7007 13.486 92.5524 14.0885C93.4249 14.6701 94.0792 15.5426 94.5155 16.7059C94.9725 17.8692 95.201 19.3233 95.201 21.0682H93.9858C93.9858 19.3233 94.2039 17.8692 94.6401 16.7059C95.0971 15.5426 95.7619 14.6701 96.6343 14.0885C97.5068 13.486 98.5766 13.1848 99.8438 13.1848H100.062C101.35 13.1848 102.43 13.486 103.303 14.0885C104.196 14.6701 104.871 15.5426 105.328 16.7059C105.785 17.8692 106.013 19.3233 106.013 21.0682V30.79H101.028V20.7878C101.028 19.853 100.779 19.0948 100.28 18.5131C99.8022 17.9315 99.1167 17.6407 98.2235 17.6407C97.3302 17.6407 96.6239 17.9419 96.1046 18.5443C95.5853 19.1259 95.3256 19.9049 95.3256 20.8813V30.79H90.3089V20.7878C90.3089 19.853 90.0596 19.0948 89.5611 18.5131C89.0833 17.9315 88.4082 17.6407 87.5357 17.6407C86.6217 17.6407 85.905 17.9419 85.3857 18.5443C84.8664 19.1259 84.6067 19.9049 84.6067 20.8813V30.79H79.6212ZM118.085 31.3821C116.63 31.3821 115.343 31.1328 114.221 30.6342C113.12 30.1357 112.195 29.4709 111.448 28.64C110.721 27.7883 110.16 26.8431 109.765 25.8045C109.391 24.7451 109.204 23.6649 109.204 22.5639V21.9407C109.204 20.7982 109.391 19.7076 109.765 18.6689C110.16 17.6095 110.721 16.6643 111.448 15.8334C112.175 15.0025 113.078 14.3481 114.158 13.8703C115.259 13.3718 116.506 13.1225 117.898 13.1225C119.726 13.1225 121.263 13.538 122.509 14.3689C123.776 15.179 124.742 16.2489 125.407 17.5783C126.072 18.887 126.404 20.3204 126.404 21.8784V23.561H111.292V20.7255H123.382L121.761 22.0342C121.761 21.0163 121.616 20.1438 121.325 19.4168C121.034 18.6897 120.598 18.1392 120.016 17.7653C119.456 17.3706 118.749 17.1733 117.898 17.1733C117.025 17.1733 116.288 17.3706 115.685 17.7653C115.083 18.16 114.626 18.7416 114.314 19.5102C114.003 20.2581 113.847 21.1825 113.847 22.2835C113.847 23.3013 113.992 24.1946 114.283 24.9632C114.574 25.711 115.031 26.2927 115.654 26.7081C116.277 27.1236 117.087 27.3313 118.085 27.3313C118.999 27.3313 119.746 27.1547 120.328 26.8016C120.91 26.4485 121.304 26.0122 121.512 25.4929H126.093C125.843 26.6354 125.355 27.6533 124.628 28.5465C123.901 29.4398 122.987 30.1357 121.886 30.6342C120.785 31.1328 119.518 31.3821 118.085 31.3821Z" fill="white"/>
<path d="M145.35 37.5828C143.937 37.5828 142.712 37.4167 141.673 37.0843C140.655 36.7519 139.856 36.1495 139.274 35.277C138.713 34.4046 138.433 33.1582 138.433 31.5379V28.048H143.2V31.756C143.2 32.3584 143.366 32.8154 143.699 33.127C144.052 33.4594 144.529 33.6256 145.132 33.6256H148.528V37.5828H145.35ZM140.894 31.3821C138.838 31.3821 137.041 31.0289 135.504 30.3226C133.987 29.5956 132.73 28.6504 131.733 27.4871C130.736 26.303 129.988 25.0255 129.49 23.6545C129.012 22.2835 128.773 20.9644 128.773 19.6972V19.0117C128.773 17.5991 129.022 16.2073 129.521 14.8363C130.04 13.4445 130.809 12.1877 131.827 11.066C132.845 9.94422 134.112 9.05098 135.628 8.38624C137.145 7.70073 138.9 7.35797 140.894 7.35797C142.888 7.35797 144.644 7.70073 146.16 8.38624C147.677 9.05098 148.944 9.94422 149.962 11.066C150.98 12.1877 151.748 13.4445 152.267 14.8363C152.787 16.2073 153.046 17.5991 153.046 19.0117V19.6972C153.046 20.9644 152.797 22.2835 152.299 23.6545C151.8 25.0255 151.052 26.303 150.055 27.4871C149.058 28.6504 147.791 29.5956 146.254 30.3226C144.737 31.0289 142.951 31.3821 140.894 31.3821ZM140.894 26.6146C141.974 26.6146 142.94 26.4277 143.792 26.0538C144.665 25.6799 145.402 25.1605 146.004 24.4958C146.628 23.831 147.095 23.0624 147.407 22.19C147.718 21.3175 147.874 20.3827 147.874 19.3856C147.874 18.3262 147.708 17.3602 147.375 16.4878C147.064 15.5945 146.596 14.8259 145.973 14.1819C145.371 13.5172 144.644 13.0083 143.792 12.6551C142.94 12.302 141.974 12.1254 140.894 12.1254C139.814 12.1254 138.848 12.302 137.996 12.6551C137.145 13.0083 136.407 13.5172 135.784 14.1819C135.182 14.8259 134.725 15.5945 134.413 16.4878C134.101 17.3602 133.946 18.3262 133.946 19.3856C133.946 20.3827 134.101 21.3175 134.413 22.19C134.725 23.0624 135.182 23.831 135.784 24.4958C136.407 25.1605 137.145 25.6799 137.996 26.0538C138.848 26.4277 139.814 26.6146 140.894 26.6146Z" fill="#FF645A"/>
<path d="M39.4496 19.4748C39.4496 23.3265 38.3074 27.0918 36.1675 30.2944C34.0276 33.497 30.986 35.9931 27.4275 37.4672C23.8689 38.9412 19.9532 39.3268 16.1754 38.5754C12.3977 37.8239 8.92763 35.9691 6.20403 33.2455C3.48044 30.5219 1.62564 27.0519 0.874203 23.2741C0.122764 19.4964 0.508429 15.5807 1.98243 12.0221C3.45643 8.46356 5.95256 5.42201 9.15518 3.28209C12.3578 1.14218 16.123 -4.59317e-08 19.9748 0V19.4748H39.4496Z" fill="url(#paint0_angular_25_1519)"/>
<defs>
<radialGradient id="paint0_angular_25_1519" cx="0" cy="0" r="1" gradientUnits="userSpaceOnUse" gradientTransform="translate(19.9748 19.4748) scale(19.4748)">
<stop stop-color="#FF4F44"/>
<stop offset="1" stop-color="#FFBCB8"/>
</radialGradient>
</defs>
</svg>
